{"glyphs":{"0":{"ha":282,"x_min":22,"x_max":260,"o":"m 260 109 q 250 52 260 76 q 223 11 240 27 q 185 -14 206 -5 q 141 -22 163 -22 q 97 -14 119 -22 q 59 11 76 -5 q 32 52 42 27 q 22 109 22 76 l 22 1063 q 32 1120 22 1096 q 59 1161 42 1145 q 97 1185 76 1177 q 141 1194 119 1194 q 185 1185 163 1194 q 223 1161 206 1177 q 250 1120 240 1145 q 260 1063 260 1096 l 260 109 m 174 1063 q 163 1100 174 1088 q 141 1112 153 1112 q 119 1100 129 1112 q 109 1063 109 1088 l 109 109 q 119 72 109 84 q 141 60 129 60 q 163 72 153 60 q 174 109 174 84 l 174 1063 z "},"1":{"ha":260,"x_min":22,"x_max":239,"o":"m 22 65 l 87 65 l 87 1107 l 22 1107 l 22 1172 l 174 1172 l 174 65 l 239 65 l 239 0 l 22 0 l 22 65 z "},"2":{"ha":282,"x_min":22,"x_max":260,"o":"m 22 1063 q 39 1136 22 1107 q 83 1179 57 1164 q 141 1194 110 1194 q 199 1179 172 1194 q 243 1136 225 1164 q 260 1063 260 1107 q 260 1031 260 1043 q 258 1006 260 1020 q 252 971 256 993 q 240 909 248 949 q 221 804 233 869 q 195 640 210 740 q 158 399 179 540 q 109 65 136 258 l 260 65 l 260 0 l 22 0 q 73 355 51 204 q 112 616 96 507 q 139 797 128 725 q 157 915 150 869 q 167 985 163 960 q 172 1023 170 1009 q 174 1044 174 1036 l 174 1063 q 163 1112 174 1096 q 141 1128 153 1128 q 119 1112 129 1128 q 109 1063 109 1096 l 109 868 l 22 868 l 22 1063 z "},"3":{"ha":304,"x_min":22,"x_max":260,"o":"m 22 1063 q 32 1120 22 1096 q 59 1161 42 1145 q 97 1185 76 1177 q 141 1194 119 1194 q 185 1185 163 1194 q 223 1161 206 1177 q 250 1120 240 1145 q 260 1063 260 1096 l 260 694 q 259 675 260 686 q 252 651 258 663 q 233 627 246 639 q 195 608 220 616 q 233 588 220 600 q 252 564 246 576 q 259 541 258 552 q 260 521 260 529 l 260 109 q 250 52 260 76 q 223 11 240 27 q 185 -14 206 -5 q 141 -22 163 -22 q 97 -14 119 -22 q 59 11 76 -5 q 32 52 42 27 q 22 109 22 76 l 22 412 l 109 412 l 109 109 q 119 60 109 76 q 141 43 129 43 q 163 60 153 43 q 174 109 174 76 l 174 521 q 170 546 174 537 q 160 559 166 555 q 146 564 154 563 q 130 564 138 564 l 87 564 l 87 651 l 130 651 q 146 652 138 651 q 160 656 154 652 q 170 670 166 661 q 174 695 174 679 l 174 1063 q 163 1112 174 1096 q 141 1128 153 1128 q 119 1112 129 1128 q 109 1063 109 1096 l 109 781 l 22 781 l 22 1063 z "},"4":{"ha":304,"x_min":22,"x_max":260,"o":"m 260 760 l 260 0 l 174 0 l 174 239 l 22 239 l 65 1172 l 152 1172 l 109 319 l 174 319 l 174 760 l 260 760 z "},"5":{"ha":306,"x_min":43,"x_max":282,"o":"m 195 586 q 185 623 195 610 q 163 635 175 635 q 140 623 151 635 q 130 586 130 610 l 43 586 l 43 1172 l 282 1172 l 282 1107 l 130 1107 l 130 673 q 162 703 143 692 q 201 714 182 714 q 231 707 216 714 q 257 684 245 700 q 275 645 269 669 q 282 586 282 621 l 282 109 q 272 52 282 76 q 245 11 262 27 q 207 -14 228 -5 q 163 -22 185 -22 q 119 -14 140 -22 q 81 11 98 -5 q 54 52 64 27 q 43 109 43 76 l 43 499 l 130 499 l 130 109 q 140 60 130 76 q 163 43 151 43 q 185 60 175 43 q 195 109 195 76 l 195 586 z "},"6":{"ha":326,"x_min":43,"x_max":282,"o":"m 130 673 q 168 688 150 682 q 202 693 186 693 q 260 663 239 693 q 282 564 282 633 l 282 109 q 272 52 282 76 q 245 11 262 27 q 207 -14 228 -5 q 163 -22 185 -22 q 119 -14 140 -22 q 81 11 98 -5 q 54 52 64 27 q 43 109 43 76 l 43 1063 q 54 1120 43 1096 q 81 1161 64 1145 q 119 1185 98 1177 q 163 1194 140 1194 q 207 1185 185 1194 q 245 1161 228 1177 q 272 1120 262 1145 q 282 1063 282 1096 l 282 825 l 195 825 l 195 1063 q 185 1112 195 1096 q 163 1128 175 1128 q 140 1112 151 1128 q 130 1063 130 1096 l 130 673 m 195 564 q 188 598 195 589 q 171 608 181 608 q 150 601 161 608 q 130 586 138 594 l 130 109 q 140 72 130 84 q 163 60 151 60 q 185 72 175 60 q 195 109 195 84 l 195 564 z "},"7":{"ha":239,"x_min":22,"x_max":217,"o":"m 43 0 l 130 1107 l 22 1107 l 22 1172 l 217 1172 l 130 0 l 43 0 z "},"8":{"ha":296,"x_min":22,"x_max":260,"o":"m 141 -22 q 97 -14 119 -22 q 59 11 76 -5 q 32 52 42 27 q 22 109 22 76 l 22 282 q 32 437 22 372 q 54 545 42 503 q 87 629 68 595 q 54 705 68 663 q 32 794 42 742 q 22 911 22 846 l 22 1063 q 32 1120 22 1096 q 59 1161 42 1145 q 97 1185 76 1177 q 141 1194 119 1194 q 185 1185 163 1194 q 223 1161 206 1177 q 250 1120 240 1145 q 260 1063 260 1096 l 260 911 q 250 794 260 846 q 228 705 240 742 q 195 629 214 663 q 228 545 214 595 q 250 437 240 503 q 260 282 260 372 l 260 109 q 250 52 260 76 q 223 11 240 27 q 185 -14 206 -5 q 141 -22 163 -22 m 141 1112 q 119 1100 129 1112 q 109 1063 109 1088 l 109 890 q 114 822 109 857 q 125 759 119 787 q 142 694 132 726 q 157 759 150 726 q 169 822 163 787 q 174 890 174 857 l 174 1063 q 163 1100 174 1088 q 141 1112 153 1112 m 142 564 q 125 476 132 521 q 114 392 119 437 q 109 304 109 346 l 109 109 q 119 72 109 84 q 141 60 129 60 q 163 72 153 60 q 174 109 174 84 l 174 304 q 169 392 174 346 q 157 476 163 437 q 142 564 150 521 z "},"9":{"ha":326,"x_min":43,"x_max":282,"o":"m 195 499 q 157 484 176 490 q 123 479 139 479 q 65 509 87 479 q 43 608 43 539 l 43 1063 q 54 1120 43 1096 q 81 1161 64 1145 q 119 1185 98 1177 q 163 1194 140 1194 q 207 1185 185 1194 q 245 1161 228 1177 q 272 1120 262 1145 q 282 1063 282 1096 l 282 109 q 272 52 282 76 q 245 11 262 27 q 207 -14 228 -5 q 163 -22 185 -22 q 119 -14 140 -22 q 81 11 98 -5 q 54 52 64 27 q 43 109 43 76 l 43 347 l 130 347 l 130 109 q 140 60 130 76 q 163 43 151 43 q 185 60 175 43 q 195 109 195 76 l 195 499 m 130 608 q 137 574 130 583 q 155 564 144 564 q 176 571 165 564 q 195 586 187 578 l 195 1063 q 185 1100 195 1088 q 163 1112 175 1112 q 140 1100 151 1112 q 130 1063 130 1088 l 130 608 z "},"\u0000":{"ha":0,"x_min":0,"x_max":0,"o":""},"À":{"ha":304,"x_min":-11,"x_max":282,"o":"m 98 1547 l 184 1265 l 119 1265 l -11 1547 l 98 1547 m 282 0 l 195 0 l 184 282 l 120 282 l 109 0 l 22 0 l 87 1172 l 217 1172 l 282 0 m 174 608 l 152 1128 l 130 608 l 120 347 l 184 347 l 174 608 z "},"Á":{"ha":304,"x_min":22,"x_max":315,"o":"m 315 1547 l 184 1265 l 119 1265 l 206 1547 l 315 1547 m 282 0 l 195 0 l 184 282 l 120 282 l 109 0 l 22 0 l 87 1172 l 217 1172 l 282 0 m 174 608 l 152 1128 l 130 608 l 120 347 l 184 347 l 174 608 z "},"Â":{"ha":304,"x_min":22,"x_max":282,"o":"m 201 1499 l 241 1265 l 172 1265 l 152 1426 l 131 1265 l 62 1265 l 102 1499 l 201 1499 m 282 0 l 195 0 l 184 282 l 120 282 l 109 0 l 22 0 l 87 1172 l 217 1172 l 282 0 m 174 608 l 152 1128 l 130 608 l 120 347 l 184 347 l 174 608 z "},"Ã":{"ha":304,"x_min":22,"x_max":282,"o":"m 23 1265 q 27 1308 23 1288 q 39 1342 31 1327 q 61 1364 47 1356 q 94 1373 74 1373 q 123 1368 111 1373 q 148 1358 136 1364 q 174 1348 160 1352 q 206 1343 188 1343 q 217 1348 213 1343 q 223 1358 221 1352 q 227 1373 227 1364 l 281 1373 q 279 1344 281 1357 q 274 1319 278 1331 q 252 1281 267 1298 q 206 1265 237 1265 q 175 1270 189 1265 q 147 1280 160 1274 q 121 1290 134 1285 q 94 1295 108 1295 q 84 1290 88 1295 q 79 1280 81 1286 q 77 1265 77 1274 l 23 1265 m 282 0 l 195 0 l 184 282 l 120 282 l 109 0 l 22 0 l 87 1172 l 217 1172 l 282 0 m 174 608 l 152 1128 l 130 608 l 120 347 l 184 347 l 174 608 z "},"Ä":{"ha":304,"x_min":22,"x_max":282,"o":"m 269 1373 l 269 1265 l 172 1265 l 172 1373 l 269 1373 m 133 1373 l 133 1265 l 35 1265 l 35 1373 l 133 1373 m 282 0 l 195 0 l 184 282 l 120 282 l 109 0 l 22 0 l 87 1172 l 217 1172 l 282 0 m 174 608 l 152 1128 l 130 608 l 120 347 l 184 347 l 174 608 z "},"Å":{"ha":304,"x_min":22,"x_max":282,"o":"m 55 1271 q 62 1309 55 1291 q 83 1339 70 1326 q 113 1360 96 1352 q 151 1367 131 1367 q 221 1340 194 1367 q 248 1271 248 1313 q 241 1234 248 1251 q 220 1204 233 1217 q 190 1183 208 1191 q 151 1176 172 1176 q 113 1183 131 1176 q 83 1204 96 1191 q 62 1234 70 1217 q 55 1271 55 1251 m 109 1272 q 121 1241 109 1254 q 151 1229 133 1229 q 183 1241 171 1229 q 195 1272 195 1254 q 183 1302 195 1291 q 151 1314 171 1314 q 121 1302 133 1314 q 109 1272 109 1291 m 282 0 l 195 0 l 184 282 l 120 282 l 109 0 l 22 0 l 87 1172 l 217 1172 l 282 0 m 174 608 l 152 1128 l 130 608 l 120 347 l 184 347 l 174 608 z "},"È":{"ha":260,"x_min":-22,"x_max":239,"o":"m 87 1547 l 174 1265 l 109 1265 l -22 1547 l 87 1547 m 239 1107 l 130 1107 l 130 651 l 217 651 l 217 586 l 130 586 l 130 65 l 239 65 l 239 0 l 43 0 l 43 1172 l 239 1172 l 239 1107 z "},"É":{"ha":260,"x_min":43,"x_max":304,"o":"m 304 1547 l 174 1265 l 109 1265 l 195 1547 l 304 1547 m 239 1107 l 130 1107 l 130 651 l 217 651 l 217 586 l 130 586 l 130 65 l 239 65 l 239 0 l 43 0 l 43 1172 l 239 1172 l 239 1107 z "},"Ê":{"ha":260,"x_min":43,"x_max":239,"o":"m 191 1499 l 231 1265 l 161 1265 l 141 1426 l 120 1265 l 52 1265 l 92 1499 l 191 1499 m 239 1107 l 130 1107 l 130 651 l 217 651 l 217 586 l 130 586 l 130 65 l 239 65 l 239 0 l 43 0 l 43 1172 l 239 1172 l 239 1107 z "},"Ë":{"ha":260,"x_min":24,"x_max":258,"o":"m 258 1373 l 258 1265 l 161 1265 l 161 1373 l 258 1373 m 122 1373 l 122 1265 l 24 1265 l 24 1373 l 122 1373 m 239 1107 l 130 1107 l 130 651 l 217 651 l 217 586 l 130 586 l 130 65 l 239 65 l 239 0 l 43 0 l 43 1172 l 239 1172 l 239 1107 z "},"Ì":{"ha":195,"x_min":-65,"x_max":141,"o":"m 43 1547 l 130 1265 l 65 1265 l -65 1547 l 43 1547 m 141 1172 l 141 0 l 54 0 l 54 1172 l 141 1172 z "},"Í":{"ha":195,"x_min":54,"x_max":260,"o":"m 260 1547 l 130 1265 l 65 1265 l 152 1547 l 260 1547 m 141 1172 l 141 0 l 54 0 l 54 1172 l 141 1172 z "},"Î":{"ha":195,"x_min":8,"x_max":187,"o":"m 147 1499 l 187 1265 l 118 1265 l 98 1426 l 77 1265 l 8 1265 l 48 1499 l 147 1499 m 141 1172 l 141 0 l 54 0 l 54 1172 l 141 1172 z "},"Ï":{"ha":195,"x_min":-20,"x_max":215,"o":"m 215 1373 l 215 1265 l 118 1265 l 118 1373 l 215 1373 m 79 1373 l 79 1265 l -20 1265 l -20 1373 l 79 1373 m 141 1172 l 141 0 l 54 0 l 54 1172 l 141 1172 z "},"Ñ":{"ha":347,"x_min":43,"x_max":304,"o":"m 45 1265 q 48 1308 45 1288 q 61 1342 52 1327 q 82 1364 69 1356 q 115 1373 96 1373 q 145 1368 132 1373 q 170 1358 157 1364 q 196 1348 182 1352 q 228 1343 210 1343 q 239 1348 235 1343 q 245 1358 243 1352 q 249 1373 248 1364 l 302 1373 q 301 1344 302 1357 q 296 1319 300 1331 q 274 1281 289 1298 q 228 1265 258 1265 q 196 1270 211 1265 q 169 1280 182 1274 q 142 1290 155 1285 q 116 1295 130 1295 q 106 1290 110 1295 q 100 1280 102 1286 q 98 1265 98 1274 l 45 1265 m 304 0 l 217 0 l 109 868 l 109 0 l 43 0 l 43 1172 l 130 1172 l 239 304 l 239 1172 l 304 1172 l 304 0 z "},"Ò":{"ha":347,"x_min":11,"x_max":304,"o":"m 119 1547 l 206 1265 l 141 1265 l 11 1547 l 119 1547 m 304 109 q 302 79 304 100 q 288 35 300 58 q 249 -4 275 13 q 174 -22 222 -22 q 98 -4 125 -22 q 60 35 72 13 q 45 79 47 58 q 43 109 43 100 l 43 1063 q 44 1080 43 1069 q 48 1104 45 1090 q 60 1131 52 1117 q 82 1156 68 1145 q 119 1175 96 1168 q 174 1182 141 1182 q 229 1175 206 1182 q 265 1156 251 1168 q 288 1131 279 1145 q 299 1104 296 1117 q 303 1080 302 1090 q 304 1063 304 1069 l 304 109 m 130 109 q 131 89 130 100 q 136 68 132 78 q 149 51 140 58 q 174 43 157 43 q 199 51 190 43 q 212 68 208 58 q 216 89 216 78 q 217 109 217 100 l 217 1063 q 216 1081 217 1072 q 212 1098 216 1090 q 199 1112 208 1106 q 174 1117 190 1117 q 149 1112 157 1117 q 136 1098 140 1106 q 131 1081 132 1090 q 130 1063 130 1072 l 130 109 z "},"Ó":{"ha":347,"x_min":43,"x_max":336,"o":"m 336 1547 l 206 1265 l 141 1265 l 228 1547 l 336 1547 m 304 109 q 302 79 304 100 q 288 35 300 58 q 249 -4 275 13 q 174 -22 222 -22 q 98 -4 125 -22 q 60 35 72 13 q 45 79 47 58 q 43 109 43 100 l 43 1063 q 44 1080 43 1069 q 48 1104 45 1090 q 60 1131 52 1117 q 82 1156 68 1145 q 119 1175 96 1168 q 174 1182 141 1182 q 229 1175 206 1182 q 265 1156 251 1168 q 288 1131 279 1145 q 299 1104 296 1117 q 303 1080 302 1090 q 304 1063 304 1069 l 304 109 m 130 109 q 131 89 130 100 q 136 68 132 78 q 149 51 140 58 q 174 43 157 43 q 199 51 190 43 q 212 68 208 58 q 216 89 216 78 q 217 109 217 100 l 217 1063 q 216 1081 217 1072 q 212 1098 216 1090 q 199 1112 208 1106 q 174 1117 190 1117 q 149 1112 157 1117 q 136 1098 140 1106 q 131 1081 132 1090 q 130 1063 130 1072 l 130 109 z "},"Ô":{"ha":347,"x_min":43,"x_max":304,"o":"m 223 1499 l 263 1265 l 194 1265 l 174 1426 l 153 1265 l 84 1265 l 124 1499 l 223 1499 m 304 109 q 302 79 304 100 q 288 35 300 58 q 249 -4 275 13 q 174 -22 222 -22 q 98 -4 125 -22 q 60 35 72 13 q 45 79 47 58 q 43 109 43 100 l 43 1063 q 44 1080 43 1069 q 48 1104 45 1090 q 60 1131 52 1117 q 82 1156 68 1145 q 119 1175 96 1168 q 174 1182 141 1182 q 229 1175 206 1182 q 265 1156 251 1168 q 288 1131 279 1145 q 299 1104 296 1117 q 303 1080 302 1090 q 304 1063 304 1069 l 304 109 m 130 109 q 131 89 130 100 q 136 68 132 78 q 149 51 140 58 q 174 43 157 43 q 199 51 190 43 q 212 68 208 58 q 216 89 216 78 q 217 109 217 100 l 217 1063 q 216 1081 217 1072 q 212 1098 216 1090 q 199 1112 208 1106 q 174 1117 190 1117 q 149 1112 157 1117 q 136 1098 140 1106 q 131 1081 132 1090 q 130 1063 130 1072 l 130 109 z "},"Õ":{"ha":347,"x_min":43,"x_max":304,"o":"m 45 1265 q 48 1308 45 1288 q 61 1342 52 1327 q 82 1364 69 1356 q 115 1373 96 1373 q 145 1368 132 1373 q 170 1358 157 1364 q 196 1348 182 1352 q 228 1343 210 1343 q 239 1348 235 1343 q 245 1358 243 1352 q 249 1373 248 1364 l 302 1373 q 301 1344 302 1357 q 296 1319 300 1331 q 274 1281 289 1298 q 228 1265 258 1265 q 196 1270 211 1265 q 169 1280 182 1274 q 142 1290 155 1285 q 116 1295 130 1295 q 106 1290 110 1295 q 100 1280 102 1286 q 98 1265 98 1274 l 45 1265 m 304 109 q 302 79 304 100 q 288 35 300 58 q 249 -4 275 13 q 174 -22 222 -22 q 98 -4 125 -22 q 60 35 72 13 q 45 79 47 58 q 43 109 43 100 l 43 1063 q 44 1080 43 1069 q 48 1104 45 1090 q 60 1131 52 1117 q 82 1156 68 1145 q 119 1175 96 1168 q 174 1182 141 1182 q 229 1175 206 1182 q 265 1156 251 1168 q 288 1131 279 1145 q 299 1104 296 1117 q 303 1080 302 1090 q 304 1063 304 1069 l 304 109 m 130 109 q 131 89 130 100 q 136 68 132 78 q 149 51 140 58 q 174 43 157 43 q 199 51 190 43 q 212 68 208 58 q 216 89 216 78 q 217 109 217 100 l 217 1063 q 216 1081 217 1072 q 212 1098 216 1090 q 199 1112 208 1106 q 174 1117 190 1117 q 149 1112 157 1117 q 136 1098 140 1106 q 131 1081 132 1090 q 130 1063 130 1072 l 130 109 z "},"Ö":{"ha":347,"x_min":43,"x_max":304,"o":"m 291 1373 l 291 1265 l 194 1265 l 194 1373 l 291 1373 m 155 1373 l 155 1265 l 56 1265 l 56 1373 l 155 1373 m 304 109 q 302 79 304 100 q 288 35 300 58 q 249 -4 275 13 q 174 -22 222 -22 q 98 -4 125 -22 q 60 35 72 13 q 45 79 47 58 q 43 109 43 100 l 43 1063 q 44 1080 43 1069 q 48 1104 45 1090 q 60 1131 52 1117 q 82 1156 68 1145 q 119 1175 96 1168 q 174 1182 141 1182 q 229 1175 206 1182 q 265 1156 251 1168 q 288 1131 279 1145 q 299 1104 296 1117 q 303 1080 302 1090 q 304 1063 304 1069 l 304 109 m 130 109 q 131 89 130 100 q 136 68 132 78 q 149 51 140 58 q 174 43 157 43 q 199 51 190 43 q 212 68 208 58 q 216 89 216 78 q 217 109 217 100 l 217 1063 q 216 1081 217 1072 q 212 1098 216 1090 q 199 1112 208 1106 q 174 1117 190 1117 q 149 1112 157 1117 q 136 1098 140 1106 q 131 1081 132 1090 q 130 1063 130 1072 l 130 109 z "},"à":{"ha":304,"x_min":-11,"x_max":282,"o":"m 98 1416 l 184 1134 l 119 1134 l -11 1416 l 98 1416 m 282 0 l 195 0 l 182 225 l 121 225 l 109 0 l 22 0 l 109 1042 l 195 1042 l 282 0 m 177 296 l 152 825 l 126 296 l 177 296 z "},"á":{"ha":304,"x_min":22,"x_max":315,"o":"m 315 1416 l 184 1134 l 119 1134 l 206 1416 l 315 1416 m 282 0 l 195 0 l 182 225 l 121 225 l 109 0 l 22 0 l 109 1042 l 195 1042 l 282 0 m 177 296 l 152 825 l 126 296 l 177 296 z "},"â":{"ha":304,"x_min":22,"x_max":282,"o":"m 201 1369 l 241 1134 l 172 1134 l 152 1295 l 131 1134 l 62 1134 l 102 1369 l 201 1369 m 282 0 l 195 0 l 182 225 l 121 225 l 109 0 l 22 0 l 109 1042 l 195 1042 l 282 0 m 177 296 l 152 825 l 126 296 l 177 296 z "},"ã":{"ha":304,"x_min":22,"x_max":282,"o":"m 23 1134 q 27 1177 23 1157 q 39 1211 31 1196 q 61 1234 47 1225 q 94 1242 74 1242 q 123 1237 111 1242 q 148 1227 136 1233 q 174 1217 160 1221 q 206 1213 188 1213 q 217 1217 213 1213 q 223 1227 221 1221 q 227 1242 227 1233 l 281 1242 q 279 1213 281 1226 q 274 1188 278 1200 q 252 1151 267 1167 q 206 1134 237 1134 q 175 1139 189 1134 q 147 1149 160 1143 q 121 1159 134 1154 q 94 1164 108 1164 q 84 1159 88 1164 q 79 1149 81 1155 q 77 1134 77 1143 l 23 1134 m 282 0 l 195 0 l 182 225 l 121 225 l 109 0 l 22 0 l 109 1042 l 195 1042 l 282 0 m 177 296 l 152 825 l 126 296 l 177 296 z "},"ä":{"ha":304,"x_min":22,"x_max":282,"o":"m 269 1242 l 269 1134 l 172 1134 l 172 1242 l 269 1242 m 133 1242 l 133 1134 l 35 1134 l 35 1242 l 133 1242 m 282 0 l 195 0 l 182 225 l 121 225 l 109 0 l 22 0 l 109 1042 l 195 1042 l 282 0 m 177 296 l 152 825 l 126 296 l 177 296 z "},"å":{"ha":304,"x_min":22,"x_max":282,"o":"m 55 1229 q 62 1267 55 1249 q 83 1297 70 1284 q 113 1318 96 1310 q 151 1325 131 1325 q 221 1298 194 1325 q 248 1229 248 1271 q 241 1192 248 1209 q 220 1162 233 1175 q 190 1141 208 1149 q 151 1134 172 1134 q 113 1141 131 1134 q 83 1162 96 1149 q 62 1192 70 1175 q 55 1229 55 1209 m 109 1230 q 121 1199 109 1212 q 151 1187 133 1187 q 183 1199 171 1187 q 195 1230 195 1212 q 183 1260 195 1249 q 151 1272 171 1272 q 121 1260 133 1272 q 109 1230 109 1249 m 282 0 l 195 0 l 182 225 l 121 225 l 109 0 l 22 0 l 109 1042 l 195 1042 l 282 0 m 177 296 l 152 825 l 126 296 l 177 296 z "},"ç":{"ha":347,"x_min":43,"x_max":304,"o":"m 97 -281 l 136 -3 l 208 -3 l 208 -281 l 97 -281 m 304 608 l 217 608 l 217 944 q 205 977 217 967 q 179 987 194 987 q 162 984 170 987 q 146 975 153 981 q 135 961 139 969 q 130 944 130 954 l 130 98 q 135 80 130 88 q 146 66 139 72 q 162 57 153 60 q 179 54 170 54 q 205 64 194 54 q 217 98 217 75 l 217 477 l 304 477 l 304 98 q 292 50 304 71 q 262 15 281 29 q 220 -6 244 1 q 172 -13 197 -13 q 125 -6 148 -13 q 83 15 102 1 q 54 49 65 28 q 43 98 43 70 l 43 944 q 55 992 43 971 q 84 1027 66 1013 q 126 1047 102 1040 q 174 1055 150 1055 q 222 1048 199 1055 q 263 1027 245 1041 q 293 992 281 1013 q 304 944 304 972 l 304 608 z "},"è":{"ha":239,"x_min":-33,"x_max":217,"o":"m 76 1416 l 163 1134 l 98 1134 l -33 1416 l 76 1416 m 217 977 l 130 977 l 130 586 l 217 586 l 217 521 l 130 521 l 130 65 l 217 65 l 217 0 l 43 0 l 43 1042 l 217 1042 l 217 977 z "},"é":{"ha":239,"x_min":43,"x_max":293,"o":"m 293 1416 l 163 1134 l 98 1134 l 184 1416 l 293 1416 m 217 977 l 130 977 l 130 586 l 217 586 l 217 521 l 130 521 l 130 65 l 217 65 l 217 0 l 43 0 l 43 1042 l 217 1042 l 217 977 z "},"ê":{"ha":239,"x_min":41,"x_max":220,"o":"m 180 1369 l 220 1134 l 151 1134 l 130 1295 l 109 1134 l 41 1134 l 81 1369 l 180 1369 m 217 977 l 130 977 l 130 586 l 217 586 l 217 521 l 130 521 l 130 65 l 217 65 l 217 0 l 43 0 l 43 1042 l 217 1042 l 217 977 z "},"ë":{"ha":239,"x_min":13,"x_max":248,"o":"m 248 1242 l 248 1134 l 151 1134 l 151 1242 l 248 1242 m 111 1242 l 111 1134 l 13 1134 l 13 1242 l 111 1242 m 217 977 l 130 977 l 130 586 l 217 586 l 217 521 l 130 521 l 130 65 l 217 65 l 217 0 l 43 0 l 43 1042 l 217 1042 l 217 977 z "},"ì":{"ha":198,"x_min":-64,"x_max":144,"o":"m 45 1416 l 132 1134 l 66 1134 l -64 1416 l 45 1416 m 144 1031 l 144 0 l 54 0 l 54 1031 l 144 1031 z "},"í":{"ha":198,"x_min":54,"x_max":262,"o":"m 262 1416 l 132 1134 l 66 1134 l 153 1416 l 262 1416 m 144 1031 l 144 0 l 54 0 l 54 1031 l 144 1031 z "},"î":{"ha":198,"x_min":9,"x_max":189,"o":"m 149 1369 l 189 1134 l 119 1134 l 99 1295 l 78 1134 l 9 1134 l 50 1369 l 149 1369 m 144 1031 l 144 0 l 54 0 l 54 1031 l 144 1031 z "},"ï":{"ha":198,"x_min":-18,"x_max":216,"o":"m 216 1242 l 216 1134 l 119 1134 l 119 1242 l 216 1242 m 80 1242 l 80 1134 l -18 1134 l -18 1242 l 80 1242 m 144 1031 l 144 0 l 54 0 l 54 1031 l 144 1031 z "},"ñ":{"ha":347,"x_min":43,"x_max":304,"o":"m 45 1134 q 48 1177 45 1157 q 61 1211 52 1196 q 82 1234 69 1225 q 115 1242 96 1242 q 145 1237 132 1242 q 170 1227 157 1233 q 196 1217 182 1221 q 228 1213 210 1213 q 239 1217 235 1213 q 245 1227 243 1221 q 249 1242 248 1233 l 302 1242 q 301 1213 302 1226 q 296 1188 300 1200 q 274 1151 289 1167 q 228 1134 258 1134 q 196 1139 211 1134 q 169 1149 182 1143 q 142 1159 155 1154 q 116 1164 130 1164 q 106 1159 110 1164 q 100 1149 102 1155 q 98 1134 98 1143 l 45 1134 m 304 0 l 239 0 l 119 608 l 119 0 l 43 0 l 43 1042 l 109 1042 l 229 412 l 229 1042 l 304 1042 l 304 0 z "},"ò":{"ha":347,"x_min":17,"x_max":304,"o":"m 125 1416 l 212 1134 l 147 1134 l 17 1416 l 125 1416 m 304 98 q 293 48 304 69 q 265 14 283 28 q 225 -6 248 1 q 179 -12 203 -12 q 130 -5 154 -12 q 86 16 105 2 q 55 51 67 30 q 43 98 43 71 l 43 944 q 55 990 43 970 q 86 1023 67 1010 q 130 1044 106 1037 q 180 1051 155 1051 q 226 1045 203 1051 q 266 1025 248 1038 q 293 991 283 1012 q 304 944 304 971 l 304 98 m 217 944 q 206 977 217 967 q 180 987 195 987 q 162 984 171 987 q 146 975 153 981 q 135 961 139 969 q 130 944 130 954 l 130 98 q 135 80 130 88 q 146 66 139 72 q 162 58 153 61 q 179 55 170 55 q 205 65 194 55 q 217 98 217 75 l 217 944 z "},"ó":{"ha":347,"x_min":43,"x_max":342,"o":"m 342 1416 l 212 1134 l 147 1134 l 234 1416 l 342 1416 m 304 98 q 293 48 304 69 q 265 14 283 28 q 225 -6 248 1 q 179 -12 203 -12 q 130 -5 154 -12 q 86 16 105 2 q 55 51 67 30 q 43 98 43 71 l 43 944 q 55 990 43 970 q 86 1023 67 1010 q 130 1044 106 1037 q 180 1051 155 1051 q 226 1045 203 1051 q 266 1025 248 1038 q 293 991 283 1012 q 304 944 304 971 l 304 98 m 217 944 q 206 977 217 967 q 180 987 195 987 q 162 984 171 987 q 146 975 153 981 q 135 961 139 969 q 130 944 130 954 l 130 98 q 135 80 130 88 q 146 66 139 72 q 162 58 153 61 q 179 55 170 55 q 205 65 194 55 q 217 98 217 75 l 217 944 z "},"ô":{"ha":347,"x_min":43,"x_max":304,"o":"m 229 1369 l 269 1134 l 200 1134 l 180 1295 l 159 1134 l 90 1134 l 130 1369 l 229 1369 m 304 98 q 293 48 304 69 q 265 14 283 28 q 225 -6 248 1 q 179 -12 203 -12 q 130 -5 154 -12 q 86 16 105 2 q 55 51 67 30 q 43 98 43 71 l 43 944 q 55 990 43 970 q 86 1023 67 1010 q 130 1044 106 1037 q 180 1051 155 1051 q 226 1045 203 1051 q 266 1025 248 1038 q 293 991 283 1012 q 304 944 304 971 l 304 98 m 217 944 q 206 977 217 967 q 180 987 195 987 q 162 984 171 987 q 146 975 153 981 q 135 961 139 969 q 130 944 130 954 l 130 98 q 135 80 130 88 q 146 66 139 72 q 162 58 153 61 q 179 55 170 55 q 205 65 194 55 q 217 98 217 75 l 217 944 z "},"õ":{"ha":347,"x_min":43,"x_max":309,"o":"m 51 1134 q 55 1177 51 1157 q 67 1211 58 1196 q 89 1234 75 1225 q 121 1242 102 1242 q 151 1237 138 1242 q 176 1227 163 1233 q 202 1217 188 1221 q 234 1213 216 1213 q 245 1217 241 1213 q 251 1227 249 1221 q 255 1242 254 1233 l 309 1242 q 307 1213 309 1226 q 302 1188 306 1200 q 280 1151 295 1167 q 234 1134 264 1134 q 202 1139 217 1134 q 175 1149 188 1143 q 149 1159 161 1154 q 122 1164 136 1164 q 112 1159 116 1164 q 106 1149 109 1155 q 104 1134 104 1143 l 51 1134 m 304 98 q 293 48 304 69 q 265 14 283 28 q 225 -6 248 1 q 179 -12 203 -12 q 130 -5 154 -12 q 86 16 105 2 q 55 51 67 30 q 43 98 43 71 l 43 944 q 55 990 43 970 q 86 1023 67 1010 q 130 1044 106 1037 q 180 1051 155 1051 q 226 1045 203 1051 q 266 1025 248 1038 q 293 991 283 1012 q 304 944 304 971 l 304 98 m 217 944 q 206 977 217 967 q 180 987 195 987 q 162 984 171 987 q 146 975 153 981 q 135 961 139 969 q 130 944 130 954 l 130 98 q 135 80 130 88 q 146 66 139 72 q 162 58 153 61 q 179 55 170 55 q 205 65 194 55 q 217 98 217 75 l 217 944 z "},"ö":{"ha":347,"x_min":43,"x_max":304,"o":"m 297 1242 l 297 1134 l 200 1134 l 200 1242 l 297 1242 m 161 1242 l 161 1134 l 62 1134 l 62 1242 l 161 1242 m 304 98 q 293 48 304 69 q 265 14 283 28 q 225 -6 248 1 q 179 -12 203 -12 q 130 -5 154 -12 q 86 16 105 2 q 55 51 67 30 q 43 98 43 71 l 43 944 q 55 990 43 970 q 86 1023 67 1010 q 130 1044 106 1037 q 180 1051 155 1051 q 226 1045 203 1051 q 266 1025 248 1038 q 293 991 283 1012 q 304 944 304 971 l 304 98 m 217 944 q 206 977 217 967 q 180 987 195 987 q 162 984 171 987 q 146 975 153 981 q 135 961 139 969 q 130 944 130 954 l 130 98 q 135 80 130 88 q 146 66 139 72 q 162 58 153 61 q 179 55 170 55 q 205 65 194 55 q 217 98 217 75 l 217 944 z "},"ù":{"ha":326,"x_min":0,"x_max":282,"o":"m 109 1416 l 195 1134 l 130 1134 l 0 1416 l 109 1416 m 195 1042 l 282 1042 l 282 98 q 272 48 282 69 q 245 15 262 28 q 207 -5 228 1 q 163 -11 185 -11 q 119 -5 140 -11 q 81 15 98 1 q 54 48 64 28 q 43 98 43 69 l 43 1042 l 130 1042 l 130 98 q 140 64 130 73 q 163 54 151 54 q 185 64 175 54 q 195 98 195 73 l 195 1042 z "},"ú":{"ha":326,"x_min":43,"x_max":326,"o":"m 326 1416 l 195 1134 l 130 1134 l 217 1416 l 326 1416 m 195 1042 l 282 1042 l 282 98 q 272 48 282 69 q 245 15 262 28 q 207 -5 228 1 q 163 -11 185 -11 q 119 -5 140 -11 q 81 15 98 1 q 54 48 64 28 q 43 98 43 69 l 43 1042 l 130 1042 l 130 98 q 140 64 130 73 q 163 54 151 54 q 185 64 175 54 q 195 98 195 73 l 195 1042 z "},"û":{"ha":326,"x_min":43,"x_max":282,"o":"m 212 1369 l 252 1134 l 183 1134 l 163 1295 l 142 1134 l 73 1134 l 113 1369 l 212 1369 m 195 1042 l 282 1042 l 282 98 q 272 48 282 69 q 245 15 262 28 q 207 -5 228 1 q 163 -11 185 -11 q 119 -5 140 -11 q 81 15 98 1 q 54 48 64 28 q 43 98 43 69 l 43 1042 l 130 1042 l 130 98 q 140 64 130 73 q 163 54 151 54 q 185 64 175 54 q 195 98 195 73 l 195 1042 z "},"ü":{"ha":326,"x_min":43,"x_max":282,"o":"m 280 1242 l 280 1134 l 183 1134 l 183 1242 l 280 1242 m 144 1242 l 144 1134 l 45 1134 l 45 1242 l 144 1242 m 195 1042 l 282 1042 l 282 98 q 272 48 282 69 q 245 15 262 28 q 207 -5 228 1 q 163 -11 185 -11 q 119 -5 140 -11 q 81 15 98 1 q 54 48 64 28 q 43 98 43 69 l 43 1042 l 130 1042 l 130 98 q 140 64 130 73 q 163 54 151 54 q 185 64 175 54 q 195 98 195 73 l 195 1042 z "},"ý":{"ha":304,"x_min":22,"x_max":315,"o":"m 315 1416 l 184 1134 l 119 1134 l 206 1416 l 315 1416 m 174 781 l 195 1042 l 282 1042 l 195 347 l 195 0 l 109 0 l 109 347 l 22 1042 l 109 1042 l 130 781 l 152 499 l 174 781 z "},"ÿ":{"ha":304,"x_min":22,"x_max":282,"o":"m 269 1242 l 269 1134 l 172 1134 l 172 1242 l 269 1242 m 133 1242 l 133 1134 l 35 1134 l 35 1242 l 133 1242 m 174 781 l 195 1042 l 282 1042 l 195 347 l 195 0 l 109 0 l 109 347 l 22 1042 l 109 1042 l 130 781 l 152 499 l 174 781 z "},"Ā":{"ha":304,"x_min":22,"x_max":282,"o":"m 262 1265 l 41 1265 l 41 1336 l 262 1336 l 262 1265 m 282 0 l 195 0 l 184 282 l 120 282 l 109 0 l 22 0 l 87 1172 l 217 1172 l 282 0 m 174 608 l 152 1128 l 130 608 l 120 347 l 184 347 l 174 608 z "},"ā":{"ha":304,"x_min":22,"x_max":282,"o":"m 262 1134 l 41 1134 l 41 1205 l 262 1205 l 262 1134 m 282 0 l 195 0 l 182 225 l 121 225 l 109 0 l 22 0 l 109 1042 l 195 1042 l 282 0 m 177 296 l 152 825 l 126 296 l 177 296 z "},"Ă":{"ha":304,"x_min":22,"x_max":282,"o":"m 153 1265 q 53 1300 83 1265 q 22 1417 22 1336 l 90 1417 q 95 1378 90 1392 q 108 1355 100 1363 q 127 1345 116 1348 q 151 1343 138 1343 q 177 1345 165 1343 q 197 1355 189 1348 q 209 1378 205 1363 q 214 1417 214 1392 l 282 1417 q 252 1300 282 1336 q 153 1265 221 1265 m 282 0 l 195 0 l 184 282 l 120 282 l 109 0 l 22 0 l 87 1172 l 217 1172 l 282 0 m 174 608 l 152 1128 l 130 608 l 120 347 l 184 347 l 174 608 z "},"ă":{"ha":304,"x_min":22,"x_max":282,"o":"m 153 1134 q 53 1170 83 1134 q 22 1286 22 1205 l 90 1286 q 95 1247 90 1261 q 108 1224 100 1232 q 127 1214 116 1217 q 151 1212 138 1212 q 177 1214 165 1212 q 197 1224 189 1217 q 209 1247 205 1232 q 214 1286 214 1261 l 282 1286 q 252 1170 282 1205 q 153 1134 221 1134 m 282 0 l 195 0 l 182 225 l 121 225 l 109 0 l 22 0 l 109 1042 l 195 1042 l 282 0 m 177 296 l 152 825 l 126 296 l 177 296 z "},"\u0002":{"ha":0,"x_min":0,"x_max":0,"o":""},"\t":{"ha":0,"x_min":0,"x_max":0,"o":""},"\n":{"ha":0,"x_min":0,"x_max":0,"o":""},"\r":{"ha":0,"x_min":0,"x_max":0,"o":""}," ":{"ha":161,"x_min":0,"x_max":0,"o":""},"!":{"ha":176,"x_min":22,"x_max":152,"o":"m 152 1172 l 109 174 l 65 174 l 22 1172 l 152 1172 m 130 109 l 130 0 l 43 0 l 43 109 l 130 109 z "},"\"":{"ha":304,"x_min":43,"x_max":260,"o":"m 260 1172 l 239 933 l 195 933 l 174 1172 l 260 1172 m 130 1172 l 109 933 l 65 933 l 43 1172 l 130 1172 z "},"#":{"ha":347,"x_min":0,"x_max":347,"o":"m 326 412 l 283 412 l 260 0 l 174 0 l 197 412 l 132 412 l 109 0 l 22 0 l 45 412 l 0 412 l 0 477 l 48 477 l 59 673 l 22 673 l 22 738 l 63 738 l 87 1172 l 174 1172 l 150 738 l 215 738 l 239 1172 l 326 1172 l 302 738 l 347 738 l 347 673 l 298 673 l 287 477 l 326 477 l 326 412 m 135 477 l 200 477 l 211 673 l 146 673 l 135 477 z "},"$":{"ha":313,"x_min":35,"x_max":277,"o":"m 124 -9 q 89 5 106 -4 q 60 27 73 14 q 42 59 49 41 q 35 102 35 78 l 35 500 l 127 500 l 127 102 q 135 80 127 88 q 157 73 144 73 q 177 80 169 73 q 184 102 184 88 l 184 286 q 178 409 184 357 q 161 499 172 460 q 137 566 151 538 q 110 620 124 595 q 82 670 96 645 q 59 728 69 696 q 42 802 48 760 q 35 902 35 844 l 35 1102 q 60 1168 35 1143 q 124 1204 85 1193 l 124 1357 l 195 1357 l 195 1202 q 255 1166 232 1191 q 271 1138 265 1154 q 277 1104 277 1122 l 277 751 l 184 751 l 184 1103 q 177 1122 184 1114 q 157 1129 169 1129 q 136 1121 144 1129 q 127 1102 127 1113 l 127 933 q 133 832 127 876 q 150 756 140 789 q 174 696 161 722 q 202 645 188 669 q 229 594 216 620 q 253 537 243 569 q 270 466 264 506 q 277 373 277 427 l 277 104 q 256 29 277 56 q 195 -9 236 2 l 195 -163 l 124 -163 l 124 -9 z "},"%":{"ha":735,"x_min":33,"x_max":703,"o":"m 703 245 q 693 206 703 224 q 667 174 684 188 q 629 152 651 160 q 584 144 608 144 q 537 152 559 144 q 498 174 515 160 q 473 208 482 189 q 463 249 463 227 l 463 616 q 473 657 463 638 q 498 690 482 676 q 537 713 515 705 q 584 721 559 721 q 629 713 608 721 q 667 692 651 705 q 693 660 684 678 q 703 618 703 641 l 703 245 m 609 633 q 602 650 609 644 q 584 656 594 656 q 565 650 573 656 q 556 633 556 644 l 556 232 q 563 218 556 227 q 584 210 570 210 q 602 217 594 210 q 609 232 609 223 l 609 633 m 273 572 q 263 533 273 551 q 237 500 253 514 q 199 478 220 486 q 153 470 177 470 q 107 478 129 470 q 68 500 85 486 q 42 534 52 515 q 33 576 33 553 l 33 943 q 42 983 33 964 q 68 1017 52 1002 q 107 1039 85 1031 q 153 1048 129 1048 q 199 1040 177 1048 q 237 1019 220 1032 q 263 986 253 1005 q 273 945 273 967 l 273 572 m 179 960 q 172 977 179 970 q 153 983 164 983 q 135 977 143 983 q 126 960 126 970 l 126 559 q 133 545 126 553 q 153 537 140 537 q 172 543 164 537 q 179 559 179 549 l 179 960 m 475 1194 l 347 0 l 256 0 l 385 1194 l 475 1194 z "},"&":{"ha":333,"x_min":35,"x_max":341,"o":"m 281 730 l 190 730 l 190 1111 q 181 1128 190 1120 q 157 1135 172 1135 q 135 1128 144 1135 q 126 1111 126 1120 l 126 720 q 131 686 126 698 q 143 668 135 673 q 163 662 151 663 q 191 661 176 661 l 191 581 q 163 581 176 581 q 143 577 151 581 q 131 565 135 573 q 126 541 126 556 l 126 86 q 135 68 126 76 q 157 60 144 60 q 181 68 172 60 q 190 86 190 76 l 190 508 l 341 508 l 340 433 l 281 431 l 281 84 q 272 46 281 64 q 245 15 262 28 q 205 -6 228 1 q 157 -14 182 -14 q 110 -6 132 -14 q 72 15 88 1 q 45 47 55 29 q 35 86 35 66 l 35 543 q 46 587 35 570 q 70 612 56 604 q 106 628 86 623 q 70 644 85 632 q 46 672 56 654 q 35 720 35 690 l 35 1111 q 45 1149 35 1131 q 72 1181 55 1168 q 110 1202 88 1194 q 157 1210 132 1210 q 205 1202 182 1210 q 245 1182 228 1195 q 272 1150 262 1168 q 281 1111 281 1132 l 281 730 z "},"'":{"ha":185,"x_min":39,"x_max":146,"o":"m 146 1194 l 118 951 l 60 951 l 39 1194 l 146 1194 z "},"(":{"ha":239,"x_min":22,"x_max":217,"o":"m 22 608 q 23 732 22 667 q 29 860 24 798 q 46 979 35 923 q 79 1079 58 1036 q 135 1147 101 1122 q 217 1172 168 1172 l 217 1107 q 171 1086 190 1107 q 141 1030 153 1066 q 122 947 129 995 q 112 843 115 899 q 109 727 109 787 q 109 608 109 667 q 109 485 109 548 q 112 361 109 421 q 122 247 115 300 q 141 153 129 193 q 171 89 153 113 q 217 65 190 65 l 217 0 q 135 28 168 0 q 79 104 101 57 q 46 214 58 152 q 29 344 35 277 q 23 480 24 412 q 22 608 22 548 z "},")":{"ha":239,"x_min":21,"x_max":217,"o":"m 217 608 q 216 732 217 667 q 210 860 215 798 q 193 979 204 923 q 159 1079 181 1036 q 104 1147 138 1122 q 22 1172 71 1172 l 22 1107 q 68 1086 49 1107 q 98 1030 86 1066 q 117 947 110 995 q 126 843 123 899 q 130 727 130 787 q 130 608 130 667 q 130 485 130 548 q 126 361 130 421 q 117 247 123 300 q 98 153 110 193 q 68 89 86 113 q 22 65 49 65 l 22 0 q 104 28 71 0 q 159 104 138 57 q 193 214 181 152 q 210 344 204 277 q 216 480 215 412 q 217 608 217 548 z "},"*":{"ha":412,"x_min":22,"x_max":391,"o":"m 277 787 l 207 899 l 140 787 l 83 821 l 152 933 l 22 933 l 22 998 l 153 998 l 83 1112 l 140 1145 l 207 1031 l 277 1145 l 334 1112 l 260 998 l 391 998 l 391 933 l 260 933 l 334 821 l 277 787 z "},"+":{"ha":434,"x_min":22,"x_max":412,"o":"m 22 608 l 174 608 l 174 781 l 260 781 l 260 608 l 412 608 l 412 521 l 260 521 l 260 347 l 174 347 l 174 521 l 22 521 l 22 608 z "},",":{"ha":130,"x_min":22,"x_max":109,"o":"m 109 130 l 87 -109 l 22 -109 l 22 130 l 109 130 z "},"-":{"ha":369,"x_min":22,"x_max":347,"o":"m 347 477 l 22 477 l 22 564 l 347 564 l 347 477 z "},".":{"ha":152,"x_min":22,"x_max":130,"o":"m 130 109 l 130 0 l 22 0 l 22 109 l 130 109 z "},"/":{"ha":239,"x_min":22,"x_max":217,"o":"m 217 1172 l 109 0 l 22 0 l 130 1172 l 217 1172 z "},":":{"ha":152,"x_min":22,"x_max":130,"o":"m 130 760 l 130 651 l 22 651 l 22 760 l 130 760 m 130 304 l 130 195 l 22 195 l 22 304 l 130 304 z "},";":{"ha":152,"x_min":22,"x_max":130,"o":"m 130 760 l 130 651 l 22 651 l 22 760 l 130 760 m 130 326 l 87 87 l 22 87 l 22 326 l 130 326 z "},"<":{"ha":252,"x_min":3,"x_max":195,"o":"m 3 594 l 195 0 l 195 265 l 96 594 l 195 945 l 195 1194 l 3 594 z "},"=":{"ha":391,"x_min":22,"x_max":369,"o":"m 369 347 l 22 347 l 22 434 l 369 434 l 369 347 m 369 499 l 22 499 l 22 586 l 369 586 l 369 499 z "},">":{"ha":252,"x_min":21,"x_max":213,"o":"m 213 594 l 21 0 l 21 265 l 121 594 l 21 945 l 21 1194 l 213 594 z "},"?":{"ha":294,"x_min":22,"x_max":260,"o":"m 174 174 l 87 174 l 87 369 q 93 490 87 441 q 109 576 100 539 q 130 643 119 612 q 151 710 142 674 q 167 793 161 746 q 174 911 174 841 l 174 1063 q 163 1108 174 1093 q 140 1122 153 1122 q 119 1108 129 1122 q 109 1063 109 1093 l 109 760 l 22 760 l 22 1063 q 32 1120 22 1096 q 59 1161 42 1145 q 97 1185 76 1177 q 141 1194 119 1194 q 185 1185 163 1194 q 223 1161 206 1177 q 250 1120 240 1145 q 260 1063 260 1096 l 260 911 q 257 814 260 854 q 247 742 253 773 q 233 687 241 711 q 217 637 225 662 q 201 584 209 612 q 187 517 193 556 q 177 427 181 479 q 174 304 174 376 l 174 174 m 174 87 l 174 0 l 87 0 l 87 87 l 174 87 z "},"@":{"ha":629,"x_min":43,"x_max":586,"o":"m 434 195 q 444 146 434 163 q 467 130 454 130 q 489 146 479 130 q 499 195 499 163 l 499 933 q 483 1011 499 978 q 441 1067 467 1045 q 382 1101 416 1090 q 315 1112 349 1112 q 247 1101 280 1112 q 188 1067 214 1090 q 146 1011 162 1045 q 130 933 130 978 l 130 195 q 147 93 130 134 q 192 24 163 51 q 258 -16 220 -2 q 336 -36 295 -30 q 419 -43 377 -42 q 499 -43 461 -43 l 477 -109 q 377 -107 429 -109 q 278 -97 326 -106 q 187 -71 230 -89 q 113 -19 144 -52 q 62 67 81 15 q 43 195 43 119 l 43 933 q 67 1047 43 998 q 128 1128 90 1096 q 215 1177 166 1161 q 315 1194 264 1194 q 414 1177 366 1194 q 501 1128 463 1161 q 563 1047 539 1096 q 586 933 586 998 l 586 195 q 573 123 586 152 q 540 77 560 94 q 496 57 520 61 q 451 60 473 53 q 413 85 429 68 q 391 130 396 103 q 369 85 385 103 q 330 60 352 68 q 285 57 309 53 q 241 77 261 61 q 208 123 221 94 q 195 195 195 152 l 195 933 q 213 997 195 971 q 257 1037 231 1023 q 315 1052 283 1050 q 372 1040 346 1053 q 416 1001 399 1027 q 434 933 434 974 l 434 195 m 347 933 q 337 970 347 958 q 315 982 327 982 q 292 970 302 982 q 282 933 282 958 l 282 195 q 292 146 282 163 q 315 130 302 130 q 337 146 327 130 q 347 195 347 163 l 347 933 z "},"A":{"ha":304,"x_min":22,"x_max":282,"o":"m 282 0 l 195 0 l 184 282 l 120 282 l 109 0 l 22 0 l 87 1172 l 217 1172 l 282 0 m 174 608 l 152 1128 l 130 608 l 120 347 l 184 347 l 174 608 z "},"B":{"ha":347,"x_min":43,"x_max":304,"o":"m 304 109 q 289 46 304 68 q 250 14 274 24 q 194 2 225 3 q 130 0 163 0 l 43 0 l 43 1172 l 130 1172 q 203 1170 171 1172 q 258 1158 235 1168 q 292 1126 280 1148 q 304 1063 304 1104 l 304 694 q 288 644 304 662 q 239 618 271 627 q 288 593 271 610 q 304 543 304 575 l 304 109 m 130 651 l 195 651 q 208 655 203 651 q 214 665 212 659 q 217 679 216 671 q 217 694 217 686 l 217 1063 q 213 1088 217 1080 q 198 1101 208 1097 q 171 1106 188 1105 q 130 1107 155 1107 l 130 651 m 217 543 q 217 558 217 551 q 214 572 216 566 q 208 582 212 578 q 195 586 203 586 l 130 586 l 130 65 q 171 66 155 65 q 198 71 188 66 q 213 83 208 75 q 217 109 217 92 l 217 543 z "},"C":{"ha":347,"x_min":43,"x_max":304,"o":"m 304 694 l 217 694 l 217 1063 q 213 1090 217 1080 q 203 1106 210 1101 q 190 1115 197 1112 q 174 1117 182 1117 q 158 1115 165 1117 q 144 1106 150 1112 q 134 1090 138 1101 q 130 1063 130 1080 l 130 109 q 131 89 130 100 q 136 68 132 78 q 149 51 140 58 q 174 43 157 43 q 199 51 190 43 q 212 68 208 58 q 216 89 216 78 q 217 109 217 100 l 217 564 l 304 564 l 304 109 q 302 79 304 100 q 288 35 300 58 q 249 -4 275 13 q 174 -22 222 -22 q 98 -4 125 -22 q 60 35 72 13 q 45 79 47 58 q 43 109 43 100 l 43 1063 q 55 1117 43 1095 q 85 1154 66 1140 q 127 1175 104 1168 q 174 1182 150 1182 q 222 1175 199 1182 q 264 1152 245 1167 q 293 1115 282 1137 q 304 1063 304 1093 l 304 694 z "},"D":{"ha":347,"x_min":43,"x_max":304,"o":"m 217 1063 q 213 1088 217 1080 q 198 1101 208 1097 q 171 1106 188 1105 q 130 1107 155 1107 l 130 65 q 171 66 155 65 q 198 71 188 66 q 213 83 208 75 q 217 109 217 92 l 217 1063 m 304 109 q 289 46 304 68 q 250 14 274 24 q 194 2 225 3 q 130 0 163 0 l 43 0 l 43 1172 l 130 1172 q 194 1170 163 1172 q 250 1158 225 1168 q 289 1126 274 1148 q 304 1063 304 1104 l 304 109 z "},"E":{"ha":260,"x_min":43,"x_max":239,"o":"m 239 1107 l 130 1107 l 130 651 l 217 651 l 217 586 l 130 586 l 130 65 l 239 65 l 239 0 l 43 0 l 43 1172 l 239 1172 l 239 1107 z "},"F":{"ha":260,"x_min":43,"x_max":239,"o":"m 239 1107 l 130 1107 l 130 673 l 217 673 l 217 608 l 130 608 l 130 0 l 43 0 l 43 1172 l 239 1172 l 239 1107 z "},"G":{"ha":347,"x_min":43,"x_max":304,"o":"m 304 694 l 217 694 l 217 1063 q 216 1081 217 1072 q 212 1098 216 1090 q 199 1112 208 1106 q 174 1117 190 1117 q 149 1112 157 1117 q 136 1098 140 1106 q 131 1081 132 1090 q 130 1063 130 1072 l 130 109 q 131 89 130 100 q 136 68 132 78 q 149 51 140 58 q 174 43 157 43 q 199 51 190 43 q 212 68 208 58 q 216 89 216 78 q 217 109 217 100 l 217 543 l 195 543 l 195 608 l 304 608 l 304 109 q 302 79 304 100 q 288 35 300 58 q 249 -4 275 13 q 174 -22 222 -22 q 98 -4 125 -22 q 60 35 72 13 q 45 79 47 58 q 43 109 43 100 l 43 1063 q 44 1080 43 1069 q 48 1104 45 1090 q 60 1131 52 1117 q 82 1156 68 1145 q 119 1175 96 1168 q 174 1182 141 1182 q 229 1175 206 1182 q 265 1156 251 1168 q 288 1131 279 1145 q 299 1104 296 1117 q 303 1080 302 1090 q 304 1063 304 1069 l 304 694 z "},"H":{"ha":347,"x_min":43,"x_max":304,"o":"m 130 629 l 217 629 l 217 1172 l 304 1172 l 304 0 l 217 0 l 217 564 l 130 564 l 130 0 l 43 0 l 43 1172 l 130 1172 l 130 629 z "},"I":{"ha":195,"x_min":54,"x_max":141,"o":"m 141 1172 l 141 0 l 54 0 l 54 1172 l 141 1172 z "},"J":{"ha":347,"x_min":43,"x_max":304,"o":"m 304 109 q 288 43 302 72 q 272 19 281 31 q 249 -2 262 7 q 217 -16 235 -11 q 174 -22 198 -22 q 131 -16 149 -22 q 98 -2 112 -11 q 75 19 85 7 q 60 43 66 31 q 43 109 45 72 l 43 564 l 130 564 l 130 109 q 131 89 130 100 q 136 68 132 78 q 149 51 140 58 q 174 43 157 43 q 199 51 190 43 q 212 68 208 58 q 216 89 216 78 q 217 109 217 100 l 217 1172 l 304 1172 l 304 109 z "},"K":{"ha":326,"x_min":43,"x_max":304,"o":"m 304 0 l 217 0 l 130 586 l 130 0 l 43 0 l 43 1172 l 130 1172 l 130 629 l 217 1172 l 304 1172 l 217 673 l 208 608 l 217 543 l 304 0 z "},"L":{"ha":260,"x_min":43,"x_max":217,"o":"m 130 1172 l 130 65 l 217 65 l 217 0 l 43 0 l 43 1172 l 130 1172 z "},"M":{"ha":434,"x_min":43,"x_max":391,"o":"m 282 1172 l 369 1172 l 391 0 l 304 0 l 304 803 l 239 65 l 195 65 l 130 803 l 130 0 l 43 0 l 65 1172 l 152 1172 l 217 369 l 282 1172 z "},"N":{"ha":347,"x_min":43,"x_max":304,"o":"m 304 0 l 217 0 l 109 868 l 109 0 l 43 0 l 43 1172 l 130 1172 l 239 304 l 239 1172 l 304 1172 l 304 0 z "},"O":{"ha":347,"x_min":43,"x_max":304,"o":"m 304 109 q 302 79 304 100 q 288 35 300 58 q 249 -4 275 13 q 174 -22 222 -22 q 98 -4 125 -22 q 60 35 72 13 q 45 79 47 58 q 43 109 43 100 l 43 1063 q 44 1080 43 1069 q 48 1104 45 1090 q 60 1131 52 1117 q 82 1156 68 1145 q 119 1175 96 1168 q 174 1182 141 1182 q 229 1175 206 1182 q 265 1156 251 1168 q 288 1131 279 1145 q 299 1104 296 1117 q 303 1080 302 1090 q 304 1063 304 1069 l 304 109 m 130 109 q 131 89 130 100 q 136 68 132 78 q 149 51 140 58 q 174 43 157 43 q 199 51 190 43 q 212 68 208 58 q 216 89 216 78 q 217 109 217 100 l 217 1063 q 216 1081 217 1072 q 212 1098 216 1090 q 199 1112 208 1106 q 174 1117 190 1117 q 149 1112 157 1117 q 136 1098 140 1106 q 131 1081 132 1090 q 130 1063 130 1072 l 130 109 z "},"P":{"ha":326,"x_min":43,"x_max":304,"o":"m 304 673 q 289 610 304 632 q 250 578 274 588 q 194 566 225 568 q 130 564 163 564 l 130 0 l 43 0 l 43 1172 l 130 1172 q 231 1161 195 1172 q 282 1134 266 1150 q 301 1099 298 1118 q 304 1063 304 1080 l 304 673 m 217 1063 q 213 1088 217 1080 q 198 1101 208 1097 q 171 1106 188 1105 q 130 1107 155 1107 l 130 629 q 162 630 146 629 q 190 635 178 631 q 210 648 202 639 q 217 673 217 656 l 217 1063 z "},"Q":{"ha":347,"x_min":43,"x_max":304,"o":"m 130 1063 q 131 1081 130 1072 q 136 1098 132 1090 q 149 1112 140 1106 q 174 1117 157 1117 q 199 1112 190 1117 q 212 1098 208 1106 q 216 1081 216 1090 q 217 1063 217 1072 l 217 109 q 216 89 217 100 q 212 68 216 78 q 199 51 208 58 q 174 43 190 43 q 149 51 157 43 q 136 68 140 58 q 131 89 132 78 q 130 109 130 100 l 130 1063 m 304 1063 q 303 1080 304 1069 q 299 1104 302 1090 q 288 1131 296 1117 q 265 1156 279 1145 q 229 1175 251 1168 q 174 1182 206 1182 q 119 1175 141 1182 q 82 1156 96 1168 q 60 1131 68 1145 q 48 1104 52 1117 q 44 1080 45 1090 q 43 1063 43 1069 l 43 109 q 45 79 43 100 q 60 35 47 58 q 98 -4 72 13 q 132 -18 113 -14 l 152 -174 l 239 -174 l 219 -17 q 249 -4 237 -12 q 288 35 275 13 q 302 79 300 58 q 304 109 304 100 l 304 1063 z "},"R":{"ha":347,"x_min":43,"x_max":304,"o":"m 304 694 q 288 627 304 646 q 239 608 271 608 q 267 600 255 608 q 288 581 279 593 q 300 553 296 568 q 304 521 304 537 l 304 0 l 217 0 l 217 543 q 210 568 217 559 q 190 581 202 576 q 162 585 178 585 q 130 586 146 586 l 130 0 l 43 0 l 43 1172 l 130 1172 q 194 1170 163 1172 q 250 1158 225 1168 q 289 1126 274 1148 q 304 1063 304 1104 l 304 694 m 217 1063 q 213 1088 217 1080 q 198 1101 208 1097 q 171 1106 188 1105 q 130 1107 155 1107 l 130 629 q 162 630 146 629 q 190 635 178 631 q 210 648 202 639 q 217 673 217 656 l 217 1063 z "},"S":{"ha":304,"x_min":22,"x_max":282,"o":"m 195 286 q 188 409 195 357 q 168 499 180 460 q 140 566 156 537 q 109 619 125 594 q 77 669 92 644 q 49 726 61 694 q 29 800 37 758 q 22 900 22 842 l 22 1063 q 27 1100 22 1080 q 46 1139 32 1121 q 86 1170 60 1157 q 152 1182 111 1182 q 218 1170 193 1182 q 258 1139 243 1157 q 277 1100 272 1121 q 282 1063 282 1080 l 282 760 l 195 760 l 195 1063 q 192 1090 195 1080 q 182 1106 188 1101 q 168 1115 176 1112 q 152 1117 160 1117 q 136 1115 144 1117 q 122 1106 128 1112 q 112 1090 116 1101 q 109 1063 109 1080 l 109 931 q 121 803 109 854 q 154 713 134 751 q 195 644 173 675 q 237 576 218 612 q 269 492 256 540 q 282 373 282 444 l 282 109 q 280 79 282 100 q 266 35 278 58 q 227 -4 254 13 q 152 -22 201 -22 q 77 -4 103 -22 q 38 35 50 13 q 24 79 26 58 q 22 109 22 100 l 22 499 l 109 499 l 109 109 q 109 89 109 100 q 114 68 110 78 q 127 51 118 58 q 152 43 136 43 q 177 51 168 43 q 190 68 186 58 q 195 89 194 78 q 195 109 195 100 l 195 286 z "},"T":{"ha":304,"x_min":22,"x_max":282,"o":"m 282 1172 l 282 1107 l 195 1107 l 195 0 l 109 0 l 109 1107 l 22 1107 l 22 1172 l 282 1172 z "},"U":{"ha":347,"x_min":43,"x_max":304,"o":"m 130 109 q 131 89 130 100 q 136 68 132 78 q 149 51 140 58 q 174 43 157 43 q 199 51 190 43 q 212 68 208 58 q 216 89 216 78 q 217 109 217 100 l 217 1172 l 304 1172 l 304 109 q 302 79 304 100 q 288 35 300 58 q 249 -4 275 13 q 174 -22 222 -22 q 98 -4 125 -22 q 60 35 72 13 q 45 79 47 58 q 43 109 43 100 l 43 1172 l 130 1172 l 130 109 z "},"V":{"ha":304,"x_min":22,"x_max":282,"o":"m 131 803 l 152 369 l 173 803 l 195 1172 l 282 1172 l 195 0 l 109 0 l 22 1172 l 109 1172 l 131 803 z "},"W":{"ha":477,"x_min":22,"x_max":456,"o":"m 239 998 l 217 673 l 174 0 l 87 0 l 22 1172 l 109 1172 l 130 347 l 195 1172 l 282 1172 l 347 347 l 369 1172 l 456 1172 l 391 0 l 304 0 l 260 673 l 239 998 z "},"X":{"ha":282,"x_min":22,"x_max":260,"o":"m 130 868 l 142 694 l 152 868 l 174 1172 l 260 1172 l 195 586 l 260 0 l 174 0 l 152 304 l 141 477 l 130 304 l 109 0 l 22 0 l 87 586 l 22 1172 l 109 1172 l 130 868 z "},"Y":{"ha":304,"x_min":22,"x_max":282,"o":"m 130 868 l 152 564 l 174 868 l 195 1172 l 282 1172 l 195 412 l 195 0 l 109 0 l 109 412 l 22 1172 l 109 1172 l 130 868 z "},"Z":{"ha":239,"x_min":22,"x_max":217,"o":"m 217 1172 l 109 65 l 217 65 l 217 0 l 22 0 l 130 1107 l 22 1107 l 22 1172 l 217 1172 z "},"[":{"ha":294,"x_min":3,"x_max":178,"o":"m 4 1259 l 4 -65 l 178 -65 l 178 0 l 91 0 l 91 1194 l 178 1194 l 178 1259 l 4 1259 z "},"\\":{"ha":220,"x_min":1,"x_max":220,"o":"m 92 1194 l 220 0 l 129 0 l 1 1194 l 92 1194 z "},"]":{"ha":266,"x_min":22,"x_max":195,"o":"m 195 1259 l 195 -65 l 22 -65 l 22 0 l 109 0 l 109 1194 l 22 1194 l 22 1259 l 195 1259 z "},"^":{"ha":217,"x_min":22,"x_max":195,"o":"m 152 760 l 195 521 l 130 521 l 109 694 l 87 521 l 22 521 l 65 760 l 152 760 z "},"_":{"ha":369,"x_min":0,"x_max":369,"o":"m 369 -65 l 0 -65 l 0 0 l 369 0 l 369 -65 z "},"`":{"ha":221,"x_min":0,"x_max":195,"o":"m 109 347 l 195 65 l 130 65 l 0 347 l 109 347 z "},"a":{"ha":304,"x_min":22,"x_max":282,"o":"m 282 0 l 195 0 l 182 225 l 121 225 l 109 0 l 22 0 l 109 1042 l 195 1042 l 282 0 m 177 296 l 152 825 l 126 296 l 177 296 z "},"b":{"ha":347,"x_min":43,"x_max":304,"o":"m 130 564 l 195 564 q 208 568 203 564 q 214 578 212 572 q 217 592 216 584 q 217 608 217 600 l 217 933 q 213 958 217 949 q 198 971 208 967 q 171 976 188 975 q 130 977 155 977 l 130 564 m 217 456 q 217 472 217 464 q 214 486 216 479 q 208 495 212 492 q 195 499 203 499 l 130 499 l 130 65 q 161 66 145 65 q 189 70 176 66 q 209 83 201 74 q 217 109 217 92 l 217 456 m 304 608 q 287 557 304 575 q 233 531 270 540 q 287 506 270 524 q 304 456 304 488 l 304 109 q 289 46 304 68 q 250 14 274 24 q 194 2 225 3 q 130 0 163 0 l 43 0 l 43 1042 l 130 1042 q 203 1040 171 1042 q 258 1028 235 1038 q 292 996 280 1018 q 304 933 304 974 l 304 608 z "},"c":{"ha":347,"x_min":43,"x_max":304,"o":"m 304 608 l 217 608 l 217 944 q 205 977 217 967 q 179 987 194 987 q 162 984 170 987 q 146 975 153 981 q 135 961 139 969 q 130 944 130 954 l 130 98 q 135 80 130 88 q 146 66 139 72 q 162 57 153 60 q 179 54 170 54 q 205 64 194 54 q 217 98 217 75 l 217 477 l 304 477 l 304 98 q 292 50 304 71 q 262 15 281 29 q 220 -6 244 1 q 172 -13 197 -13 q 125 -6 148 -13 q 83 15 102 1 q 54 49 65 28 q 43 98 43 70 l 43 944 q 55 992 43 971 q 84 1027 66 1013 q 126 1047 102 1040 q 174 1055 150 1055 q 222 1048 199 1055 q 263 1027 245 1041 q 293 992 281 1013 q 304 944 304 972 l 304 608 z "},"d":{"ha":347,"x_min":43,"x_max":304,"o":"m 217 956 q 205 972 217 969 q 130 977 193 977 l 130 65 q 205 69 193 65 q 217 86 217 73 l 217 956 m 304 92 q 289 38 304 57 q 246 11 275 20 q 213 4 233 7 q 159 1 193 2 q 98 0 124 0 l 43 0 l 43 1042 q 99 1041 71 1042 q 157 1040 127 1041 q 245 1031 216 1039 q 289 1005 274 1023 q 304 954 304 987 l 304 92 z "},"e":{"ha":239,"x_min":43,"x_max":217,"o":"m 217 977 l 130 977 l 130 586 l 217 586 l 217 521 l 130 521 l 130 65 l 217 65 l 217 0 l 43 0 l 43 1042 l 217 1042 l 217 977 z "},"f":{"ha":250,"x_min":43,"x_max":239,"o":"m 239 977 l 130 977 l 130 586 l 217 586 l 217 521 l 130 521 l 130 0 l 43 0 l 43 1042 l 239 1042 l 239 977 z "},"g":{"ha":326,"x_min":43,"x_max":282,"o":"m 130 98 q 140 64 130 73 q 163 54 151 54 q 185 64 175 54 q 195 98 195 73 l 195 456 l 174 456 l 174 521 l 282 521 l 282 98 q 272 48 282 69 q 245 15 262 28 q 207 -5 228 1 q 163 -11 185 -11 q 119 -5 140 -11 q 81 15 98 1 q 54 48 64 28 q 43 98 43 69 l 43 955 q 54 1004 43 983 q 81 1038 64 1025 q 119 1057 98 1051 q 163 1063 140 1063 q 207 1057 185 1063 q 245 1038 228 1051 q 272 1004 262 1025 q 282 956 282 984 l 282 608 l 195 608 l 195 956 q 185 989 195 980 q 163 998 175 998 q 140 989 151 998 q 130 956 130 980 l 130 98 z "},"h":{"ha":347,"x_min":43,"x_max":304,"o":"m 217 1042 l 304 1042 l 304 0 l 217 0 l 217 506 l 130 506 l 130 0 l 43 0 l 43 1042 l 130 1042 l 130 574 l 217 574 l 217 1042 z "},"i":{"ha":195,"x_min":54,"x_max":141,"o":"m 141 1042 l 141 0 l 54 0 l 54 1042 l 141 1042 z "},"j":{"ha":326,"x_min":43,"x_max":282,"o":"m 282 98 q 272 48 282 69 q 245 15 262 28 q 207 -5 228 1 q 163 -11 185 -11 q 119 -5 140 -11 q 81 15 98 1 q 54 48 64 28 q 43 98 43 69 l 43 477 l 130 477 l 130 98 q 140 64 130 73 q 163 54 151 54 q 185 64 175 54 q 195 98 195 73 l 195 1042 l 282 1042 l 282 98 z "},"k":{"ha":304,"x_min":43,"x_max":282,"o":"m 282 0 l 195 0 l 130 477 l 130 0 l 43 0 l 43 1042 l 130 1042 l 130 564 l 195 1042 l 282 1042 l 207 521 l 282 0 z "},"l":{"ha":217,"x_min":43,"x_max":217,"o":"m 130 1042 l 130 65 l 217 65 l 217 0 l 43 0 l 43 1042 l 130 1042 z "},"m":{"ha":391,"x_min":43,"x_max":347,"o":"m 271 1042 l 347 1042 l 347 0 l 271 0 l 271 629 l 212 43 l 178 43 l 119 629 l 119 0 l 43 0 l 43 1042 l 120 1042 l 195 412 l 271 1042 z "},"n":{"ha":347,"x_min":43,"x_max":304,"o":"m 304 0 l 239 0 l 119 608 l 119 0 l 43 0 l 43 1042 l 109 1042 l 229 412 l 229 1042 l 304 1042 l 304 0 z "},"o":{"ha":347,"x_min":43,"x_max":304,"o":"m 304 98 q 293 48 304 69 q 265 14 283 28 q 225 -6 248 1 q 179 -12 203 -12 q 130 -5 154 -12 q 86 16 105 2 q 55 51 67 30 q 43 98 43 71 l 43 944 q 55 990 43 970 q 86 1023 67 1010 q 130 1044 106 1037 q 180 1051 155 1051 q 226 1045 203 1051 q 266 1025 248 1038 q 293 991 283 1012 q 304 944 304 971 l 304 98 m 217 944 q 206 977 217 967 q 180 987 195 987 q 162 984 171 987 q 146 975 153 981 q 135 961 139 969 q 130 944 130 954 l 130 98 q 135 80 130 88 q 146 66 139 72 q 162 58 153 61 q 179 55 170 55 q 205 65 194 55 q 217 98 217 75 l 217 944 z "},"p":{"ha":326,"x_min":43,"x_max":304,"o":"m 304 586 q 289 523 304 545 q 250 491 274 501 q 194 479 225 481 q 130 477 163 477 l 130 0 l 43 0 l 43 1042 l 152 1042 q 240 1031 210 1042 q 286 1004 271 1020 q 302 968 300 987 q 304 933 304 949 l 304 586 m 217 933 q 213 958 217 949 q 198 971 208 967 q 171 976 188 975 q 130 977 155 977 l 130 543 q 162 544 146 543 q 190 551 178 545 q 210 570 202 557 q 217 608 217 583 l 217 933 z "},"q":{"ha":347,"x_min":43,"x_max":304,"o":"m 130 43 l 217 43 l 260 -130 l 174 -130 l 130 43 m 304 98 q 293 48 304 69 q 265 14 283 28 q 225 -6 248 1 q 179 -12 203 -12 q 130 -5 154 -12 q 86 16 105 2 q 55 51 67 30 q 43 98 43 71 l 43 944 q 55 990 43 970 q 86 1023 67 1010 q 130 1044 106 1037 q 180 1051 155 1051 q 226 1045 203 1051 q 266 1025 248 1038 q 293 991 283 1012 q 304 944 304 971 l 304 98 m 217 944 q 206 977 217 967 q 180 987 195 987 q 162 984 171 987 q 146 975 153 981 q 135 961 139 969 q 130 944 130 954 l 130 98 q 135 80 130 88 q 146 66 139 72 q 162 58 153 61 q 179 55 170 55 q 205 65 194 55 q 217 98 217 75 l 217 944 z "},"r":{"ha":326,"x_min":43,"x_max":282,"o":"m 282 608 q 266 557 282 575 q 217 532 250 540 q 266 506 250 524 q 282 456 282 488 l 282 0 l 195 0 l 195 456 q 191 481 195 472 q 179 494 187 490 q 159 498 171 498 q 130 499 146 499 l 130 0 l 43 0 l 43 1042 l 141 1042 q 217 1035 185 1042 q 265 1009 248 1027 q 282 955 282 991 l 282 608 m 195 933 q 191 958 195 949 q 179 971 187 967 q 159 976 171 975 q 130 977 146 977 l 130 564 q 159 565 146 564 q 179 570 171 566 q 191 583 187 574 q 195 608 195 591 l 195 933 z "},"s":{"ha":326,"x_min":43,"x_max":282,"o":"m 282 673 l 195 673 l 195 944 q 185 978 195 968 q 163 987 175 987 q 140 978 151 987 q 130 944 130 968 q 137 810 130 871 q 155 698 144 749 q 179 604 165 646 q 206 526 193 562 q 230 462 217 498 q 255 374 243 425 q 274 256 267 323 q 282 98 282 188 q 272 48 282 69 q 245 15 262 28 q 207 -5 228 1 q 163 -11 185 -11 q 119 -5 140 -11 q 81 15 98 1 q 54 48 64 28 q 43 98 43 69 l 43 369 l 130 369 l 130 98 q 140 64 130 73 q 163 54 151 54 q 185 64 175 54 q 195 98 195 73 q 187 251 195 185 q 165 368 178 317 q 137 456 153 418 q 109 526 122 494 q 84 597 96 557 q 63 688 73 637 q 49 803 54 739 q 43 944 43 866 q 54 993 43 972 q 81 1026 64 1013 q 119 1046 98 1040 q 163 1053 140 1053 q 207 1046 185 1053 q 245 1026 228 1040 q 272 993 262 1013 q 282 944 282 972 l 282 673 z "},"t":{"ha":282,"x_min":11,"x_max":271,"o":"m 271 1042 l 271 977 l 184 977 l 184 0 l 98 0 l 98 977 l 11 977 l 11 1042 l 271 1042 z "},"u":{"ha":326,"x_min":43,"x_max":282,"o":"m 195 1042 l 282 1042 l 282 98 q 272 48 282 69 q 245 15 262 28 q 207 -5 228 1 q 163 -11 185 -11 q 119 -5 140 -11 q 81 15 98 1 q 54 48 64 28 q 43 98 43 69 l 43 1042 l 130 1042 l 130 98 q 140 64 130 73 q 163 54 151 54 q 185 64 175 54 q 195 98 195 73 l 195 1042 z "},"v":{"ha":282,"x_min":22,"x_max":260,"o":"m 130 564 l 142 109 l 152 564 l 174 1042 l 260 1042 l 195 0 l 87 0 l 22 1042 l 109 1042 l 130 564 z "},"w":{"ha":434,"x_min":22,"x_max":412,"o":"m 304 130 l 304 564 l 326 1042 l 412 1042 l 347 0 l 260 0 l 239 412 l 217 868 l 195 412 l 174 0 l 87 0 l 22 1042 l 109 1042 l 130 564 l 130 130 l 152 564 l 174 1042 l 260 1042 l 282 564 l 304 130 z "},"x":{"ha":282,"x_min":22,"x_max":260,"o":"m 152 738 l 174 1042 l 260 1042 l 195 499 l 260 0 l 174 0 l 152 260 l 141 434 l 130 260 l 109 0 l 22 0 l 87 499 l 22 1042 l 109 1042 l 130 738 l 141 564 l 152 738 z "},"y":{"ha":304,"x_min":22,"x_max":282,"o":"m 174 781 l 195 1042 l 282 1042 l 195 347 l 195 0 l 109 0 l 109 347 l 22 1042 l 109 1042 l 130 781 l 152 499 l 174 781 z "},"z":{"ha":217,"x_min":22,"x_max":195,"o":"m 195 1042 l 114 65 l 195 65 l 195 0 l 22 0 l 109 977 l 22 977 l 22 1042 l 195 1042 z "},"{":{"ha":236,"x_min":37,"x_max":229,"o":"m 229 1272 l 229 1192 l 128 1192 l 128 4 l 229 4 l 229 -74 l 37 -74 l 37 1272 l 229 1272 z "},"|":{"ha":168,"x_min":39,"x_max":130,"o":"m 130 1276 l 130 -81 l 39 -81 l 39 1276 l 130 1276 z "},"}":{"ha":266,"x_min":-1,"x_max":191,"o":"m 191 1272 l 191 -74 l -1 -74 l -1 4 l 98 4 l 98 1192 l -1 1192 l -1 1272 l 191 1272 z "},"~":{"ha":221,"x_min":-10,"x_max":248,"o":"m -10 68 q -6 111 -10 92 q 6 145 -3 131 q 27 168 14 160 q 60 176 41 176 q 90 172 77 176 q 115 162 102 168 q 141 152 127 156 q 173 147 155 147 q 184 152 180 147 q 190 161 188 156 q 194 176 193 168 l 248 176 q 246 148 248 161 q 241 123 245 134 q 219 85 234 102 q 173 68 203 68 q 141 73 156 68 q 114 83 127 78 q 87 94 100 89 q 61 98 75 98 q 51 94 55 98 q 45 83 47 90 q 43 68 43 78 l -10 68 z "}," ":{"ha":190,"x_min":0,"x_max":0,"o":"z "},"¡":{"ha":164,"x_min":20,"x_max":150,"o":"m 150 23 l 106 1021 l 63 1021 l 20 23 l 150 23 m 128 1086 l 128 1194 l 41 1194 l 41 1086 l 128 1086 z "},"¢":{"ha":292,"x_min":35,"x_max":264,"o":"m 170 1143 l 170 1046 q 205 1035 189 1043 q 235 1016 222 1027 q 255 990 248 1005 q 264 960 263 976 l 264 602 l 175 602 l 175 958 q 166 973 173 967 q 152 979 159 979 q 133 973 140 979 q 126 958 126 967 l 126 74 q 133 63 126 68 q 152 57 140 57 q 166 63 159 57 q 175 74 173 68 l 175 484 l 264 484 l 264 74 q 255 43 263 58 q 235 17 248 28 q 205 -2 222 5 q 170 -12 189 -10 l 170 -105 l 131 -105 l 131 -12 q 94 -2 111 -10 q 64 17 77 5 q 43 43 51 28 q 35 74 35 58 l 35 958 q 43 989 35 974 q 64 1016 51 1004 q 94 1035 77 1027 q 131 1046 111 1043 l 131 1143 l 170 1143 z "},"£":{"ha":372,"x_min":12,"x_max":345,"o":"m 24 656 l 98 656 l 98 1110 q 109 1149 98 1131 q 135 1181 119 1167 q 174 1202 152 1194 q 220 1210 196 1210 q 269 1202 246 1210 q 309 1180 292 1194 q 335 1147 326 1166 q 345 1109 345 1129 l 345 895 l 253 895 l 253 1111 q 243 1131 253 1122 q 220 1139 233 1139 q 198 1131 206 1139 q 189 1111 189 1122 l 189 656 l 344 656 l 344 585 l 189 585 l 189 260 q 178 169 189 205 q 155 112 168 133 q 119 72 139 85 l 344 72 l 344 0 l 12 0 l 12 72 q 35 89 24 79 q 56 112 46 99 q 85 169 72 133 q 98 259 98 204 l 98 585 l 24 585 l 24 656 z "},"¤":{"ha":355,"x_min":20,"x_max":335,"o":"m 284 543 l 241 589 q 177 573 211 573 q 113 589 142 573 l 69 543 l 20 585 l 73 646 q 68 662 70 654 q 66 678 66 670 l 66 1046 q 68 1065 66 1056 q 75 1084 71 1075 q 65 1099 74 1088 q 47 1122 56 1110 l 20 1153 l 69 1194 l 117 1137 q 145 1147 131 1143 q 177 1151 160 1151 q 209 1147 194 1151 q 237 1137 223 1143 l 286 1196 l 335 1153 l 277 1084 q 286 1048 286 1069 l 286 675 q 280 647 286 662 l 335 585 l 284 543 m 202 1062 q 195 1079 202 1073 q 177 1086 188 1086 q 158 1079 167 1086 q 149 1062 149 1073 l 149 661 q 156 648 149 656 q 177 640 163 640 q 195 646 188 640 q 202 661 202 652 l 202 1062 z "},"¥":{"ha":302,"x_min":5,"x_max":296,"o":"m 296 431 l 195 431 l 195 380 l 296 380 l 296 304 l 195 304 l 195 0 l 104 0 l 104 304 l 5 304 l 5 380 l 104 380 l 104 431 l 5 431 l 5 506 l 98 506 l 10 1194 l 106 1194 l 151 694 l 195 1194 l 286 1194 l 200 506 l 296 506 l 296 431 z "},"¦":{"ha":172,"x_min":41,"x_max":131,"o":"m 131 547 l 131 0 l 41 0 l 41 547 l 131 547 m 131 1194 l 131 602 l 41 602 l 41 1194 l 131 1194 z "},"§":{"ha":279,"x_min":16,"x_max":262,"o":"m 16 632 q 26 714 16 682 q 49 767 35 747 q 80 797 63 787 q 111 810 96 806 q 77 872 94 841 q 46 942 60 904 q 25 1026 33 979 q 17 1135 17 1073 q 28 1174 17 1156 q 56 1203 39 1191 q 94 1221 73 1215 q 135 1227 115 1227 q 177 1221 156 1227 q 215 1203 198 1215 q 241 1175 231 1192 q 252 1135 252 1158 l 252 943 l 163 943 l 163 1135 q 155 1152 163 1145 q 135 1158 147 1158 q 115 1152 123 1158 q 106 1135 106 1145 q 118 1019 106 1069 q 147 928 130 969 q 184 852 164 888 q 221 780 204 817 q 250 701 239 743 q 262 604 262 659 q 253 522 262 555 q 230 469 243 490 q 200 439 216 449 q 168 425 183 429 q 201 360 184 394 q 231 285 218 326 q 253 195 245 244 q 262 85 262 146 q 251 45 262 63 q 223 16 240 28 q 185 -1 206 5 q 144 -7 164 -7 q 102 -2 123 -7 q 65 16 81 4 q 38 44 48 27 q 28 83 28 61 l 28 286 l 115 286 l 115 85 q 123 67 115 73 q 144 61 131 61 q 164 67 156 61 q 172 85 172 73 q 161 202 172 151 q 132 295 149 252 q 94 375 115 338 q 57 451 74 412 q 28 533 39 490 q 16 632 16 577 m 98 639 q 109 556 98 592 q 135 486 119 520 q 148 493 140 488 q 163 510 156 498 q 175 543 170 522 q 180 597 180 564 q 170 681 180 644 q 144 752 160 718 q 131 745 138 751 q 116 727 123 739 q 103 693 109 714 q 98 639 98 671 z "},"¨":{"ha":398,"x_min":78,"x_max":313,"o":"m 313 159 l 313 52 l 216 52 l 216 159 l 313 159 m 176 159 l 176 52 l 78 52 l 78 159 l 176 159 z "},"©":{"ha":1000,"x_min":16,"x_max":983,"o":"m 614 780 l 526 780 l 526 958 q 523 966 526 962 q 515 973 519 970 q 505 978 510 976 q 496 979 500 979 q 475 973 486 979 q 465 958 465 967 l 465 482 q 475 470 465 476 q 496 464 484 464 q 516 470 506 464 q 526 482 526 476 l 526 661 l 614 661 l 614 482 q 604 449 614 465 q 577 420 593 433 q 539 401 560 408 q 496 394 517 394 q 451 401 473 394 q 412 420 429 408 q 385 449 395 433 q 375 482 375 465 l 375 958 q 385 993 375 977 q 412 1021 395 1009 q 451 1041 429 1034 q 496 1048 473 1048 q 539 1041 517 1048 q 577 1022 560 1034 q 604 994 593 1010 q 614 960 614 978 l 614 780 m 16 724 q 34 852 16 791 q 82 968 51 914 q 158 1066 114 1022 q 256 1142 202 1110 q 372 1191 310 1173 q 500 1208 433 1208 q 628 1191 566 1208 q 743 1142 690 1173 q 841 1066 797 1110 q 917 968 886 1022 q 966 852 949 914 q 983 724 983 791 q 966 596 983 658 q 917 481 949 534 q 841 383 886 427 q 743 307 797 338 q 628 258 690 275 q 500 241 566 241 q 372 258 433 241 q 256 307 310 275 q 158 383 202 338 q 82 481 114 427 q 34 596 51 534 q 16 724 16 658 m 106 724 q 136 569 106 642 q 220 441 167 496 q 345 356 273 387 q 500 324 417 324 q 605 338 555 324 q 700 379 656 353 q 779 441 743 405 q 841 523 815 478 q 880 618 866 567 q 894 724 894 669 q 880 830 894 779 q 841 926 866 881 q 779 1007 815 970 q 700 1069 743 1043 q 605 1110 656 1096 q 500 1124 555 1124 q 394 1110 444 1124 q 299 1069 343 1096 q 220 1007 256 1043 q 159 926 184 970 q 120 830 134 881 q 106 724 106 779 z "},"ª":{"ha":283,"x_min":45,"x_max":306,"o":"m 306 163 l 219 163 l 205 389 l 145 389 l 132 163 l 45 163 l 132 1205 l 219 1205 l 306 163 m 201 459 l 176 988 l 150 459 l 201 459 z "},"«":{"ha":389,"x_min":28,"x_max":377,"o":"m 377 990 l 377 798 l 277 597 l 377 412 l 377 204 l 185 597 l 377 990 m 220 990 l 220 798 l 120 597 l 220 412 l 220 204 l 28 597 l 220 990 z "},"¬":{"ha":682,"x_min":16,"x_max":666,"o":"m 666 786 l 666 719 l 102 719 l 102 490 l 16 490 l 16 787 l 666 786 z "},"­":{"ha":996,"x_min":0,"x_max":0,"o":""},"®":{"ha":1000,"x_min":16,"x_max":983,"o":"m 608 817 q 600 773 608 790 q 581 747 591 757 q 555 729 569 735 q 569 723 563 726 q 581 714 576 719 q 600 690 591 705 q 608 652 608 676 l 608 405 l 527 405 l 527 677 q 525 689 527 684 q 516 696 523 694 q 498 701 510 699 q 468 702 487 702 l 468 405 l 385 405 l 385 1058 q 479 1057 437 1058 q 549 1048 521 1056 q 593 1022 578 1040 q 608 972 608 1004 l 608 817 m 519 972 q 506 988 519 985 q 467 991 494 991 l 467 752 q 506 755 494 752 q 519 772 519 758 l 519 972 m 16 724 q 34 852 16 791 q 82 968 51 914 q 158 1066 114 1022 q 256 1142 202 1110 q 372 1191 310 1173 q 500 1208 433 1208 q 628 1191 566 1208 q 743 1142 690 1173 q 841 1066 797 1110 q 917 968 886 1022 q 966 852 949 914 q 983 724 983 791 q 966 596 983 658 q 917 481 949 534 q 841 383 886 427 q 743 307 797 338 q 628 258 690 275 q 500 241 566 241 q 372 258 433 241 q 256 307 310 275 q 158 383 202 338 q 82 481 114 427 q 34 596 51 534 q 16 724 16 658 m 106 724 q 136 569 106 642 q 220 441 167 496 q 345 356 273 387 q 500 324 417 324 q 605 338 555 324 q 700 379 656 353 q 779 441 743 405 q 841 523 815 478 q 880 618 866 567 q 894 724 894 669 q 880 830 894 779 q 841 926 866 881 q 779 1007 815 970 q 700 1069 743 1043 q 605 1110 656 1096 q 500 1124 555 1124 q 394 1110 444 1124 q 299 1069 343 1096 q 220 1007 256 1043 q 159 926 184 970 q 120 830 134 881 q 106 724 106 779 z "},"¯":{"ha":221,"x_min":0,"x_max":222,"o":"m 222 59 l 0 59 l 0 130 l 222 130 l 222 59 z "},"°":{"ha":221,"x_min":22,"x_max":216,"o":"m 22 1093 q 30 1131 22 1114 q 50 1162 37 1149 q 81 1182 63 1175 q 119 1190 98 1190 q 189 1162 161 1190 q 216 1093 216 1135 q 208 1056 216 1074 q 188 1026 201 1039 q 157 1006 175 1013 q 119 998 140 998 q 81 1006 98 998 q 50 1026 63 1013 q 30 1056 37 1039 q 22 1093 22 1074 m 76 1094 q 88 1064 76 1076 q 119 1051 100 1051 q 151 1064 138 1051 q 163 1094 163 1076 q 151 1125 163 1113 q 119 1137 138 1137 q 88 1125 100 1137 q 76 1094 76 1113 z "},"±":{"ha":462,"x_min":26,"x_max":416,"o":"m 26 626 l 178 626 l 178 800 l 264 800 l 264 626 l 416 626 l 416 539 l 264 539 l 264 366 l 178 366 l 178 539 l 26 539 l 26 626 m 367 213 l 93 213 l 93 304 l 367 304 l 367 213 z "},"²":{"ha":315,"x_min":35,"x_max":283,"o":"m 35 866 q 44 905 35 886 q 69 936 53 923 q 108 957 85 949 q 159 965 131 965 q 211 956 186 965 q 253 930 235 947 q 280 892 271 914 q 283 843 288 869 q 217 493 245 637 q 171 258 189 349 l 136 82 l 283 82 l 283 0 l 36 0 q 57 101 45 47 q 80 218 68 155 q 130 481 102 327 q 193 839 159 635 q 185 876 198 866 q 159 885 174 885 q 135 878 144 885 q 126 859 126 870 l 126 629 l 35 629 l 35 866 z "},"³":{"ha":298,"x_min":35,"x_max":263,"o":"m 35 878 q 45 912 35 897 q 70 940 54 928 q 105 959 85 952 q 147 966 125 966 q 191 959 170 966 q 228 940 212 952 q 254 912 244 928 q 263 877 263 896 l 263 583 q 259 558 263 568 q 251 541 255 548 l 239 529 q 251 519 245 526 q 259 502 255 513 q 263 475 263 492 l 263 68 q 254 33 263 49 q 228 4 244 16 q 191 -14 212 -7 q 147 -21 170 -21 q 105 -14 125 -21 q 70 4 85 -7 q 45 32 54 16 q 35 66 35 47 l 35 342 l 123 342 l 123 81 q 127 58 123 68 q 147 47 132 47 q 163 52 158 47 q 171 64 169 57 q 173 80 173 72 q 172 96 172 89 l 172 462 q 169 485 172 475 q 149 494 165 494 l 102 494 l 102 564 l 149 564 q 169 572 165 564 q 172 592 172 579 l 172 847 q 173 863 172 854 q 171 879 173 871 q 164 892 170 887 q 147 898 159 898 q 127 887 132 898 q 123 864 123 877 l 123 684 l 35 684 l 35 878 z "},"´":{"ha":221,"x_min":0,"x_max":195,"o":"m 195 347 l 65 65 l 0 65 l 87 347 l 195 347 z "},"µ":{"ha":300,"x_min":36,"x_max":264,"o":"m 36 1031 l 127 1031 l 127 76 q 134 61 127 67 q 149 56 140 56 q 166 61 159 56 q 173 76 173 67 l 173 1031 l 264 1031 l 264 73 q 255 39 264 54 q 233 11 247 23 q 202 -7 220 -1 q 165 -14 184 -14 q 152 -10 159 -14 q 140 -2 145 -6 q 127 9 133 2 l 127 -76 l 36 -76 l 36 1031 z "},"¶":{"ha":440,"x_min":37,"x_max":402,"o":"m 37 1085 q 47 1131 37 1111 q 75 1165 58 1152 q 114 1187 92 1179 q 161 1194 136 1194 l 402 1194 l 402 0 l 310 0 l 310 560 l 284 560 l 284 0 l 189 0 l 189 559 q 75 582 113 559 q 37 662 37 604 l 37 1085 z "},"·":{"ha":161,"x_min":14,"x_max":138,"o":"m 138 652 l 138 527 l 14 527 l 14 652 l 138 652 z "},"¸":{"ha":221,"x_min":48,"x_max":159,"o":"m 48 -277 l 87 0 l 159 0 l 159 -277 l 48 -277 z "},"¹":{"ha":273,"x_min":9,"x_max":264,"o":"m 9 78 l 96 78 l 96 868 l 9 868 l 9 947 l 188 947 l 188 78 l 264 78 l 264 0 l 9 0 l 9 78 z "},"º":{"ha":311,"x_min":87,"x_max":348,"o":"m 348 98 q 337 48 348 69 q 309 14 327 28 q 269 -6 292 1 q 223 -12 247 -12 q 174 -5 198 -12 q 130 16 149 2 q 99 51 111 30 q 87 98 87 71 l 87 944 q 99 990 87 970 q 131 1023 111 1010 q 174 1044 150 1037 q 224 1051 199 1051 q 270 1045 248 1051 q 310 1025 292 1038 q 337 991 327 1012 q 348 944 348 971 l 348 98 m 261 944 q 250 977 261 967 q 224 987 239 987 q 206 984 215 987 q 190 975 197 981 q 179 961 183 969 q 174 944 174 954 l 174 98 q 179 80 174 88 q 190 66 183 72 q 206 58 197 61 q 223 55 214 55 q 250 65 238 55 q 261 98 261 75 l 261 944 z "},"»":{"ha":402,"x_min":49,"x_max":399,"o":"m 50 990 l 50 798 l 149 597 l 50 412 l 50 204 l 241 597 l 50 990 m 207 990 l 207 798 l 307 597 l 207 412 l 207 204 l 399 597 l 207 990 z "},"¼":{"ha":761,"x_min":22,"x_max":732,"o":"m 732 539 l 732 0 l 642 0 l 642 243 l 468 243 l 566 947 l 656 947 l 561 319 l 642 319 l 642 539 l 732 539 m 502 1194 l 373 0 l 282 0 l 410 1194 l 502 1194 m 22 325 l 109 325 l 109 1114 l 22 1114 l 22 1194 l 201 1194 l 201 325 l 277 325 l 277 247 l 22 247 l 22 325 z "},"½":{"ha":777,"x_min":23,"x_max":757,"o":"m 484 1172 l 376 0 l 289 0 l 397 1172 l 484 1172 m 23 323 l 110 323 l 110 1114 l 23 1114 l 23 1193 l 202 1193 l 202 323 l 278 323 l 278 245 l 23 245 l 23 323 m 509 866 q 517 905 509 886 q 543 936 526 923 q 582 957 559 949 q 632 965 604 965 q 684 956 659 965 q 727 930 709 947 q 753 892 745 914 q 757 843 762 869 q 690 493 718 637 q 644 258 662 349 l 609 82 l 757 82 l 757 0 l 509 0 q 530 101 519 47 q 553 218 541 155 q 604 481 575 327 q 666 839 632 635 q 659 876 671 866 q 632 885 647 885 q 609 878 618 885 q 600 859 600 870 l 600 629 l 509 629 l 509 866 z "},"¾":{"ha":737,"x_min":26,"x_max":707,"o":"m 26 1107 q 36 1141 26 1125 q 60 1169 45 1157 q 96 1187 76 1181 q 138 1194 116 1194 q 182 1187 161 1194 q 219 1169 203 1181 q 244 1141 235 1157 q 254 1106 254 1124 l 254 812 q 250 786 254 796 q 241 770 245 777 q 229 758 236 762 q 241 748 237 754 q 250 731 245 741 q 254 704 254 720 l 254 296 q 244 261 254 277 q 219 233 235 245 q 182 214 203 221 q 138 208 161 208 q 96 214 116 208 q 60 233 76 221 q 36 260 45 244 q 26 294 26 276 l 26 571 l 115 571 l 115 310 q 119 286 115 296 q 138 276 123 276 q 155 281 149 276 q 162 293 160 286 q 164 309 164 300 q 163 325 163 317 l 163 690 q 160 713 163 704 q 140 723 156 723 l 92 723 l 92 793 l 140 793 q 160 800 156 793 q 163 821 163 808 l 163 1076 q 164 1091 163 1082 q 162 1108 164 1100 q 155 1121 161 1116 q 138 1126 150 1126 q 119 1116 123 1126 q 115 1093 115 1106 l 115 913 l 26 913 l 26 1107 m 707 539 l 707 0 l 616 0 l 616 243 l 443 243 l 541 947 l 631 947 l 535 319 l 616 319 l 616 539 l 707 539 m 488 1194 l 360 0 l 269 0 l 398 1194 l 488 1194 z "},"¿":{"ha":300,"x_min":282,"x_max":521,"o":"m 434 1035 l 347 1035 l 347 840 q 354 718 347 767 q 370 633 360 669 q 391 565 379 596 q 412 499 402 535 q 428 415 421 463 q 434 297 434 368 l 434 145 q 424 101 434 115 q 401 86 414 86 q 379 101 389 86 q 369 145 369 115 l 369 449 l 282 449 l 282 145 q 292 88 282 113 q 319 48 302 64 q 358 23 336 31 q 401 15 379 15 q 445 23 424 15 q 484 48 467 31 q 511 88 500 64 q 521 145 521 113 l 521 297 q 517 395 521 354 q 507 466 513 436 q 493 522 501 497 q 477 571 486 547 q 461 624 469 596 q 448 691 454 652 q 438 781 441 730 q 434 905 434 833 l 434 1035 m 434 1122 l 434 1208 l 347 1208 l 347 1122 l 434 1122 z "},"Æ":{"ha":400,"x_min":4,"x_max":394,"o":"m 394 1115 l 277 1115 l 275 675 l 364 675 l 364 594 l 275 594 l 275 76 l 394 76 l 394 0 l 186 0 l 182 260 l 129 260 l 98 0 l 4 0 l 144 1194 l 394 1194 l 394 1115 m 181 340 l 200 998 l 137 340 l 181 340 z "},"Ç":{"ha":316,"x_min":83,"x_max":347,"o":"m 347 694 l 260 694 l 260 1063 q 257 1090 260 1080 q 247 1106 253 1101 q 233 1115 241 1112 q 217 1117 225 1117 q 201 1115 209 1117 q 187 1106 193 1112 q 177 1090 181 1101 q 174 1063 174 1080 l 174 109 q 174 89 174 100 q 179 68 175 78 q 192 51 183 58 q 217 43 201 43 q 242 51 233 43 q 255 68 251 58 q 260 89 259 78 q 260 109 260 100 l 260 564 l 347 564 l 347 109 q 345 79 347 100 q 331 35 343 58 q 292 -4 319 13 q 217 -22 266 -22 q 142 -4 168 -22 q 103 35 115 13 q 89 79 91 58 q 87 109 87 100 l 87 1063 q 98 1117 87 1095 q 129 1154 110 1140 q 170 1175 147 1168 q 217 1182 193 1182 q 266 1175 242 1182 q 307 1152 289 1167 q 336 1115 326 1137 q 347 1063 347 1093 l 347 694 m 83 -277 l 123 0 l 195 0 l 195 -277 l 83 -277 z "},"Ð":{"ha":330,"x_min":8,"x_max":290,"o":"m 290 112 q 279 63 290 84 q 249 28 268 43 q 207 7 231 14 q 159 0 183 0 l 40 0 l 40 553 l 8 553 l 8 635 l 40 635 l 40 1194 l 159 1194 q 204 1188 181 1194 q 247 1167 228 1181 q 278 1132 266 1154 q 290 1078 290 1109 l 290 112 m 168 553 l 134 553 l 134 81 q 161 82 149 81 q 181 85 173 82 q 195 95 190 88 q 199 113 199 101 l 199 1080 q 195 1100 199 1093 q 181 1110 190 1107 q 161 1114 173 1114 q 134 1115 149 1115 l 134 635 l 168 635 l 168 553 z "},"×":{"ha":270,"x_min":14,"x_max":256,"o":"m 256 133 l 169 133 l 136 311 l 104 133 l 14 133 l 94 486 l 14 846 l 104 846 l 136 658 l 169 846 l 256 846 l 180 486 l 256 133 z "},"Ø":{"ha":317,"x_min":35,"x_max":281,"o":"m 35 1110 q 45 1149 35 1131 q 72 1181 55 1167 q 110 1202 88 1194 q 157 1210 132 1210 q 205 1202 182 1210 q 245 1180 228 1194 q 272 1147 262 1166 q 281 1109 281 1129 l 281 88 q 272 48 281 66 q 245 16 262 29 q 205 -6 228 2 q 157 -14 182 -14 q 110 -6 132 -14 q 72 15 88 1 q 45 46 55 28 q 35 84 35 64 l 35 1110 m 126 86 q 135 68 126 76 q 157 60 143 60 q 180 68 171 60 q 189 86 189 76 l 189 831 l 126 86 m 189 1111 q 179 1131 189 1122 q 157 1139 170 1139 q 135 1131 143 1139 q 126 1111 126 1122 l 126 366 l 189 1111 z "},"Ù":{"ha":306,"x_min":12,"x_max":306,"o":"m 132 109 q 133 89 132 100 q 138 68 134 78 q 151 51 142 58 q 176 43 159 43 q 201 51 192 43 q 214 68 210 58 q 218 89 218 78 q 219 109 219 100 l 219 1172 l 306 1172 l 306 109 q 304 79 306 100 q 290 35 302 58 q 251 -4 277 13 q 176 -22 224 -22 q 100 -4 127 -22 q 62 35 74 13 q 47 79 50 58 q 45 109 45 100 l 45 1172 l 132 1172 l 132 109 m 120 1531 l 207 1249 l 142 1249 l 12 1531 l 120 1531 z "},"Ú":{"ha":306,"x_min":28,"x_max":306,"o":"m 132 109 q 133 89 132 100 q 138 68 134 78 q 151 51 142 58 q 176 43 159 43 q 201 51 192 43 q 214 68 210 58 q 218 89 218 78 q 219 109 219 100 l 219 1172 l 306 1172 l 306 109 q 304 79 306 100 q 290 35 302 58 q 251 -4 277 13 q 176 -22 224 -22 q 100 -4 127 -22 q 62 35 74 13 q 47 79 50 58 q 45 109 45 100 l 45 1172 l 132 1172 l 132 109 m 224 1531 l 94 1249 l 28 1249 l 115 1531 l 224 1531 z "},"Û":{"ha":306,"x_min":45,"x_max":306,"o":"m 132 109 q 133 89 132 100 q 138 68 134 78 q 151 51 142 58 q 176 43 159 43 q 201 51 192 43 q 214 68 210 58 q 218 89 218 78 q 219 109 219 100 l 219 1172 l 306 1172 l 306 109 q 304 79 306 100 q 290 35 302 58 q 251 -4 277 13 q 176 -22 224 -22 q 100 -4 127 -22 q 62 35 74 13 q 47 79 50 58 q 45 109 45 100 l 45 1172 l 132 1172 l 132 109 m 203 1476 l 243 1241 l 174 1241 l 153 1402 l 132 1241 l 64 1241 l 104 1476 l 203 1476 z "},"Ü":{"ha":306,"x_min":37,"x_max":306,"o":"m 132 109 q 133 89 132 100 q 138 68 134 78 q 151 51 142 58 q 176 43 159 43 q 201 51 192 43 q 214 68 210 58 q 218 89 218 78 q 219 109 219 100 l 219 1172 l 306 1172 l 306 109 q 304 79 306 100 q 290 35 302 58 q 251 -4 277 13 q 176 -22 224 -22 q 100 -4 127 -22 q 62 35 74 13 q 47 79 50 58 q 45 109 45 100 l 45 1172 l 132 1172 l 132 109 m 271 1343 l 271 1236 l 174 1236 l 174 1343 l 271 1343 m 135 1343 l 135 1236 l 37 1236 l 37 1343 l 135 1343 z "},"Ý":{"ha":280,"x_min":3,"x_max":304,"o":"m 152 868 l 174 564 l 195 868 l 217 1172 l 304 1172 l 217 412 l 217 0 l 130 0 l 130 412 l 43 1172 l 130 1172 l 152 868 m 199 1531 l 68 1249 l 3 1249 l 90 1531 l 199 1531 z "},"Þ":{"ha":304,"x_min":37,"x_max":280,"o":"m 280 413 q 241 333 280 356 q 128 311 202 311 l 128 0 l 37 0 l 37 1194 l 128 1194 l 128 1031 l 156 1031 q 204 1023 181 1031 q 243 1002 227 1016 q 270 968 260 988 q 280 922 280 947 l 280 413 m 187 930 q 171 954 187 947 q 128 960 155 960 l 128 389 q 174 393 160 389 q 187 418 187 398 l 187 930 z "},"ß":{"ha":317,"x_min":35,"x_max":281,"o":"m 35 1093 q 46 1145 35 1123 q 76 1182 58 1167 q 115 1203 94 1196 q 157 1210 136 1210 q 199 1203 177 1210 q 239 1183 221 1197 q 270 1146 258 1168 q 281 1094 281 1124 l 281 786 q 266 734 281 761 q 218 698 250 708 q 247 685 235 694 q 266 664 258 676 q 278 639 274 652 q 281 613 281 626 l 281 102 q 272 63 281 81 q 245 30 262 44 q 206 8 229 16 q 159 0 184 0 l 126 0 l 126 -138 l 35 -138 l 35 1093 m 189 625 q 188 634 189 628 q 184 645 187 640 q 175 654 181 650 q 160 658 170 658 l 126 658 l 126 77 q 155 78 143 77 q 175 80 167 78 q 186 87 182 82 q 189 102 189 92 l 189 625 m 126 739 l 164 739 q 185 750 181 739 q 189 778 189 761 l 189 1106 q 180 1131 189 1122 q 157 1139 171 1139 q 126 1106 126 1139 l 126 739 z "},"æ":{"ha":399,"x_min":7,"x_max":385,"o":"m 385 964 l 273 964 l 273 582 l 357 582 l 357 510 l 273 510 l 273 68 l 385 68 l 385 0 l 190 0 l 192 225 l 125 225 l 94 0 l 7 0 l 149 1031 l 385 1031 l 385 964 m 191 296 l 196 854 l 134 296 l 191 296 z "},"ð":{"ha":318,"x_min":33,"x_max":326,"o":"m 326 896 l 267 878 q 270 784 269 833 q 270 681 270 736 l 270 96 q 260 54 270 73 q 235 21 251 35 q 197 0 218 7 q 151 -8 175 -8 q 106 -1 127 -8 q 69 19 85 6 q 44 51 54 33 q 35 92 35 70 l 35 588 q 44 627 35 608 q 67 659 52 645 q 101 681 81 673 q 145 690 121 690 q 167 686 157 690 q 179 682 177 682 l 179 772 q 177 854 179 814 l 33 814 l 33 884 l 172 923 q 159 1006 168 970 q 135 1067 151 1042 q 94 1105 119 1092 q 33 1118 69 1118 l 33 1197 q 134 1180 93 1197 q 201 1130 174 1162 q 241 1052 227 1098 q 261 947 255 1005 l 326 966 l 326 896 m 151 610 q 129 599 134 610 q 125 573 125 588 l 125 96 q 133 79 125 85 q 151 72 140 72 q 173 83 168 72 q 179 106 179 94 l 179 602 q 169 606 177 602 q 151 610 161 610 z "},"÷":{"ha":380,"x_min":16,"x_max":364,"o":"m 364 451 l 16 451 l 16 543 l 364 543 l 364 451 m 257 708 l 257 582 l 133 582 l 133 708 l 257 708 m 257 406 l 257 281 l 133 281 l 133 406 l 257 406 z "},"ø":{"ha":311,"x_min":36,"x_max":276,"o":"m 276 88 q 266 48 276 67 q 240 16 256 30 q 202 -6 224 2 q 157 -14 180 -14 q 110 -6 132 -14 q 72 16 88 2 q 45 50 55 31 q 36 92 36 69 l 36 943 q 45 983 36 964 q 72 1017 55 1002 q 110 1039 88 1031 q 157 1048 132 1048 q 202 1040 180 1048 q 240 1019 224 1032 q 266 986 256 1005 q 276 945 276 967 l 276 88 m 182 566 l 129 271 l 129 74 q 136 61 129 68 q 157 53 143 53 q 175 59 168 53 q 182 74 182 65 l 182 566 m 182 799 l 182 960 q 175 977 182 970 q 157 983 168 983 q 138 977 146 983 q 129 960 129 970 l 129 494 l 182 799 z "},"þ":{"ha":296,"x_min":37,"x_max":268,"o":"m 128 1058 l 128 868 l 151 868 q 195 862 174 868 q 233 843 216 855 q 258 813 249 831 q 268 772 268 795 l 268 408 q 268 330 268 363 q 267 274 267 296 l 267 254 q 255 206 267 225 q 224 175 243 186 q 179 158 204 163 q 126 152 153 153 l 126 -163 l 37 -163 l 37 1058 l 128 1058 m 180 772 q 169 794 180 787 q 128 801 159 801 l 128 224 q 169 230 159 224 q 180 252 180 237 l 180 772 z "},"Ą":{"ha":286,"x_min":48,"x_max":374,"o":"m 309 0 l 222 0 l 211 282 l 146 282 l 135 0 l 48 0 l 113 1172 l 243 1172 l 309 0 m 200 608 l 178 1128 l 157 608 l 146 347 l 211 347 l 200 608 m 291 -192 q 245 -184 265 -192 q 211 -162 225 -176 q 190 -129 197 -148 q 182 -88 182 -110 q 232 0 182 -50 l 266 0 q 252 -27 257 -14 q 244 -53 248 -39 q 240 -81 240 -67 q 253 -121 240 -107 q 296 -135 267 -135 q 326 -131 312 -135 q 350 -122 339 -127 q 362 -116 357 -119 q 374 -109 368 -113 l 374 -157 q 353 -175 363 -168 q 327 -186 342 -181 q 291 -192 312 -192 z "},"ą":{"ha":279,"x_min":43,"x_max":372,"o":"m 304 0 l 217 0 l 203 225 l 143 225 l 130 0 l 43 0 l 130 1042 l 217 1042 l 304 0 m 199 296 l 174 825 l 148 296 l 199 296 m 289 -192 q 243 -184 263 -192 q 209 -162 223 -176 q 188 -129 195 -148 q 180 -88 180 -110 q 230 0 180 -50 l 264 0 q 250 -27 255 -14 q 242 -53 245 -39 q 238 -81 238 -67 q 251 -121 238 -107 q 294 -135 264 -135 q 323 -131 310 -135 q 348 -122 337 -127 q 360 -116 355 -119 q 372 -109 366 -113 l 372 -157 q 351 -175 361 -168 q 325 -186 340 -181 q 289 -192 310 -192 z "},"Ć":{"ha":347,"x_min":43,"x_max":336,"o":"m 336 1547 l 206 1265 l 141 1265 l 228 1547 l 336 1547 m 304 694 l 217 694 l 217 1063 q 213 1090 217 1080 q 203 1106 210 1101 q 190 1115 197 1112 q 174 1117 182 1117 q 158 1115 165 1117 q 144 1106 150 1112 q 134 1090 138 1101 q 130 1063 130 1080 l 130 109 q 131 89 130 100 q 136 68 132 78 q 149 51 140 58 q 174 43 157 43 q 199 51 190 43 q 212 68 208 58 q 216 89 216 78 q 217 109 217 100 l 217 564 l 304 564 l 304 109 q 302 79 304 100 q 288 35 300 58 q 249 -4 275 13 q 174 -22 222 -22 q 98 -4 125 -22 q 60 35 72 13 q 45 79 47 58 q 43 109 43 100 l 43 1063 q 55 1117 43 1095 q 85 1154 66 1140 q 127 1175 104 1168 q 174 1182 150 1182 q 222 1175 199 1182 q 264 1152 245 1167 q 293 1115 282 1137 q 304 1063 304 1093 l 304 694 z "},"ć":{"ha":347,"x_min":43,"x_max":337,"o":"m 337 1419 l 207 1137 l 142 1137 l 229 1419 l 337 1419 m 304 608 l 217 608 l 217 944 q 205 977 217 967 q 179 987 194 987 q 162 984 170 987 q 146 975 153 981 q 135 961 139 969 q 130 944 130 954 l 130 98 q 135 80 130 88 q 146 66 139 72 q 162 57 153 60 q 179 54 170 54 q 205 64 194 54 q 217 98 217 75 l 217 477 l 304 477 l 304 98 q 292 50 304 71 q 262 15 281 29 q 220 -6 244 1 q 172 -13 197 -13 q 125 -6 148 -13 q 83 15 102 1 q 54 49 65 28 q 43 98 43 70 l 43 944 q 55 992 43 971 q 84 1027 66 1013 q 126 1047 102 1040 q 174 1055 150 1055 q 222 1048 199 1055 q 263 1027 245 1041 q 293 992 281 1013 q 304 944 304 972 l 304 608 z "},"Ĉ":{"ha":347,"x_min":43,"x_max":304,"o":"m 223 1499 l 263 1265 l 194 1265 l 174 1426 l 153 1265 l 84 1265 l 124 1499 l 223 1499 m 304 694 l 217 694 l 217 1063 q 213 1090 217 1080 q 203 1106 210 1101 q 190 1115 197 1112 q 174 1117 182 1117 q 158 1115 165 1117 q 144 1106 150 1112 q 134 1090 138 1101 q 130 1063 130 1080 l 130 109 q 131 89 130 100 q 136 68 132 78 q 149 51 140 58 q 174 43 157 43 q 199 51 190 43 q 212 68 208 58 q 216 89 216 78 q 217 109 217 100 l 217 564 l 304 564 l 304 109 q 302 79 304 100 q 288 35 300 58 q 249 -4 275 13 q 174 -22 222 -22 q 98 -4 125 -22 q 60 35 72 13 q 45 79 47 58 q 43 109 43 100 l 43 1063 q 55 1117 43 1095 q 85 1154 66 1140 q 127 1175 104 1168 q 174 1182 150 1182 q 222 1175 199 1182 q 264 1152 245 1167 q 293 1115 282 1137 q 304 1063 304 1093 l 304 694 z "},"ĉ":{"ha":347,"x_min":43,"x_max":304,"o":"m 224 1372 l 264 1137 l 195 1137 l 174 1299 l 153 1137 l 85 1137 l 125 1372 l 224 1372 m 304 608 l 217 608 l 217 944 q 205 977 217 967 q 179 987 194 987 q 162 984 170 987 q 146 975 153 981 q 135 961 139 969 q 130 944 130 954 l 130 98 q 135 80 130 88 q 146 66 139 72 q 162 57 153 60 q 179 54 170 54 q 205 64 194 54 q 217 98 217 75 l 217 477 l 304 477 l 304 98 q 292 50 304 71 q 262 15 281 29 q 220 -6 244 1 q 172 -13 197 -13 q 125 -6 148 -13 q 83 15 102 1 q 54 49 65 28 q 43 98 43 70 l 43 944 q 55 992 43 971 q 84 1027 66 1013 q 126 1047 102 1040 q 174 1055 150 1055 q 222 1048 199 1055 q 263 1027 245 1041 q 293 992 281 1013 q 304 944 304 972 l 304 608 z "},"Ċ":{"ha":347,"x_min":43,"x_max":304,"o":"m 235 1390 l 235 1265 l 112 1265 l 112 1390 l 235 1390 m 304 694 l 217 694 l 217 1063 q 213 1090 217 1080 q 203 1106 210 1101 q 190 1115 197 1112 q 174 1117 182 1117 q 158 1115 165 1117 q 144 1106 150 1112 q 134 1090 138 1101 q 130 1063 130 1080 l 130 109 q 131 89 130 100 q 136 68 132 78 q 149 51 140 58 q 174 43 157 43 q 199 51 190 43 q 212 68 208 58 q 216 89 216 78 q 217 109 217 100 l 217 564 l 304 564 l 304 109 q 302 79 304 100 q 288 35 300 58 q 249 -4 275 13 q 174 -22 222 -22 q 98 -4 125 -22 q 60 35 72 13 q 45 79 47 58 q 43 109 43 100 l 43 1063 q 55 1117 43 1095 q 85 1154 66 1140 q 127 1175 104 1168 q 174 1182 150 1182 q 222 1175 199 1182 q 264 1152 245 1167 q 293 1115 282 1137 q 304 1063 304 1093 l 304 694 z "},"ċ":{"ha":347,"x_min":43,"x_max":304,"o":"m 236 1263 l 236 1137 l 113 1137 l 113 1263 l 236 1263 m 304 608 l 217 608 l 217 944 q 205 977 217 967 q 179 987 194 987 q 162 984 170 987 q 146 975 153 981 q 135 961 139 969 q 130 944 130 954 l 130 98 q 135 80 130 88 q 146 66 139 72 q 162 57 153 60 q 179 54 170 54 q 205 64 194 54 q 217 98 217 75 l 217 477 l 304 477 l 304 98 q 292 50 304 71 q 262 15 281 29 q 220 -6 244 1 q 172 -13 197 -13 q 125 -6 148 -13 q 83 15 102 1 q 54 49 65 28 q 43 98 43 70 l 43 944 q 55 992 43 971 q 84 1027 66 1013 q 126 1047 102 1040 q 174 1055 150 1055 q 222 1048 199 1055 q 263 1027 245 1041 q 293 992 281 1013 q 304 944 304 972 l 304 608 z "},"Č":{"ha":347,"x_min":43,"x_max":304,"o":"m 124 1265 l 85 1499 l 153 1499 l 173 1339 l 195 1499 l 263 1499 l 222 1265 l 124 1265 m 304 694 l 217 694 l 217 1063 q 213 1090 217 1080 q 203 1106 210 1101 q 190 1115 197 1112 q 174 1117 182 1117 q 158 1115 165 1117 q 144 1106 150 1112 q 134 1090 138 1101 q 130 1063 130 1080 l 130 109 q 131 89 130 100 q 136 68 132 78 q 149 51 140 58 q 174 43 157 43 q 199 51 190 43 q 212 68 208 58 q 216 89 216 78 q 217 109 217 100 l 217 564 l 304 564 l 304 109 q 302 79 304 100 q 288 35 300 58 q 249 -4 275 13 q 174 -22 222 -22 q 98 -4 125 -22 q 60 35 72 13 q 45 79 47 58 q 43 109 43 100 l 43 1063 q 55 1117 43 1095 q 85 1154 66 1140 q 127 1175 104 1168 q 174 1182 150 1182 q 222 1175 199 1182 q 264 1152 245 1167 q 293 1115 282 1137 q 304 1063 304 1093 l 304 694 z "},"č":{"ha":347,"x_min":43,"x_max":304,"o":"m 124 1137 l 85 1372 l 153 1372 l 173 1211 l 195 1372 l 263 1372 l 222 1137 l 124 1137 m 304 608 l 217 608 l 217 944 q 205 977 217 967 q 179 987 194 987 q 162 984 170 987 q 146 975 153 981 q 135 961 139 969 q 130 944 130 954 l 130 98 q 135 80 130 88 q 146 66 139 72 q 162 57 153 60 q 179 54 170 54 q 205 64 194 54 q 217 98 217 75 l 217 477 l 304 477 l 304 98 q 292 50 304 71 q 262 15 281 29 q 220 -6 244 1 q 172 -13 197 -13 q 125 -6 148 -13 q 83 15 102 1 q 54 49 65 28 q 43 98 43 70 l 43 944 q 55 992 43 971 q 84 1027 66 1013 q 126 1047 102 1040 q 174 1055 150 1055 q 222 1048 199 1055 q 263 1027 245 1041 q 293 992 281 1013 q 304 944 304 972 l 304 608 z "},"Ď":{"ha":347,"x_min":43,"x_max":304,"o":"m 124 1265 l 85 1499 l 153 1499 l 173 1339 l 195 1499 l 263 1499 l 222 1265 l 124 1265 m 217 1063 q 213 1088 217 1080 q 198 1101 208 1097 q 171 1106 188 1105 q 130 1107 155 1107 l 130 65 q 171 66 155 65 q 198 71 188 66 q 213 83 208 75 q 217 109 217 92 l 217 1063 m 304 109 q 289 46 304 68 q 250 14 274 24 q 194 2 225 3 q 130 0 163 0 l 43 0 l 43 1172 l 130 1172 q 194 1170 163 1172 q 250 1158 225 1168 q 289 1126 274 1148 q 304 1063 304 1104 l 304 109 z "},"ď":{"ha":347,"x_min":43,"x_max":515,"o":"m 515 1051 l 493 812 l 428 812 l 428 1051 l 515 1051 m 217 956 q 205 972 217 969 q 130 977 193 977 l 130 65 q 205 69 193 65 q 217 86 217 73 l 217 956 m 304 92 q 289 38 304 57 q 246 11 275 20 q 213 4 233 7 q 159 1 193 2 q 98 0 124 0 l 43 0 l 43 1042 q 99 1041 71 1042 q 157 1040 127 1041 q 245 1031 216 1039 q 289 1005 274 1023 q 304 954 304 987 l 304 92 z "},"Đ":{"ha":321,"x_min":-1,"x_max":286,"o":"m 170 601 l -1 601 l -1 672 l 170 672 l 170 601 m 194 1088 q 178 1112 194 1109 q 128 1115 163 1115 l 128 77 q 157 78 144 77 q 177 80 169 78 q 190 87 186 82 q 194 102 194 92 l 194 1088 m 286 102 q 276 63 286 81 q 250 30 267 44 q 212 8 234 16 q 164 0 189 0 l 37 0 l 37 1194 l 164 1194 q 211 1186 189 1194 q 249 1165 233 1179 q 276 1133 266 1152 q 286 1094 286 1115 l 286 102 z "},"đ":{"ha":300,"x_min":0,"x_max":265,"o":"m 154 509 l 0 509 l 0 583 l 154 583 l 154 509 m 175 949 q 163 965 175 962 q 128 969 151 969 l 128 69 q 163 73 151 69 q 175 90 175 77 l 175 949 m 265 92 q 250 38 265 57 q 206 11 235 20 q 135 1 177 3 q 37 0 92 0 l 37 1031 q 135 1030 92 1031 q 206 1021 177 1029 q 250 995 235 1013 q 265 943 265 977 l 265 92 z "},"Ē":{"ha":260,"x_min":30,"x_max":252,"o":"m 252 1265 l 30 1265 l 30 1336 l 252 1336 l 252 1265 m 239 1107 l 130 1107 l 130 651 l 217 651 l 217 586 l 130 586 l 130 65 l 239 65 l 239 0 l 43 0 l 43 1172 l 239 1172 l 239 1107 z "},"ē":{"ha":239,"x_min":19,"x_max":241,"o":"m 241 1134 l 19 1134 l 19 1205 l 241 1205 l 241 1134 m 217 977 l 130 977 l 130 586 l 217 586 l 217 521 l 130 521 l 130 65 l 217 65 l 217 0 l 43 0 l 43 1042 l 217 1042 l 217 977 z "},"ĕ":{"ha":239,"x_min":0,"x_max":260,"o":"m 132 1134 q 31 1170 62 1134 q 0 1286 0 1205 l 68 1286 q 73 1247 68 1261 q 86 1224 78 1232 q 105 1214 94 1217 q 130 1212 117 1212 q 155 1214 144 1212 q 175 1224 167 1217 q 188 1247 183 1232 q 192 1286 192 1261 l 260 1286 q 230 1170 260 1205 q 132 1134 199 1134 m 217 977 l 130 977 l 130 586 l 217 586 l 217 521 l 130 521 l 130 65 l 217 65 l 217 0 l 43 0 l 43 1042 l 217 1042 l 217 977 z "},"Ė":{"ha":260,"x_min":43,"x_max":239,"o":"m 203 1390 l 203 1265 l 79 1265 l 79 1390 l 203 1390 m 239 1107 l 130 1107 l 130 651 l 217 651 l 217 586 l 130 586 l 130 65 l 239 65 l 239 0 l 43 0 l 43 1172 l 239 1172 l 239 1107 z "},"ė":{"ha":239,"x_min":43,"x_max":217,"o":"m 192 1259 l 192 1134 l 68 1134 l 68 1259 l 192 1259 m 217 977 l 130 977 l 130 586 l 217 586 l 217 521 l 130 521 l 130 65 l 217 65 l 217 0 l 43 0 l 43 1042 l 217 1042 l 217 977 z "},"Ę":{"ha":264,"x_min":43,"x_max":337,"o":"m 239 1107 l 130 1107 l 130 651 l 217 651 l 217 586 l 130 586 l 130 65 l 239 65 l 239 0 l 43 0 l 43 1172 l 239 1172 l 239 1107 m 254 -192 q 208 -184 228 -192 q 174 -162 188 -176 q 153 -129 160 -148 q 145 -88 145 -110 q 195 0 145 -50 l 229 0 q 215 -27 220 -14 q 207 -53 210 -39 q 203 -81 203 -67 q 216 -121 203 -107 q 258 -135 229 -135 q 288 -131 275 -135 q 313 -122 302 -127 q 325 -116 319 -119 q 337 -109 331 -113 l 337 -157 q 315 -175 326 -168 q 290 -186 304 -181 q 254 -192 275 -192 z "},"ę":{"ha":252,"x_min":87,"x_max":319,"o":"m 260 977 l 174 977 l 174 586 l 260 586 l 260 521 l 174 521 l 174 65 l 260 65 l 260 0 l 87 0 l 87 1042 l 260 1042 l 260 977 m 236 -192 q 190 -184 210 -192 q 156 -162 170 -176 q 135 -129 142 -148 q 127 -88 127 -110 q 177 0 127 -50 l 211 0 q 197 -27 202 -14 q 189 -53 193 -39 q 185 -81 185 -67 q 198 -121 185 -107 q 241 -135 212 -135 q 271 -131 257 -135 q 295 -122 284 -127 q 308 -116 302 -119 q 319 -109 313 -113 l 319 -157 q 298 -175 309 -168 q 272 -186 287 -181 q 236 -192 257 -192 z "},"Ě":{"ha":260,"x_min":43,"x_max":239,"o":"m 92 1265 l 52 1499 l 120 1499 l 140 1339 l 162 1499 l 231 1499 l 190 1265 l 92 1265 m 239 1107 l 130 1107 l 130 651 l 217 651 l 217 586 l 130 586 l 130 65 l 239 65 l 239 0 l 43 0 l 43 1172 l 239 1172 l 239 1107 z "},"ě":{"ha":239,"x_min":41,"x_max":220,"o":"m 81 1134 l 41 1369 l 109 1369 l 130 1208 l 151 1369 l 220 1369 l 179 1134 l 81 1134 m 217 977 l 130 977 l 130 586 l 217 586 l 217 521 l 130 521 l 130 65 l 217 65 l 217 0 l 43 0 l 43 1042 l 217 1042 l 217 977 z "},"Ĝ":{"ha":347,"x_min":43,"x_max":304,"o":"m 223 1499 l 263 1265 l 194 1265 l 174 1426 l 153 1265 l 84 1265 l 124 1499 l 223 1499 m 304 694 l 217 694 l 217 1063 q 216 1081 217 1072 q 212 1098 216 1090 q 199 1112 208 1106 q 174 1117 190 1117 q 149 1112 157 1117 q 136 1098 140 1106 q 131 1081 132 1090 q 130 1063 130 1072 l 130 109 q 131 89 130 100 q 136 68 132 78 q 149 51 140 58 q 174 43 157 43 q 199 51 190 43 q 212 68 208 58 q 216 89 216 78 q 217 109 217 100 l 217 543 l 195 543 l 195 608 l 304 608 l 304 109 q 302 79 304 100 q 288 35 300 58 q 249 -4 275 13 q 174 -22 222 -22 q 98 -4 125 -22 q 60 35 72 13 q 45 79 47 58 q 43 109 43 100 l 43 1063 q 44 1080 43 1069 q 48 1104 45 1090 q 60 1131 52 1117 q 82 1156 68 1145 q 119 1175 96 1168 q 174 1182 141 1182 q 229 1175 206 1182 q 265 1156 251 1168 q 288 1131 279 1145 q 299 1104 296 1117 q 303 1080 302 1090 q 304 1063 304 1069 l 304 694 z "},"ĝ":{"ha":326,"x_min":43,"x_max":282,"o":"m 212 1381 l 252 1146 l 183 1146 l 163 1308 l 142 1146 l 73 1146 l 113 1381 l 212 1381 m 130 98 q 140 64 130 73 q 163 54 151 54 q 185 64 175 54 q 195 98 195 73 l 195 456 l 174 456 l 174 521 l 282 521 l 282 98 q 272 48 282 69 q 245 15 262 28 q 207 -5 228 1 q 163 -11 185 -11 q 119 -5 140 -11 q 81 15 98 1 q 54 48 64 28 q 43 98 43 69 l 43 955 q 54 1004 43 983 q 81 1038 64 1025 q 119 1057 98 1051 q 163 1063 140 1063 q 207 1057 185 1063 q 245 1038 228 1051 q 272 1004 262 1025 q 282 956 282 984 l 282 608 l 195 608 l 195 956 q 185 989 195 980 q 163 998 175 998 q 140 989 151 998 q 130 956 130 980 l 130 98 z "},"Ğ":{"ha":347,"x_min":43,"x_max":304,"o":"m 175 1265 q 74 1300 105 1265 q 43 1417 43 1336 l 112 1417 q 117 1378 112 1392 q 130 1355 121 1363 q 149 1345 138 1348 q 173 1343 160 1343 q 199 1345 187 1343 q 218 1355 210 1348 q 231 1378 227 1363 q 235 1417 235 1392 l 304 1417 q 273 1300 304 1336 q 175 1265 243 1265 m 304 694 l 217 694 l 217 1063 q 216 1081 217 1072 q 212 1098 216 1090 q 199 1112 208 1106 q 174 1117 190 1117 q 149 1112 157 1117 q 136 1098 140 1106 q 131 1081 132 1090 q 130 1063 130 1072 l 130 109 q 131 89 130 100 q 136 68 132 78 q 149 51 140 58 q 174 43 157 43 q 199 51 190 43 q 212 68 208 58 q 216 89 216 78 q 217 109 217 100 l 217 543 l 195 543 l 195 608 l 304 608 l 304 109 q 302 79 304 100 q 288 35 300 58 q 249 -4 275 13 q 174 -22 222 -22 q 98 -4 125 -22 q 60 35 72 13 q 45 79 47 58 q 43 109 43 100 l 43 1063 q 44 1080 43 1069 q 48 1104 45 1090 q 60 1131 52 1117 q 82 1156 68 1145 q 119 1175 96 1168 q 174 1182 141 1182 q 229 1175 206 1182 q 265 1156 251 1168 q 288 1131 279 1145 q 299 1104 296 1117 q 303 1080 302 1090 q 304 1063 304 1069 l 304 694 z "},"ğ":{"ha":326,"x_min":33,"x_max":293,"o":"m 164 1146 q 63 1182 94 1146 q 33 1298 33 1217 l 101 1298 q 106 1259 101 1274 q 119 1237 111 1244 q 138 1226 127 1229 q 162 1224 149 1224 q 188 1226 176 1224 q 208 1237 199 1229 q 220 1259 216 1244 q 224 1298 224 1274 l 293 1298 q 262 1182 293 1217 q 164 1146 232 1146 m 130 98 q 140 64 130 73 q 163 54 151 54 q 185 64 175 54 q 195 98 195 73 l 195 456 l 174 456 l 174 521 l 282 521 l 282 98 q 272 48 282 69 q 245 15 262 28 q 207 -5 228 1 q 163 -11 185 -11 q 119 -5 140 -11 q 81 15 98 1 q 54 48 64 28 q 43 98 43 69 l 43 955 q 54 1004 43 983 q 81 1038 64 1025 q 119 1057 98 1051 q 163 1063 140 1063 q 207 1057 185 1063 q 245 1038 228 1051 q 272 1004 262 1025 q 282 956 282 984 l 282 608 l 195 608 l 195 956 q 185 989 195 980 q 163 998 175 998 q 140 989 151 998 q 130 956 130 980 l 130 98 z "},"Ġ":{"ha":347,"x_min":43,"x_max":304,"o":"m 235 1390 l 235 1265 l 112 1265 l 112 1390 l 235 1390 m 304 694 l 217 694 l 217 1063 q 216 1081 217 1072 q 212 1098 216 1090 q 199 1112 208 1106 q 174 1117 190 1117 q 149 1112 157 1117 q 136 1098 140 1106 q 131 1081 132 1090 q 130 1063 130 1072 l 130 109 q 131 89 130 100 q 136 68 132 78 q 149 51 140 58 q 174 43 157 43 q 199 51 190 43 q 212 68 208 58 q 216 89 216 78 q 217 109 217 100 l 217 543 l 195 543 l 195 608 l 304 608 l 304 109 q 302 79 304 100 q 288 35 300 58 q 249 -4 275 13 q 174 -22 222 -22 q 98 -4 125 -22 q 60 35 72 13 q 45 79 47 58 q 43 109 43 100 l 43 1063 q 44 1080 43 1069 q 48 1104 45 1090 q 60 1131 52 1117 q 82 1156 68 1145 q 119 1175 96 1168 q 174 1182 141 1182 q 229 1175 206 1182 q 265 1156 251 1168 q 288 1131 279 1145 q 299 1104 296 1117 q 303 1080 302 1090 q 304 1063 304 1069 l 304 694 z "},"ġ":{"ha":326,"x_min":43,"x_max":282,"o":"m 224 1272 l 224 1146 l 101 1146 l 101 1272 l 224 1272 m 130 98 q 140 64 130 73 q 163 54 151 54 q 185 64 175 54 q 195 98 195 73 l 195 456 l 174 456 l 174 521 l 282 521 l 282 98 q 272 48 282 69 q 245 15 262 28 q 207 -5 228 1 q 163 -11 185 -11 q 119 -5 140 -11 q 81 15 98 1 q 54 48 64 28 q 43 98 43 69 l 43 955 q 54 1004 43 983 q 81 1038 64 1025 q 119 1057 98 1051 q 163 1063 140 1063 q 207 1057 185 1063 q 245 1038 228 1051 q 272 1004 262 1025 q 282 956 282 984 l 282 608 l 195 608 l 195 956 q 185 989 195 980 q 163 998 175 998 q 140 989 151 998 q 130 956 130 980 l 130 98 z "},"Ģ":{"ha":347,"x_min":43,"x_max":304,"o":"m 217 -104 l 195 -343 l 130 -343 l 130 -104 l 217 -104 m 304 694 l 217 694 l 217 1063 q 216 1081 217 1072 q 212 1098 216 1090 q 199 1112 208 1106 q 174 1117 190 1117 q 149 1112 157 1117 q 136 1098 140 1106 q 131 1081 132 1090 q 130 1063 130 1072 l 130 109 q 131 89 130 100 q 136 68 132 78 q 149 51 140 58 q 174 43 157 43 q 199 51 190 43 q 212 68 208 58 q 216 89 216 78 q 217 109 217 100 l 217 543 l 195 543 l 195 608 l 304 608 l 304 109 q 302 79 304 100 q 288 35 300 58 q 249 -4 275 13 q 174 -22 222 -22 q 98 -4 125 -22 q 60 35 72 13 q 45 79 47 58 q 43 109 43 100 l 43 1063 q 44 1080 43 1069 q 48 1104 45 1090 q 60 1131 52 1117 q 82 1156 68 1145 q 119 1175 96 1168 q 174 1182 141 1182 q 229 1175 206 1182 q 265 1156 251 1168 q 288 1131 279 1145 q 299 1104 296 1117 q 303 1080 302 1090 q 304 1063 304 1069 l 304 694 z "},"ģ":{"ha":284,"x_min":43,"x_max":282,"o":"m 130 98 q 140 64 130 73 q 163 54 151 54 q 185 64 175 54 q 195 98 195 73 l 195 456 l 174 456 l 174 521 l 282 521 l 282 98 q 272 48 282 69 q 245 15 262 28 q 207 -5 228 1 q 163 -11 185 -11 q 119 -5 140 -11 q 81 15 98 1 q 54 48 64 28 q 43 98 43 69 l 43 955 q 54 1004 43 983 q 81 1038 64 1025 q 119 1057 98 1051 q 163 1063 140 1063 q 207 1057 185 1063 q 245 1038 228 1051 q 272 1004 262 1025 q 282 956 282 984 l 282 608 l 195 608 l 195 956 q 185 989 195 980 q 163 998 175 998 q 140 989 151 998 q 130 956 130 980 l 130 98 m 88 1087 l 138 1331 l 196 1331 l 196 1087 l 88 1087 z "},"Ĥ":{"ha":347,"x_min":43,"x_max":304,"o":"m 223 1499 l 263 1265 l 194 1265 l 174 1426 l 153 1265 l 84 1265 l 124 1499 l 223 1499 m 130 629 l 217 629 l 217 1172 l 304 1172 l 304 0 l 217 0 l 217 564 l 130 564 l 130 0 l 43 0 l 43 1172 l 130 1172 l 130 629 z "},"ĥ":{"ha":347,"x_min":43,"x_max":304,"o":"m 223 1369 l 263 1134 l 194 1134 l 174 1295 l 153 1134 l 84 1134 l 124 1369 l 223 1369 m 217 1042 l 304 1042 l 304 0 l 217 0 l 217 506 l 130 506 l 130 0 l 43 0 l 43 1042 l 130 1042 l 130 574 l 217 574 l 217 1042 z "},"Ħ":{"ha":347,"x_min":43,"x_max":304,"o":"m 130 629 l 217 629 l 217 888 l 130 888 l 130 629 m 217 960 l 217 1172 l 304 1172 l 304 0 l 217 0 l 217 564 l 130 564 l 130 0 l 43 0 l 43 1172 l 130 1172 l 130 960 l 217 960 z "},"ħ":{"ha":289,"x_min":43,"x_max":304,"o":"m 217 1042 l 304 1042 l 304 0 l 217 0 l 217 506 l 130 506 l 130 0 l 43 0 l 43 1042 l 130 1042 l 130 883 l 217 883 l 217 1042 m 130 812 l 130 574 l 217 574 l 217 812 l 130 812 z "},"Ĩ":{"ha":195,"x_min":-31,"x_max":227,"o":"m -31 1265 q -27 1308 -31 1288 q -15 1342 -24 1327 q 6 1364 -7 1356 q 39 1373 20 1373 q 69 1368 56 1373 q 94 1358 81 1364 q 120 1348 106 1352 q 152 1343 134 1343 q 163 1348 159 1343 q 169 1358 167 1352 q 173 1373 172 1364 l 227 1373 q 225 1344 227 1357 q 220 1319 224 1331 q 198 1281 213 1298 q 152 1265 182 1265 q 120 1270 135 1265 q 93 1280 106 1274 q 66 1290 79 1285 q 40 1295 54 1295 q 30 1290 34 1295 q 24 1280 26 1286 q 22 1265 22 1274 l -31 1265 m 141 1172 l 141 0 l 54 0 l 54 1172 l 141 1172 z "},"ĩ":{"ha":198,"x_min":-30,"x_max":228,"o":"m -30 1134 q -26 1177 -30 1157 q -14 1211 -22 1196 q 8 1234 -5 1225 q 41 1242 21 1242 q 70 1237 58 1242 q 95 1227 83 1233 q 121 1217 107 1221 q 153 1213 135 1213 q 164 1217 160 1213 q 170 1227 168 1221 q 174 1242 174 1233 l 228 1242 q 227 1213 228 1226 q 221 1188 225 1200 q 199 1151 214 1167 q 153 1134 184 1134 q 122 1139 136 1134 q 94 1149 107 1143 q 68 1159 81 1154 q 41 1164 55 1164 q 32 1159 35 1164 q 26 1149 28 1155 q 24 1134 24 1143 l -30 1134 m 144 1031 l 144 0 l 54 0 l 54 1031 l 144 1031 z "},"Ī":{"ha":195,"x_min":-14,"x_max":209,"o":"m 208 1265 l -14 1265 l -14 1336 l 208 1336 l 208 1265 m 141 1172 l 141 0 l 54 0 l 54 1172 l 141 1172 z "},"ī":{"ha":198,"x_min":-12,"x_max":210,"o":"m 210 1134 l -12 1134 l -12 1205 l 210 1205 l 210 1134 m 144 1031 l 144 0 l 54 0 l 54 1031 l 144 1031 z "},"Ĭ":{"ha":195,"x_min":-33,"x_max":228,"o":"m 99 1265 q -2 1300 29 1265 q -33 1417 -33 1336 l 36 1417 q 41 1378 36 1392 q 54 1355 45 1363 q 73 1345 62 1348 q 97 1343 84 1343 q 123 1345 111 1343 q 142 1355 134 1348 q 155 1378 151 1363 q 159 1417 159 1392 l 228 1417 q 197 1300 228 1336 q 99 1265 167 1265 m 141 1172 l 141 0 l 54 0 l 54 1172 l 141 1172 z "},"ĭ":{"ha":198,"x_min":-31,"x_max":229,"o":"m 100 1134 q 0 1170 31 1134 q -31 1286 -31 1205 l 37 1286 q 42 1247 37 1261 q 55 1224 47 1232 q 74 1214 63 1217 q 98 1212 85 1212 q 124 1214 113 1212 q 144 1224 136 1217 q 156 1247 152 1232 q 161 1286 161 1261 l 229 1286 q 199 1170 229 1205 q 100 1134 168 1134 m 144 1031 l 144 0 l 54 0 l 54 1031 l 144 1031 z "},"Į":{"ha":168,"x_min":43,"x_max":235,"o":"m 141 1172 l 141 0 l 54 0 l 54 1172 l 141 1172 m 151 -190 q 105 -182 125 -190 q 72 -160 85 -174 q 50 -127 58 -146 q 43 -86 43 -108 q 92 2 43 -47 l 126 2 q 113 -25 117 -12 q 104 -51 108 -37 q 100 -79 100 -65 q 114 -119 100 -105 q 156 -133 127 -133 q 186 -129 172 -133 q 210 -120 199 -125 q 223 -114 217 -117 q 235 -106 229 -111 l 235 -155 q 213 -173 224 -166 q 187 -184 202 -179 q 151 -190 172 -190 z "},"į":{"ha":165,"x_min":35,"x_max":227,"o":"m 141 1042 l 141 0 l 54 0 l 54 1042 l 141 1042 m 143 -192 q 97 -184 117 -192 q 63 -162 77 -176 q 42 -129 50 -148 q 35 -88 35 -110 q 84 0 35 -50 l 118 0 q 104 -27 109 -14 q 96 -53 100 -39 q 92 -81 92 -67 q 105 -121 92 -107 q 148 -135 119 -135 q 178 -131 164 -135 q 202 -122 191 -127 q 215 -116 209 -119 q 227 -109 220 -113 l 227 -157 q 205 -175 216 -168 q 179 -186 194 -181 q 143 -192 164 -192 z "},"İ":{"ha":195,"x_min":36,"x_max":159,"o":"m 159 1390 l 159 1265 l 36 1265 l 36 1390 l 159 1390 m 141 1172 l 141 0 l 54 0 l 54 1172 l 141 1172 z "},"ı":{"ha":198,"x_min":54,"x_max":144,"o":"m 144 1031 l 144 0 l 54 0 l 54 1031 l 144 1031 z "},"Ĵ":{"ha":347,"x_min":43,"x_max":350,"o":"m 310 1499 l 350 1265 l 281 1265 l 260 1426 l 239 1265 l 171 1265 l 211 1499 l 310 1499 m 304 109 q 288 43 302 72 q 272 19 281 31 q 249 -2 262 7 q 217 -16 235 -11 q 174 -22 198 -22 q 131 -16 149 -22 q 98 -2 112 -11 q 75 19 85 7 q 60 43 66 31 q 43 109 45 72 l 43 564 l 130 564 l 130 109 q 131 89 130 100 q 136 68 132 78 q 149 51 140 58 q 174 43 157 43 q 199 51 190 43 q 212 68 208 58 q 216 89 216 78 q 217 109 217 100 l 217 1172 l 304 1172 l 304 109 z "},"ĵ":{"ha":326,"x_min":43,"x_max":328,"o":"m 288 1359 l 328 1124 l 259 1124 l 239 1286 l 218 1124 l 149 1124 l 189 1359 l 288 1359 m 282 98 q 272 48 282 69 q 245 15 262 28 q 207 -5 228 1 q 163 -11 185 -11 q 119 -5 140 -11 q 81 15 98 1 q 54 48 64 28 q 43 98 43 69 l 43 477 l 130 477 l 130 98 q 140 64 130 73 q 163 54 151 54 q 185 64 175 54 q 195 98 195 73 l 195 1042 l 282 1042 l 282 98 z "},"Ķ":{"ha":326,"x_min":43,"x_max":304,"o":"m 217 -83 l 195 -321 l 130 -321 l 130 -83 l 217 -83 m 304 0 l 217 0 l 130 586 l 130 0 l 43 0 l 43 1172 l 130 1172 l 130 629 l 217 1172 l 304 1172 l 217 673 l 208 608 l 217 543 l 304 0 z "},"ķ":{"ha":304,"x_min":43,"x_max":282,"o":"m 206 -83 l 184 -321 l 119 -321 l 119 -83 l 206 -83 m 282 0 l 195 0 l 130 477 l 130 0 l 43 0 l 43 1042 l 130 1042 l 130 564 l 195 1042 l 282 1042 l 207 521 l 282 0 z "},"ĸ":{"ha":286,"x_min":43,"x_max":282,"o":"m 282 0 l 195 0 l 130 477 l 130 0 l 43 0 l 43 1042 l 130 1042 l 130 564 l 195 1042 l 282 1042 l 207 521 l 282 0 z "},"Ĺ":{"ha":260,"x_min":43,"x_max":250,"o":"m 250 1547 l 119 1265 l 54 1265 l 141 1547 l 250 1547 m 130 1172 l 130 65 l 217 65 l 217 0 l 43 0 l 43 1172 l 130 1172 z "},"ĺ":{"ha":217,"x_min":43,"x_max":250,"o":"m 250 1416 l 119 1134 l 54 1134 l 141 1416 l 250 1416 m 130 1042 l 130 65 l 217 65 l 217 0 l 43 0 l 43 1042 l 130 1042 z "},"Ļ":{"ha":260,"x_min":43,"x_max":217,"o":"m 174 -83 l 152 -321 l 87 -321 l 87 -83 l 174 -83 m 130 1172 l 130 65 l 217 65 l 217 0 l 43 0 l 43 1172 l 130 1172 z "},"ļ":{"ha":217,"x_min":43,"x_max":217,"o":"m 174 -83 l 152 -321 l 87 -321 l 87 -83 l 174 -83 m 130 1042 l 130 65 l 217 65 l 217 0 l 43 0 l 43 1042 l 130 1042 z "},"Ľ":{"ha":260,"x_min":43,"x_max":428,"o":"m 428 1182 l 406 943 l 341 943 l 341 1182 l 428 1182 m 130 1172 l 130 65 l 217 65 l 217 0 l 43 0 l 43 1172 l 130 1172 z "},"ľ":{"ha":217,"x_min":43,"x_max":298,"o":"m 298 1051 l 276 812 l 211 812 l 211 1051 l 298 1051 m 130 1042 l 130 65 l 217 65 l 217 0 l 43 0 l 43 1042 l 130 1042 z "},"Ł":{"ha":235,"x_min":-10,"x_max":237,"o":"m 140 1194 l 140 617 l 237 637 l 237 557 l 140 538 l 140 75 l 237 75 l 237 0 l 49 0 l 49 520 l -10 509 l -10 588 l 49 600 l 49 1194 l 140 1194 z "},"ł":{"ha":212,"x_min":-6,"x_max":212,"o":"m 126 1031 l 126 564 l 212 584 l 212 505 l 126 486 l 126 68 l 212 68 l 212 0 l 37 0 l 37 465 l -6 456 l -6 535 l 37 545 l 37 1031 l 126 1031 z "},"Ń":{"ha":347,"x_min":43,"x_max":336,"o":"m 336 1547 l 206 1265 l 141 1265 l 228 1547 l 336 1547 m 304 0 l 217 0 l 109 868 l 109 0 l 43 0 l 43 1172 l 130 1172 l 239 304 l 239 1172 l 304 1172 l 304 0 z "},"ń":{"ha":347,"x_min":43,"x_max":336,"o":"m 336 1416 l 206 1134 l 141 1134 l 228 1416 l 336 1416 m 304 0 l 239 0 l 119 608 l 119 0 l 43 0 l 43 1042 l 109 1042 l 229 412 l 229 1042 l 304 1042 l 304 0 z "},"Ņ":{"ha":347,"x_min":43,"x_max":304,"o":"m 217 -83 l 195 -321 l 130 -321 l 130 -83 l 217 -83 m 304 0 l 217 0 l 109 868 l 109 0 l 43 0 l 43 1172 l 130 1172 l 239 304 l 239 1172 l 304 1172 l 304 0 z "},"ņ":{"ha":347,"x_min":43,"x_max":304,"o":"m 217 -83 l 195 -321 l 130 -321 l 130 -83 l 217 -83 m 304 0 l 239 0 l 119 608 l 119 0 l 43 0 l 43 1042 l 109 1042 l 229 412 l 229 1042 l 304 1042 l 304 0 z "},"Ň":{"ha":347,"x_min":43,"x_max":304,"o":"m 124 1265 l 85 1499 l 153 1499 l 173 1339 l 195 1499 l 263 1499 l 222 1265 l 124 1265 m 304 0 l 217 0 l 109 868 l 109 0 l 43 0 l 43 1172 l 130 1172 l 239 304 l 239 1172 l 304 1172 l 304 0 z "},"ň":{"ha":347,"x_min":43,"x_max":304,"o":"m 124 1134 l 85 1369 l 153 1369 l 173 1208 l 195 1369 l 263 1369 l 222 1134 l 124 1134 m 304 0 l 239 0 l 119 608 l 119 0 l 43 0 l 43 1042 l 109 1042 l 229 412 l 229 1042 l 304 1042 l 304 0 z "},"Ŋ":{"ha":325,"x_min":37,"x_max":288,"o":"m 288 -222 q 278 -263 288 -244 q 252 -295 269 -281 q 213 -316 235 -309 q 166 -324 191 -324 q 118 -316 140 -324 q 78 -295 95 -309 q 51 -263 60 -281 q 41 -224 41 -245 l 41 -47 l 132 -47 l 132 -224 q 142 -245 132 -239 q 166 -251 152 -251 q 188 -243 179 -251 q 196 -224 196 -235 l 196 259 l 288 259 l 288 -222 m 288 0 l 196 0 l 128 666 l 128 0 l 37 0 l 37 1194 l 127 1194 l 202 500 l 202 1194 l 288 1194 l 288 0 z "},"ŋ":{"ha":306,"x_min":37,"x_max":268,"o":"m 268 0 l 186 0 l 118 580 l 126 0 l 37 0 l 37 1031 l 119 1031 l 191 432 l 186 1031 l 268 1031 l 268 0 m 268 -239 q 258 -274 268 -258 q 233 -302 249 -290 q 197 -321 218 -314 q 153 -328 176 -328 q 110 -321 131 -328 q 74 -302 90 -314 q 48 -274 58 -290 q 39 -239 39 -258 l 39 -62 l 127 -62 l 128 -239 q 136 -253 128 -248 q 153 -258 144 -258 q 170 -253 163 -258 q 176 -239 176 -248 l 176 247 l 268 247 l 268 -239 z "},"Ō":{"ha":347,"x_min":43,"x_max":304,"o":"m 284 1265 l 62 1265 l 62 1336 l 284 1336 l 284 1265 m 304 109 q 302 79 304 100 q 288 35 300 58 q 249 -4 275 13 q 174 -22 222 -22 q 98 -4 125 -22 q 60 35 72 13 q 45 79 47 58 q 43 109 43 100 l 43 1063 q 44 1080 43 1069 q 48 1104 45 1090 q 60 1131 52 1117 q 82 1156 68 1145 q 119 1175 96 1168 q 174 1182 141 1182 q 229 1175 206 1182 q 265 1156 251 1168 q 288 1131 279 1145 q 299 1104 296 1117 q 303 1080 302 1090 q 304 1063 304 1069 l 304 109 m 130 109 q 131 89 130 100 q 136 68 132 78 q 149 51 140 58 q 174 43 157 43 q 199 51 190 43 q 212 68 208 58 q 216 89 216 78 q 217 109 217 100 l 217 1063 q 216 1081 217 1072 q 212 1098 216 1090 q 199 1112 208 1106 q 174 1117 190 1117 q 149 1112 157 1117 q 136 1098 140 1106 q 131 1081 132 1090 q 130 1063 130 1072 l 130 109 z "},"ō":{"ha":347,"x_min":43,"x_max":304,"o":"m 291 1134 l 69 1134 l 69 1205 l 291 1205 l 291 1134 m 304 98 q 293 48 304 69 q 265 14 283 28 q 225 -6 248 1 q 179 -12 203 -12 q 130 -5 154 -12 q 86 16 105 2 q 55 51 67 30 q 43 98 43 71 l 43 944 q 55 990 43 970 q 86 1023 67 1010 q 130 1044 106 1037 q 180 1051 155 1051 q 226 1045 203 1051 q 266 1025 248 1038 q 293 991 283 1012 q 304 944 304 971 l 304 98 m 217 944 q 206 977 217 967 q 180 987 195 987 q 162 984 171 987 q 146 975 153 981 q 135 961 139 969 q 130 944 130 954 l 130 98 q 135 80 130 88 q 146 66 139 72 q 162 58 153 61 q 179 55 170 55 q 205 65 194 55 q 217 98 217 75 l 217 944 z "},"Ŏ":{"ha":347,"x_min":43,"x_max":304,"o":"m 175 1265 q 74 1300 105 1265 q 43 1417 43 1336 l 112 1417 q 117 1378 112 1392 q 130 1355 121 1363 q 149 1345 138 1348 q 173 1343 160 1343 q 199 1345 187 1343 q 218 1355 210 1348 q 231 1378 227 1363 q 235 1417 235 1392 l 304 1417 q 273 1300 304 1336 q 175 1265 243 1265 m 304 109 q 302 79 304 100 q 288 35 300 58 q 249 -4 275 13 q 174 -22 222 -22 q 98 -4 125 -22 q 60 35 72 13 q 45 79 47 58 q 43 109 43 100 l 43 1063 q 44 1080 43 1069 q 48 1104 45 1090 q 60 1131 52 1117 q 82 1156 68 1145 q 119 1175 96 1168 q 174 1182 141 1182 q 229 1175 206 1182 q 265 1156 251 1168 q 288 1131 279 1145 q 299 1104 296 1117 q 303 1080 302 1090 q 304 1063 304 1069 l 304 109 m 130 109 q 131 89 130 100 q 136 68 132 78 q 149 51 140 58 q 174 43 157 43 q 199 51 190 43 q 212 68 208 58 q 216 89 216 78 q 217 109 217 100 l 217 1063 q 216 1081 217 1072 q 212 1098 216 1090 q 199 1112 208 1106 q 174 1117 190 1117 q 149 1112 157 1117 q 136 1098 140 1106 q 131 1081 132 1090 q 130 1063 130 1072 l 130 109 z "},"ŏ":{"ha":347,"x_min":43,"x_max":310,"o":"m 181 1134 q 80 1170 111 1134 q 50 1286 50 1205 l 118 1286 q 123 1247 118 1261 q 136 1224 127 1232 q 155 1214 144 1217 q 179 1212 166 1212 q 205 1214 193 1212 q 224 1224 216 1217 q 237 1247 233 1232 q 241 1286 241 1261 l 310 1286 q 279 1170 310 1205 q 181 1134 249 1134 m 304 98 q 293 48 304 69 q 265 14 283 28 q 225 -6 248 1 q 179 -12 203 -12 q 130 -5 154 -12 q 86 16 105 2 q 55 51 67 30 q 43 98 43 71 l 43 944 q 55 990 43 970 q 86 1023 67 1010 q 130 1044 106 1037 q 180 1051 155 1051 q 226 1045 203 1051 q 266 1025 248 1038 q 293 991 283 1012 q 304 944 304 971 l 304 98 m 217 944 q 206 977 217 967 q 180 987 195 987 q 162 984 171 987 q 146 975 153 981 q 135 961 139 969 q 130 944 130 954 l 130 98 q 135 80 130 88 q 146 66 139 72 q 162 58 153 61 q 179 55 170 55 q 205 65 194 55 q 217 98 217 75 l 217 944 z "},"Ő":{"ha":347,"x_min":43,"x_max":421,"o":"m 288 1543 l 159 1265 l 90 1265 l 180 1543 l 288 1543 m 421 1543 l 258 1265 l 189 1265 l 314 1543 l 421 1543 m 304 109 q 302 79 304 100 q 288 35 300 58 q 249 -4 275 13 q 174 -22 222 -22 q 98 -4 125 -22 q 60 35 72 13 q 45 79 47 58 q 43 109 43 100 l 43 1063 q 44 1080 43 1069 q 48 1104 45 1090 q 60 1131 52 1117 q 82 1156 68 1145 q 119 1175 96 1168 q 174 1182 141 1182 q 229 1175 206 1182 q 265 1156 251 1168 q 288 1131 279 1145 q 299 1104 296 1117 q 303 1080 302 1090 q 304 1063 304 1069 l 304 109 m 130 109 q 131 89 130 100 q 136 68 132 78 q 149 51 140 58 q 174 43 157 43 q 199 51 190 43 q 212 68 208 58 q 216 89 216 78 q 217 109 217 100 l 217 1063 q 216 1081 217 1072 q 212 1098 216 1090 q 199 1112 208 1106 q 174 1117 190 1117 q 149 1112 157 1117 q 136 1098 140 1106 q 131 1081 132 1090 q 130 1063 130 1072 l 130 109 z "},"ő":{"ha":347,"x_min":43,"x_max":427,"o":"m 293 1412 l 164 1134 l 96 1134 l 186 1412 l 293 1412 m 427 1412 l 263 1134 l 195 1134 l 319 1412 l 427 1412 m 304 98 q 293 48 304 69 q 265 14 283 28 q 225 -6 248 1 q 179 -12 203 -12 q 130 -5 154 -12 q 86 16 105 2 q 55 51 67 30 q 43 98 43 71 l 43 944 q 55 990 43 970 q 86 1023 67 1010 q 130 1044 106 1037 q 180 1051 155 1051 q 226 1045 203 1051 q 266 1025 248 1038 q 293 991 283 1012 q 304 944 304 971 l 304 98 m 217 944 q 206 977 217 967 q 180 987 195 987 q 162 984 171 987 q 146 975 153 981 q 135 961 139 969 q 130 944 130 954 l 130 98 q 135 80 130 88 q 146 66 139 72 q 162 58 153 61 q 179 55 170 55 q 205 65 194 55 q 217 98 217 75 l 217 944 z "},"Œ":{"ha":409,"x_min":35,"x_max":404,"o":"m 35 1110 q 45 1149 35 1131 q 72 1181 55 1167 q 110 1202 88 1194 q 157 1210 132 1210 q 222 1194 193 1210 l 404 1194 l 404 1115 l 281 1115 l 281 675 l 372 675 l 372 594 l 281 594 l 281 76 l 404 76 l 404 0 l 220 0 q 189 -10 204 -7 q 157 -14 174 -14 q 110 -6 132 -14 q 72 15 88 1 q 45 46 55 28 q 35 84 35 64 l 35 1110 m 126 86 q 135 68 126 76 q 157 60 143 60 q 180 68 171 60 q 189 86 189 76 l 189 1111 q 179 1131 189 1122 q 157 1139 170 1139 q 135 1131 143 1139 q 126 1111 126 1122 l 126 86 z "},"œ":{"ha":399,"x_min":35,"x_max":389,"o":"m 389 969 l 275 969 l 275 582 l 360 582 l 360 510 l 275 510 l 275 68 l 389 68 l 389 0 l 214 0 q 186 -10 202 -7 q 156 -14 172 -14 q 109 -6 131 -14 q 71 16 87 2 q 45 50 54 31 q 35 92 35 69 l 35 943 q 45 983 35 964 q 71 1017 54 1002 q 109 1039 87 1031 q 156 1048 131 1048 q 220 1031 191 1048 l 389 1031 l 389 969 m 181 931 q 180 951 181 941 q 177 967 180 960 q 170 979 174 975 q 156 983 165 983 q 133 967 138 983 q 128 931 128 951 l 128 102 q 129 86 128 95 q 131 70 129 77 q 139 58 134 62 q 156 53 145 53 q 174 59 167 53 q 181 74 181 65 l 181 931 z "},"Ŕ":{"ha":347,"x_min":43,"x_max":304,"o":"m 250 1547 l 119 1265 l 54 1265 l 141 1547 l 250 1547 m 304 694 q 288 627 304 646 q 239 608 271 608 q 267 600 255 608 q 288 581 279 593 q 300 553 296 568 q 304 521 304 537 l 304 0 l 217 0 l 217 543 q 210 568 217 559 q 190 581 202 576 q 162 585 178 585 q 130 586 146 586 l 130 0 l 43 0 l 43 1172 l 130 1172 q 194 1170 163 1172 q 250 1158 225 1168 q 289 1126 274 1148 q 304 1063 304 1104 l 304 694 m 217 1063 q 213 1088 217 1080 q 198 1101 208 1097 q 171 1106 188 1105 q 130 1107 155 1107 l 130 629 q 162 630 146 629 q 190 635 178 631 q 210 648 202 639 q 217 673 217 656 l 217 1063 z "},"ŕ":{"ha":326,"x_min":43,"x_max":326,"o":"m 326 1416 l 195 1134 l 130 1134 l 217 1416 l 326 1416 m 282 608 q 266 557 282 575 q 217 532 250 540 q 266 506 250 524 q 282 456 282 488 l 282 0 l 195 0 l 195 456 q 191 481 195 472 q 179 494 187 490 q 159 498 171 498 q 130 499 146 499 l 130 0 l 43 0 l 43 1042 l 141 1042 q 217 1035 185 1042 q 265 1009 248 1027 q 282 955 282 991 l 282 608 m 195 933 q 191 958 195 949 q 179 971 187 967 q 159 976 171 975 q 130 977 146 977 l 130 564 q 159 565 146 564 q 179 570 171 566 q 191 583 187 574 q 195 608 195 591 l 195 933 z "},"Ŗ":{"ha":347,"x_min":43,"x_max":304,"o":"m 217 -83 l 195 -321 l 130 -321 l 130 -83 l 217 -83 m 304 694 q 288 627 304 646 q 239 608 271 608 q 267 600 255 608 q 288 581 279 593 q 300 553 296 568 q 304 521 304 537 l 304 0 l 217 0 l 217 543 q 210 568 217 559 q 190 581 202 576 q 162 585 178 585 q 130 586 146 586 l 130 0 l 43 0 l 43 1172 l 130 1172 q 194 1170 163 1172 q 250 1158 225 1168 q 289 1126 274 1148 q 304 1063 304 1104 l 304 694 m 217 1063 q 213 1088 217 1080 q 198 1101 208 1097 q 171 1106 188 1105 q 130 1107 155 1107 l 130 629 q 162 630 146 629 q 190 635 178 631 q 210 648 202 639 q 217 673 217 656 l 217 1063 z "},"ŗ":{"ha":326,"x_min":43,"x_max":282,"o":"m 206 -83 l 184 -321 l 119 -321 l 119 -83 l 206 -83 m 282 608 q 266 557 282 575 q 217 532 250 540 q 266 506 250 524 q 282 456 282 488 l 282 0 l 195 0 l 195 456 q 191 481 195 472 q 179 494 187 490 q 159 498 171 498 q 130 499 146 499 l 130 0 l 43 0 l 43 1042 l 141 1042 q 217 1035 185 1042 q 265 1009 248 1027 q 282 955 282 991 l 282 608 m 195 933 q 191 958 195 949 q 179 971 187 967 q 159 976 171 975 q 130 977 146 977 l 130 564 q 159 565 146 564 q 179 570 171 566 q 191 583 187 574 q 195 608 195 591 l 195 933 z "},"Ř":{"ha":347,"x_min":-3,"x_max":304,"o":"m 37 1265 l -2 1499 l 66 1499 l 86 1339 l 108 1499 l 176 1499 l 136 1265 l 37 1265 m 304 694 q 288 627 304 646 q 239 608 271 608 q 267 600 255 608 q 288 581 279 593 q 300 553 296 568 q 304 521 304 537 l 304 0 l 217 0 l 217 543 q 210 568 217 559 q 190 581 202 576 q 162 585 178 585 q 130 586 146 586 l 130 0 l 43 0 l 43 1172 l 130 1172 q 194 1170 163 1172 q 250 1158 225 1168 q 289 1126 274 1148 q 304 1063 304 1104 l 304 694 m 217 1063 q 213 1088 217 1080 q 198 1101 208 1097 q 171 1106 188 1105 q 130 1107 155 1107 l 130 629 q 162 630 146 629 q 190 635 178 631 q 210 648 202 639 q 217 673 217 656 l 217 1063 z "},"ř":{"ha":326,"x_min":43,"x_max":282,"o":"m 113 1134 l 74 1369 l 142 1369 l 162 1208 l 184 1369 l 252 1369 l 212 1134 l 113 1134 m 282 608 q 266 557 282 575 q 217 532 250 540 q 266 506 250 524 q 282 456 282 488 l 282 0 l 195 0 l 195 456 q 191 481 195 472 q 179 494 187 490 q 159 498 171 498 q 130 499 146 499 l 130 0 l 43 0 l 43 1042 l 141 1042 q 217 1035 185 1042 q 265 1009 248 1027 q 282 955 282 991 l 282 608 m 195 933 q 191 958 195 949 q 179 971 187 967 q 159 976 171 975 q 130 977 146 977 l 130 564 q 159 565 146 564 q 179 570 171 566 q 191 583 187 574 q 195 608 195 591 l 195 933 z "},"Ś":{"ha":304,"x_min":22,"x_max":315,"o":"m 315 1547 l 184 1265 l 119 1265 l 206 1547 l 315 1547 m 195 286 q 188 409 195 357 q 168 499 180 460 q 140 566 156 537 q 109 619 125 594 q 77 669 92 644 q 49 726 61 694 q 29 800 37 758 q 22 900 22 842 l 22 1063 q 27 1100 22 1080 q 46 1139 32 1121 q 86 1170 60 1157 q 152 1182 111 1182 q 218 1170 193 1182 q 258 1139 243 1157 q 277 1100 272 1121 q 282 1063 282 1080 l 282 760 l 195 760 l 195 1063 q 192 1090 195 1080 q 182 1106 188 1101 q 168 1115 176 1112 q 152 1117 160 1117 q 136 1115 144 1117 q 122 1106 128 1112 q 112 1090 116 1101 q 109 1063 109 1080 l 109 931 q 121 803 109 854 q 154 713 134 751 q 195 644 173 675 q 237 576 218 612 q 269 492 256 540 q 282 373 282 444 l 282 109 q 280 79 282 100 q 266 35 278 58 q 227 -4 254 13 q 152 -22 201 -22 q 77 -4 103 -22 q 38 35 50 13 q 24 79 26 58 q 22 109 22 100 l 22 499 l 109 499 l 109 109 q 109 89 109 100 q 114 68 110 78 q 127 51 118 58 q 152 43 136 43 q 177 51 168 43 q 190 68 186 58 q 195 89 194 78 q 195 109 195 100 l 195 286 z "},"ś":{"ha":326,"x_min":43,"x_max":326,"o":"m 326 1417 l 195 1135 l 130 1135 l 217 1417 l 326 1417 m 282 673 l 195 673 l 195 944 q 185 978 195 968 q 163 987 175 987 q 140 978 151 987 q 130 944 130 968 q 137 810 130 871 q 155 698 144 749 q 179 604 165 646 q 206 526 193 562 q 230 462 217 498 q 255 374 243 425 q 274 256 267 323 q 282 98 282 188 q 272 48 282 69 q 245 15 262 28 q 207 -5 228 1 q 163 -11 185 -11 q 119 -5 140 -11 q 81 15 98 1 q 54 48 64 28 q 43 98 43 69 l 43 369 l 130 369 l 130 98 q 140 64 130 73 q 163 54 151 54 q 185 64 175 54 q 195 98 195 73 q 187 251 195 185 q 165 368 178 317 q 137 456 153 418 q 109 526 122 494 q 84 597 96 557 q 63 688 73 637 q 49 803 54 739 q 43 944 43 866 q 54 993 43 972 q 81 1026 64 1013 q 119 1046 98 1040 q 163 1053 140 1053 q 207 1046 185 1053 q 245 1026 228 1040 q 272 993 262 1013 q 282 944 282 972 l 282 673 z "},"Ŝ":{"ha":304,"x_min":22,"x_max":282,"o":"m 201 1499 l 241 1265 l 172 1265 l 152 1426 l 131 1265 l 62 1265 l 102 1499 l 201 1499 m 195 286 q 188 409 195 357 q 168 499 180 460 q 140 566 156 537 q 109 619 125 594 q 77 669 92 644 q 49 726 61 694 q 29 800 37 758 q 22 900 22 842 l 22 1063 q 27 1100 22 1080 q 46 1139 32 1121 q 86 1170 60 1157 q 152 1182 111 1182 q 218 1170 193 1182 q 258 1139 243 1157 q 277 1100 272 1121 q 282 1063 282 1080 l 282 760 l 195 760 l 195 1063 q 192 1090 195 1080 q 182 1106 188 1101 q 168 1115 176 1112 q 152 1117 160 1117 q 136 1115 144 1117 q 122 1106 128 1112 q 112 1090 116 1101 q 109 1063 109 1080 l 109 931 q 121 803 109 854 q 154 713 134 751 q 195 644 173 675 q 237 576 218 612 q 269 492 256 540 q 282 373 282 444 l 282 109 q 280 79 282 100 q 266 35 278 58 q 227 -4 254 13 q 152 -22 201 -22 q 77 -4 103 -22 q 38 35 50 13 q 24 79 26 58 q 22 109 22 100 l 22 499 l 109 499 l 109 109 q 109 89 109 100 q 114 68 110 78 q 127 51 118 58 q 152 43 136 43 q 177 51 168 43 q 190 68 186 58 q 195 89 194 78 q 195 109 195 100 l 195 286 z "},"ŝ":{"ha":326,"x_min":43,"x_max":282,"o":"m 212 1370 l 252 1135 l 183 1135 l 163 1297 l 142 1135 l 73 1135 l 113 1370 l 212 1370 m 282 673 l 195 673 l 195 944 q 185 978 195 968 q 163 987 175 987 q 140 978 151 987 q 130 944 130 968 q 137 810 130 871 q 155 698 144 749 q 179 604 165 646 q 206 526 193 562 q 230 462 217 498 q 255 374 243 425 q 274 256 267 323 q 282 98 282 188 q 272 48 282 69 q 245 15 262 28 q 207 -5 228 1 q 163 -11 185 -11 q 119 -5 140 -11 q 81 15 98 1 q 54 48 64 28 q 43 98 43 69 l 43 369 l 130 369 l 130 98 q 140 64 130 73 q 163 54 151 54 q 185 64 175 54 q 195 98 195 73 q 187 251 195 185 q 165 368 178 317 q 137 456 153 418 q 109 526 122 494 q 84 597 96 557 q 63 688 73 637 q 49 803 54 739 q 43 944 43 866 q 54 993 43 972 q 81 1026 64 1013 q 119 1046 98 1040 q 163 1053 140 1053 q 207 1046 185 1053 q 245 1026 228 1040 q 272 993 262 1013 q 282 944 282 972 l 282 673 z "},"Ş":{"ha":304,"x_min":22,"x_max":282,"o":"m 77 -290 l 116 -12 l 188 -12 l 188 -290 l 77 -290 m 195 286 q 188 409 195 357 q 168 499 180 460 q 140 566 156 537 q 109 619 125 594 q 77 669 92 644 q 49 726 61 694 q 29 800 37 758 q 22 900 22 842 l 22 1063 q 27 1100 22 1080 q 46 1139 32 1121 q 86 1170 60 1157 q 152 1182 111 1182 q 218 1170 193 1182 q 258 1139 243 1157 q 277 1100 272 1121 q 282 1063 282 1080 l 282 760 l 195 760 l 195 1063 q 192 1090 195 1080 q 182 1106 188 1101 q 168 1115 176 1112 q 152 1117 160 1117 q 136 1115 144 1117 q 122 1106 128 1112 q 112 1090 116 1101 q 109 1063 109 1080 l 109 931 q 121 803 109 854 q 154 713 134 751 q 195 644 173 675 q 237 576 218 612 q 269 492 256 540 q 282 373 282 444 l 282 109 q 280 79 282 100 q 266 35 278 58 q 227 -4 254 13 q 152 -22 201 -22 q 77 -4 103 -22 q 38 35 50 13 q 24 79 26 58 q 22 109 22 100 l 22 499 l 109 499 l 109 109 q 109 89 109 100 q 114 68 110 78 q 127 51 118 58 q 152 43 136 43 q 177 51 168 43 q 190 68 186 58 q 195 89 194 78 q 195 109 195 100 l 195 286 z "},"ş":{"ha":326,"x_min":43,"x_max":282,"o":"m 87 -279 l 127 -1 l 199 -1 l 199 -279 l 87 -279 m 282 673 l 195 673 l 195 944 q 185 978 195 968 q 163 987 175 987 q 140 978 151 987 q 130 944 130 968 q 137 810 130 871 q 155 698 144 749 q 179 604 165 646 q 206 526 193 562 q 230 462 217 498 q 255 374 243 425 q 274 256 267 323 q 282 98 282 188 q 272 48 282 69 q 245 15 262 28 q 207 -5 228 1 q 163 -11 185 -11 q 119 -5 140 -11 q 81 15 98 1 q 54 48 64 28 q 43 98 43 69 l 43 369 l 130 369 l 130 98 q 140 64 130 73 q 163 54 151 54 q 185 64 175 54 q 195 98 195 73 q 187 251 195 185 q 165 368 178 317 q 137 456 153 418 q 109 526 122 494 q 84 597 96 557 q 63 688 73 637 q 49 803 54 739 q 43 944 43 866 q 54 993 43 972 q 81 1026 64 1013 q 119 1046 98 1040 q 163 1053 140 1053 q 207 1046 185 1053 q 245 1026 228 1040 q 272 993 262 1013 q 282 944 282 972 l 282 673 z "},"Š":{"ha":304,"x_min":22,"x_max":282,"o":"m 102 1265 l 63 1499 l 131 1499 l 151 1339 l 173 1499 l 241 1499 l 201 1265 l 102 1265 m 195 286 q 188 409 195 357 q 168 499 180 460 q 140 566 156 537 q 109 619 125 594 q 77 669 92 644 q 49 726 61 694 q 29 800 37 758 q 22 900 22 842 l 22 1063 q 27 1100 22 1080 q 46 1139 32 1121 q 86 1170 60 1157 q 152 1182 111 1182 q 218 1170 193 1182 q 258 1139 243 1157 q 277 1100 272 1121 q 282 1063 282 1080 l 282 760 l 195 760 l 195 1063 q 192 1090 195 1080 q 182 1106 188 1101 q 168 1115 176 1112 q 152 1117 160 1117 q 136 1115 144 1117 q 122 1106 128 1112 q 112 1090 116 1101 q 109 1063 109 1080 l 109 931 q 121 803 109 854 q 154 713 134 751 q 195 644 173 675 q 237 576 218 612 q 269 492 256 540 q 282 373 282 444 l 282 109 q 280 79 282 100 q 266 35 278 58 q 227 -4 254 13 q 152 -22 201 -22 q 77 -4 103 -22 q 38 35 50 13 q 24 79 26 58 q 22 109 22 100 l 22 499 l 109 499 l 109 109 q 109 89 109 100 q 114 68 110 78 q 127 51 118 58 q 152 43 136 43 q 177 51 168 43 q 190 68 186 58 q 195 89 194 78 q 195 109 195 100 l 195 286 z "},"š":{"ha":326,"x_min":43,"x_max":282,"o":"m 113 1135 l 74 1370 l 142 1370 l 162 1209 l 184 1370 l 252 1370 l 212 1135 l 113 1135 m 282 673 l 195 673 l 195 944 q 185 978 195 968 q 163 987 175 987 q 140 978 151 987 q 130 944 130 968 q 137 810 130 871 q 155 698 144 749 q 179 604 165 646 q 206 526 193 562 q 230 462 217 498 q 255 374 243 425 q 274 256 267 323 q 282 98 282 188 q 272 48 282 69 q 245 15 262 28 q 207 -5 228 1 q 163 -11 185 -11 q 119 -5 140 -11 q 81 15 98 1 q 54 48 64 28 q 43 98 43 69 l 43 369 l 130 369 l 130 98 q 140 64 130 73 q 163 54 151 54 q 185 64 175 54 q 195 98 195 73 q 187 251 195 185 q 165 368 178 317 q 137 456 153 418 q 109 526 122 494 q 84 597 96 557 q 63 688 73 637 q 49 803 54 739 q 43 944 43 866 q 54 993 43 972 q 81 1026 64 1013 q 119 1046 98 1040 q 163 1053 140 1053 q 207 1046 185 1053 q 245 1026 228 1040 q 272 993 262 1013 q 282 944 282 972 l 282 673 z "},"Ţ":{"ha":304,"x_min":22,"x_max":282,"o":"m 77 -268 l 116 9 l 188 9 l 188 -268 l 77 -268 m 282 1172 l 282 1107 l 195 1107 l 195 0 l 109 0 l 109 1107 l 22 1107 l 22 1172 l 282 1172 z "},"ţ":{"ha":282,"x_min":11,"x_max":271,"o":"m 66 -268 l 105 9 l 177 9 l 177 -268 l 66 -268 m 271 1042 l 271 977 l 184 977 l 184 0 l 98 0 l 98 977 l 11 977 l 11 1042 l 271 1042 z "},"Ť":{"ha":304,"x_min":22,"x_max":282,"o":"m 102 1265 l 63 1499 l 131 1499 l 151 1339 l 173 1499 l 241 1499 l 201 1265 l 102 1265 m 282 1172 l 282 1107 l 195 1107 l 195 0 l 109 0 l 109 1107 l 22 1107 l 22 1172 l 282 1172 z "},"ť":{"ha":282,"x_min":11,"x_max":352,"o":"m 352 1051 l 330 812 l 265 812 l 265 1051 l 352 1051 m 271 1042 l 271 977 l 184 977 l 184 0 l 98 0 l 98 977 l 11 977 l 11 1042 l 271 1042 z "},"Ŧ":{"ha":247,"x_min":14,"x_max":282,"o":"m 282 1172 l 282 1107 l 195 1107 l 195 0 l 109 0 l 109 1107 l 22 1107 l 22 1172 l 282 1172 m 236 740 l 14 740 l 14 811 l 236 811 l 236 740 z "},"ŧ":{"ha":237,"x_min":11,"x_max":271,"o":"m 271 1042 l 271 977 l 184 977 l 184 0 l 98 0 l 98 977 l 11 977 l 11 1042 l 271 1042 m 233 570 l 12 570 l 12 641 l 233 641 l 233 570 z "},"Ũ":{"ha":347,"x_min":43,"x_max":304,"o":"m 45 1265 q 48 1308 45 1288 q 61 1342 52 1327 q 82 1364 69 1356 q 115 1373 96 1373 q 145 1368 132 1373 q 170 1358 157 1364 q 196 1348 182 1352 q 228 1343 210 1343 q 239 1348 235 1343 q 245 1358 243 1352 q 249 1373 248 1364 l 302 1373 q 301 1344 302 1357 q 296 1319 300 1331 q 274 1281 289 1298 q 228 1265 258 1265 q 196 1270 211 1265 q 169 1280 182 1274 q 142 1290 155 1285 q 116 1295 130 1295 q 106 1290 110 1295 q 100 1280 102 1286 q 98 1265 98 1274 l 45 1265 m 130 109 q 131 89 130 100 q 136 68 132 78 q 149 51 140 58 q 174 43 157 43 q 199 51 190 43 q 212 68 208 58 q 216 89 216 78 q 217 109 217 100 l 217 1172 l 304 1172 l 304 109 q 302 79 304 100 q 288 35 300 58 q 249 -4 275 13 q 174 -22 222 -22 q 98 -4 125 -22 q 60 35 72 13 q 45 79 47 58 q 43 109 43 100 l 43 1172 l 130 1172 l 130 109 z "},"ũ":{"ha":326,"x_min":34,"x_max":292,"o":"m 34 1134 q 38 1177 34 1157 q 50 1211 41 1196 q 72 1234 58 1225 q 104 1242 85 1242 q 134 1237 121 1242 q 159 1227 146 1233 q 185 1217 171 1221 q 217 1213 199 1213 q 228 1217 224 1213 q 234 1227 232 1221 q 238 1242 237 1233 l 292 1242 q 290 1213 292 1226 q 285 1188 289 1200 q 263 1151 278 1167 q 217 1134 248 1134 q 185 1139 200 1134 q 158 1149 171 1143 q 132 1159 144 1154 q 105 1164 119 1164 q 95 1159 99 1164 q 90 1149 92 1155 q 87 1134 87 1143 l 34 1134 m 195 1042 l 282 1042 l 282 98 q 272 48 282 69 q 245 15 262 28 q 207 -5 228 1 q 163 -11 185 -11 q 119 -5 140 -11 q 81 15 98 1 q 54 48 64 28 q 43 98 43 69 l 43 1042 l 130 1042 l 130 98 q 140 64 130 73 q 163 54 151 54 q 185 64 175 54 q 195 98 195 73 l 195 1042 z "},"Ū":{"ha":347,"x_min":43,"x_max":304,"o":"m 284 1265 l 62 1265 l 62 1336 l 284 1336 l 284 1265 m 130 109 q 131 89 130 100 q 136 68 132 78 q 149 51 140 58 q 174 43 157 43 q 199 51 190 43 q 212 68 208 58 q 216 89 216 78 q 217 109 217 100 l 217 1172 l 304 1172 l 304 109 q 302 79 304 100 q 288 35 300 58 q 249 -4 275 13 q 174 -22 222 -22 q 98 -4 125 -22 q 60 35 72 13 q 45 79 47 58 q 43 109 43 100 l 43 1172 l 130 1172 l 130 109 z "},"ū":{"ha":326,"x_min":43,"x_max":282,"o":"m 273 1134 l 52 1134 l 52 1205 l 273 1205 l 273 1134 m 195 1042 l 282 1042 l 282 98 q 272 48 282 69 q 245 15 262 28 q 207 -5 228 1 q 163 -11 185 -11 q 119 -5 140 -11 q 81 15 98 1 q 54 48 64 28 q 43 98 43 69 l 43 1042 l 130 1042 l 130 98 q 140 64 130 73 q 163 54 151 54 q 185 64 175 54 q 195 98 195 73 l 195 1042 z "},"Ŭ":{"ha":347,"x_min":43,"x_max":304,"o":"m 175 1265 q 74 1300 105 1265 q 43 1417 43 1336 l 112 1417 q 117 1378 112 1392 q 130 1355 121 1363 q 149 1345 138 1348 q 173 1343 160 1343 q 199 1345 187 1343 q 218 1355 210 1348 q 231 1378 227 1363 q 235 1417 235 1392 l 304 1417 q 273 1300 304 1336 q 175 1265 243 1265 m 130 109 q 131 89 130 100 q 136 68 132 78 q 149 51 140 58 q 174 43 157 43 q 199 51 190 43 q 212 68 208 58 q 216 89 216 78 q 217 109 217 100 l 217 1172 l 304 1172 l 304 109 q 302 79 304 100 q 288 35 300 58 q 249 -4 275 13 q 174 -22 222 -22 q 98 -4 125 -22 q 60 35 72 13 q 45 79 47 58 q 43 109 43 100 l 43 1172 l 130 1172 l 130 109 z "},"ŭ":{"ha":326,"x_min":33,"x_max":293,"o":"m 164 1134 q 63 1170 94 1134 q 33 1286 33 1205 l 101 1286 q 106 1247 101 1261 q 119 1224 111 1232 q 138 1214 127 1217 q 162 1212 149 1212 q 188 1214 176 1212 q 208 1224 199 1217 q 220 1247 216 1232 q 224 1286 224 1261 l 293 1286 q 262 1170 293 1205 q 164 1134 232 1134 m 195 1042 l 282 1042 l 282 98 q 272 48 282 69 q 245 15 262 28 q 207 -5 228 1 q 163 -11 185 -11 q 119 -5 140 -11 q 81 15 98 1 q 54 48 64 28 q 43 98 43 69 l 43 1042 l 130 1042 l 130 98 q 140 64 130 73 q 163 54 151 54 q 185 64 175 54 q 195 98 195 73 l 195 1042 z "},"Ů":{"ha":347,"x_min":43,"x_max":304,"o":"m 77 1360 q 84 1398 77 1380 q 104 1428 92 1415 q 135 1449 117 1441 q 173 1456 153 1456 q 243 1429 216 1456 q 270 1360 270 1402 q 262 1323 270 1340 q 242 1293 255 1305 q 212 1272 229 1280 q 173 1265 194 1265 q 135 1272 153 1265 q 104 1293 117 1280 q 84 1323 92 1305 q 77 1360 77 1340 m 130 1360 q 142 1330 130 1343 q 173 1318 155 1318 q 205 1330 193 1318 q 217 1360 217 1343 q 205 1391 217 1379 q 173 1403 193 1403 q 142 1391 155 1403 q 130 1360 130 1379 m 130 109 q 131 89 130 100 q 136 68 132 78 q 149 51 140 58 q 174 43 157 43 q 199 51 190 43 q 212 68 208 58 q 216 89 216 78 q 217 109 217 100 l 217 1172 l 304 1172 l 304 109 q 302 79 304 100 q 288 35 300 58 q 249 -4 275 13 q 174 -22 222 -22 q 98 -4 125 -22 q 60 35 72 13 q 45 79 47 58 q 43 109 43 100 l 43 1172 l 130 1172 l 130 109 z "},"ů":{"ha":326,"x_min":43,"x_max":282,"o":"m 66 1229 q 73 1267 66 1249 q 94 1297 81 1284 q 124 1318 106 1310 q 162 1325 142 1325 q 232 1298 205 1325 q 259 1229 259 1271 q 252 1192 259 1209 q 231 1162 244 1175 q 201 1141 218 1149 q 162 1134 183 1134 q 124 1141 142 1134 q 94 1162 106 1149 q 73 1192 81 1175 q 66 1229 66 1209 m 119 1230 q 132 1199 119 1212 q 162 1187 144 1187 q 194 1199 182 1187 q 206 1230 206 1212 q 194 1260 206 1249 q 162 1272 182 1272 q 132 1260 144 1272 q 119 1230 119 1249 m 195 1042 l 282 1042 l 282 98 q 272 48 282 69 q 245 15 262 28 q 207 -5 228 1 q 163 -11 185 -11 q 119 -5 140 -11 q 81 15 98 1 q 54 48 64 28 q 43 98 43 69 l 43 1042 l 130 1042 l 130 98 q 140 64 130 73 q 163 54 151 54 q 185 64 175 54 q 195 98 195 73 l 195 1042 z "},"Ű":{"ha":347,"x_min":43,"x_max":421,"o":"m 288 1543 l 159 1265 l 90 1265 l 180 1543 l 288 1543 m 421 1543 l 258 1265 l 189 1265 l 314 1543 l 421 1543 m 130 109 q 131 89 130 100 q 136 68 132 78 q 149 51 140 58 q 174 43 157 43 q 199 51 190 43 q 212 68 208 58 q 216 89 216 78 q 217 109 217 100 l 217 1172 l 304 1172 l 304 109 q 302 79 304 100 q 288 35 300 58 q 249 -4 275 13 q 174 -22 222 -22 q 98 -4 125 -22 q 60 35 72 13 q 45 79 47 58 q 43 109 43 100 l 43 1172 l 130 1172 l 130 109 z "},"ű":{"ha":326,"x_min":43,"x_max":410,"o":"m 277 1412 l 148 1134 l 79 1134 l 170 1412 l 277 1412 m 410 1412 l 247 1134 l 178 1134 l 303 1412 l 410 1412 m 195 1042 l 282 1042 l 282 98 q 272 48 282 69 q 245 15 262 28 q 207 -5 228 1 q 163 -11 185 -11 q 119 -5 140 -11 q 81 15 98 1 q 54 48 64 28 q 43 98 43 69 l 43 1042 l 130 1042 l 130 98 q 140 64 130 73 q 163 54 151 54 q 185 64 175 54 q 195 98 195 73 l 195 1042 z "},"Ų":{"ha":304,"x_min":43,"x_max":306,"o":"m 130 109 q 131 89 130 100 q 136 68 132 78 q 149 51 140 58 q 174 43 157 43 q 199 51 190 43 q 212 68 208 58 q 216 89 216 78 q 217 109 217 100 l 217 1172 l 304 1172 l 304 109 q 302 79 304 100 q 288 35 300 58 q 249 -4 275 13 q 174 -22 222 -22 q 98 -4 125 -22 q 60 35 72 13 q 45 79 47 58 q 43 109 43 100 l 43 1172 l 130 1172 l 130 109 m 222 -192 q 177 -184 197 -192 q 143 -162 157 -176 q 121 -129 129 -148 q 114 -88 114 -110 q 163 0 114 -50 l 197 0 q 184 -27 189 -14 q 175 -53 179 -39 q 172 -81 172 -67 q 185 -121 172 -107 q 227 -135 198 -135 q 257 -131 243 -135 q 281 -122 271 -127 q 294 -116 288 -119 q 306 -109 300 -113 l 306 -157 q 284 -175 295 -168 q 258 -186 273 -181 q 222 -192 243 -192 z "},"ų":{"ha":298,"x_min":43,"x_max":298,"o":"m 195 1042 l 282 1042 l 282 98 q 272 48 282 69 q 245 15 262 28 q 207 -5 228 1 q 163 -11 185 -11 q 119 -5 140 -11 q 81 15 98 1 q 54 48 64 28 q 43 98 43 69 l 43 1042 l 130 1042 l 130 98 q 140 64 130 73 q 163 54 151 54 q 185 64 175 54 q 195 98 195 73 l 195 1042 m 215 -192 q 169 -184 189 -192 q 135 -162 149 -176 q 114 -129 121 -148 q 106 -88 106 -110 q 156 0 106 -50 l 190 0 q 176 -27 181 -14 q 168 -53 172 -39 q 164 -81 164 -67 q 177 -121 164 -107 q 220 -135 191 -135 q 250 -131 236 -135 q 274 -122 263 -127 q 287 -116 281 -119 q 298 -109 292 -113 l 298 -157 q 277 -175 288 -168 q 251 -186 266 -181 q 215 -192 236 -192 z "},"Ŵ":{"ha":477,"x_min":22,"x_max":456,"o":"m 288 1499 l 328 1265 l 259 1265 l 239 1426 l 218 1265 l 149 1265 l 189 1499 l 288 1499 m 239 998 l 217 673 l 174 0 l 87 0 l 22 1172 l 109 1172 l 130 347 l 195 1172 l 282 1172 l 347 347 l 369 1172 l 456 1172 l 391 0 l 304 0 l 260 673 l 239 998 z "},"Ŷ":{"ha":304,"x_min":22,"x_max":282,"o":"m 201 1499 l 241 1265 l 172 1265 l 152 1426 l 131 1265 l 62 1265 l 102 1499 l 201 1499 m 130 868 l 152 564 l 174 868 l 195 1172 l 282 1172 l 195 412 l 195 0 l 109 0 l 109 412 l 22 1172 l 109 1172 l 130 868 z "},"ŷ":{"ha":304,"x_min":22,"x_max":282,"o":"m 201 1369 l 241 1134 l 172 1134 l 152 1295 l 131 1134 l 62 1134 l 102 1369 l 201 1369 m 174 781 l 195 1042 l 282 1042 l 195 347 l 195 0 l 109 0 l 109 347 l 22 1042 l 109 1042 l 130 781 l 152 499 l 174 781 z "},"Ÿ":{"ha":304,"x_min":22,"x_max":282,"o":"m 269 1373 l 269 1265 l 172 1265 l 172 1373 l 269 1373 m 133 1373 l 133 1265 l 35 1265 l 35 1373 l 133 1373 m 130 868 l 152 564 l 174 868 l 195 1172 l 282 1172 l 195 412 l 195 0 l 109 0 l 109 412 l 22 1172 l 109 1172 l 130 868 z "},"Ź":{"ha":239,"x_min":22,"x_max":282,"o":"m 282 1547 l 152 1265 l 87 1265 l 174 1547 l 282 1547 m 217 1172 l 109 65 l 217 65 l 217 0 l 22 0 l 130 1107 l 22 1107 l 22 1172 l 217 1172 z "},"ź":{"ha":217,"x_min":22,"x_max":271,"o":"m 271 1416 l 141 1134 l 76 1134 l 163 1416 l 271 1416 m 195 1042 l 114 65 l 195 65 l 195 0 l 22 0 l 109 977 l 22 977 l 22 1042 l 195 1042 z "},"Ż":{"ha":239,"x_min":22,"x_max":217,"o":"m 181 1390 l 181 1265 l 58 1265 l 58 1390 l 181 1390 m 217 1172 l 109 65 l 217 65 l 217 0 l 22 0 l 130 1107 l 22 1107 l 22 1172 l 217 1172 z "},"ż":{"ha":217,"x_min":22,"x_max":195,"o":"m 170 1259 l 170 1134 l 47 1134 l 47 1259 l 170 1259 m 195 1042 l 114 65 l 195 65 l 195 0 l 22 0 l 109 977 l 22 977 l 22 1042 l 195 1042 z "},"Ž":{"ha":239,"x_min":22,"x_max":217,"o":"m 70 1265 l 31 1499 l 98 1499 l 119 1339 l 140 1499 l 209 1499 l 168 1265 l 70 1265 m 217 1172 l 109 65 l 217 65 l 217 0 l 22 0 l 130 1107 l 22 1107 l 22 1172 l 217 1172 z "},"ž":{"ha":217,"x_min":19,"x_max":198,"o":"m 59 1134 l 20 1369 l 87 1369 l 108 1208 l 130 1369 l 198 1369 l 157 1134 l 59 1134 m 195 1042 l 114 65 l 195 65 l 195 0 l 22 0 l 109 977 l 22 977 l 22 1042 l 195 1042 z "},"ƒ":{"ha":298,"x_min":16,"x_max":306,"o":"m 300 964 l 188 964 l 155 586 l 236 586 l 229 515 l 149 515 l 104 0 l 16 0 l 106 1031 l 306 1031 l 300 964 z "},"Ǎ":{"ha":304,"x_min":22,"x_max":282,"o":"m 102 1265 l 63 1499 l 131 1499 l 151 1339 l 173 1499 l 241 1499 l 201 1265 l 102 1265 m 282 0 l 195 0 l 184 282 l 120 282 l 109 0 l 22 0 l 87 1172 l 217 1172 l 282 0 m 174 608 l 152 1128 l 130 608 l 120 347 l 184 347 l 174 608 z "},"ǎ":{"ha":304,"x_min":22,"x_max":282,"o":"m 102 1134 l 63 1369 l 131 1369 l 151 1208 l 173 1369 l 241 1369 l 201 1134 l 102 1134 m 282 0 l 195 0 l 182 225 l 121 225 l 109 0 l 22 0 l 109 1042 l 195 1042 l 282 0 m 177 296 l 152 825 l 126 296 l 177 296 z "},"Ǐ":{"ha":195,"x_min":8,"x_max":187,"o":"m 48 1265 l 9 1499 l 77 1499 l 97 1339 l 119 1499 l 187 1499 l 146 1265 l 48 1265 m 141 1172 l 141 0 l 54 0 l 54 1172 l 141 1172 z "},"ǐ":{"ha":198,"x_min":9,"x_max":189,"o":"m 50 1134 l 10 1369 l 78 1369 l 98 1208 l 120 1369 l 189 1369 l 148 1134 l 50 1134 m 144 1031 l 144 0 l 54 0 l 54 1031 l 144 1031 z "},"Ǒ":{"ha":347,"x_min":43,"x_max":304,"o":"m 124 1265 l 85 1499 l 153 1499 l 173 1339 l 195 1499 l 263 1499 l 222 1265 l 124 1265 m 304 109 q 302 79 304 100 q 288 35 300 58 q 249 -4 275 13 q 174 -22 222 -22 q 98 -4 125 -22 q 60 35 72 13 q 45 79 47 58 q 43 109 43 100 l 43 1063 q 44 1080 43 1069 q 48 1104 45 1090 q 60 1131 52 1117 q 82 1156 68 1145 q 119 1175 96 1168 q 174 1182 141 1182 q 229 1175 206 1182 q 265 1156 251 1168 q 288 1131 279 1145 q 299 1104 296 1117 q 303 1080 302 1090 q 304 1063 304 1069 l 304 109 m 130 109 q 131 89 130 100 q 136 68 132 78 q 149 51 140 58 q 174 43 157 43 q 199 51 190 43 q 212 68 208 58 q 216 89 216 78 q 217 109 217 100 l 217 1063 q 216 1081 217 1072 q 212 1098 216 1090 q 199 1112 208 1106 q 174 1117 190 1117 q 149 1112 157 1117 q 136 1098 140 1106 q 131 1081 132 1090 q 130 1063 130 1072 l 130 109 z "},"ǒ":{"ha":347,"x_min":43,"x_max":304,"o":"m 130 1134 l 90 1369 l 158 1369 l 178 1208 l 200 1369 l 269 1369 l 228 1134 l 130 1134 m 304 98 q 293 48 304 69 q 265 14 283 28 q 225 -6 248 1 q 179 -12 203 -12 q 130 -5 154 -12 q 86 16 105 2 q 55 51 67 30 q 43 98 43 71 l 43 944 q 55 990 43 970 q 86 1023 67 1010 q 130 1044 106 1037 q 180 1051 155 1051 q 226 1045 203 1051 q 266 1025 248 1038 q 293 991 283 1012 q 304 944 304 971 l 304 98 m 217 944 q 206 977 217 967 q 180 987 195 987 q 162 984 171 987 q 146 975 153 981 q 135 961 139 969 q 130 944 130 954 l 130 98 q 135 80 130 88 q 146 66 139 72 q 162 58 153 61 q 179 55 170 55 q 205 65 194 55 q 217 98 217 75 l 217 944 z "},"Ǔ":{"ha":347,"x_min":43,"x_max":304,"o":"m 124 1265 l 85 1499 l 153 1499 l 173 1339 l 195 1499 l 263 1499 l 222 1265 l 124 1265 m 130 109 q 131 89 130 100 q 136 68 132 78 q 149 51 140 58 q 174 43 157 43 q 199 51 190 43 q 212 68 208 58 q 216 89 216 78 q 217 109 217 100 l 217 1172 l 304 1172 l 304 109 q 302 79 304 100 q 288 35 300 58 q 249 -4 275 13 q 174 -22 222 -22 q 98 -4 125 -22 q 60 35 72 13 q 45 79 47 58 q 43 109 43 100 l 43 1172 l 130 1172 l 130 109 z "},"ǔ":{"ha":326,"x_min":43,"x_max":282,"o":"m 113 1134 l 74 1369 l 142 1369 l 162 1208 l 184 1369 l 252 1369 l 212 1134 l 113 1134 m 195 1042 l 282 1042 l 282 98 q 272 48 282 69 q 245 15 262 28 q 207 -5 228 1 q 163 -11 185 -11 q 119 -5 140 -11 q 81 15 98 1 q 54 48 64 28 q 43 98 43 69 l 43 1042 l 130 1042 l 130 98 q 140 64 130 73 q 163 54 151 54 q 185 64 175 54 q 195 98 195 73 l 195 1042 z "},"ˆ":{"ha":221,"x_min":21,"x_max":200,"o":"m 160 292 l 200 57 l 131 57 l 111 218 l 90 57 l 21 57 l 61 292 l 160 292 z "},"ˇ":{"ha":221,"x_min":22,"x_max":201,"o":"m 62 57 l 22 292 l 90 292 l 111 131 l 132 292 l 201 292 l 160 57 l 62 57 z "},"˘":{"ha":221,"x_min":-19,"x_max":241,"o":"m 113 57 q 12 93 43 57 q -19 209 -19 128 l 50 209 q 54 170 50 184 q 67 148 59 155 q 86 137 75 140 q 111 135 98 135 q 136 137 125 135 q 156 148 148 140 q 169 170 164 155 q 173 209 173 184 l 241 209 q 211 93 241 128 q 113 57 180 57 z "},"˙":{"ha":172,"x_min":37,"x_max":161,"o":"m 161 193 l 161 67 l 37 67 l 37 193 l 161 193 z "},"˚":{"ha":221,"x_min":22,"x_max":216,"o":"m 22 140 q 30 178 22 160 q 50 208 37 195 q 81 229 63 221 q 119 236 98 236 q 189 209 161 236 q 216 140 216 182 q 208 103 216 120 q 188 73 201 85 q 157 52 175 60 q 119 45 140 45 q 81 52 98 45 q 50 73 63 60 q 30 103 37 85 q 22 140 22 120 m 76 140 q 88 110 76 123 q 119 98 100 98 q 151 110 138 98 q 163 140 163 123 q 151 171 163 159 q 119 183 138 183 q 88 171 100 183 q 76 140 76 159 z "},"˛":{"ha":221,"x_min":43,"x_max":235,"o":"m 151 -192 q 105 -184 125 -192 q 72 -162 85 -176 q 50 -129 58 -148 q 43 -88 43 -110 q 92 0 43 -50 l 126 0 q 113 -27 117 -14 q 104 -53 108 -39 q 100 -81 100 -67 q 114 -121 100 -107 q 156 -135 127 -135 q 186 -131 172 -135 q 210 -122 199 -127 q 223 -116 217 -119 q 235 -109 229 -113 l 235 -157 q 213 -175 224 -168 q 187 -186 202 -181 q 151 -192 172 -192 z "},"˜":{"ha":221,"x_min":-10,"x_max":248,"o":"m -10 68 q -6 111 -10 92 q 6 145 -3 131 q 27 168 14 160 q 60 176 41 176 q 90 172 77 176 q 115 162 102 168 q 141 152 127 156 q 173 147 155 147 q 184 152 180 147 q 190 161 188 156 q 194 176 193 168 l 248 176 q 246 148 248 161 q 241 123 245 134 q 219 85 234 102 q 173 68 203 68 q 141 73 156 68 q 114 83 127 78 q 87 94 100 89 q 61 98 75 98 q 51 94 55 98 q 45 83 47 90 q 43 68 43 78 l -10 68 z "},"˝":{"ha":442,"x_min":32,"x_max":363,"o":"m 229 335 l 100 57 l 32 57 l 122 335 l 229 335 m 363 335 l 199 57 l 131 57 l 256 335 l 363 335 z "},"Δ":{"ha":296,"x_min":16,"x_max":279,"o":"m 279 0 l 16 0 l 83 1194 l 212 1194 l 279 0 m 189 77 l 147 1000 l 106 77 l 189 77 z "},"Ω":{"ha":348,"x_min":20,"x_max":328,"o":"m 176 1139 q 154 1133 161 1139 q 143 1117 146 1127 q 140 1092 140 1106 l 140 1060 l 140 286 q 143 189 140 229 q 150 123 146 149 q 160 73 154 93 l 160 0 l 20 0 l 20 73 l 88 73 q 68 123 77 92 q 54 189 60 149 q 47 286 47 229 l 47 1060 q 51 1112 47 1085 q 68 1159 55 1138 q 107 1195 81 1181 q 176 1208 132 1208 q 244 1195 218 1208 q 282 1159 269 1181 q 300 1112 296 1138 q 304 1060 304 1085 l 304 286 q 297 189 304 229 q 283 123 291 149 q 263 73 274 92 l 328 73 l 328 0 l 191 0 l 191 73 q 196 95 194 83 q 201 123 199 108 q 207 189 204 149 q 210 286 210 229 l 210 1060 l 210 1092 q 208 1117 210 1106 q 197 1133 205 1127 q 176 1139 190 1139 z "},"π":{"ha":198,"x_min":54,"x_max":144,"o":"m 144 1029 l 144 0 l 54 0 l 54 1029 l 144 1029 z "},"ѝ":{"ha":0,"x_min":36,"x_max":231,"o":"m 144 347 l 231 65 l 166 65 l 36 347 l 144 347 z "},"Ṅ":{"ha":347,"x_min":43,"x_max":304,"o":"m 235 1390 l 235 1265 l 112 1265 l 112 1390 l 235 1390 m 304 0 l 217 0 l 109 868 l 109 0 l 43 0 l 43 1172 l 130 1172 l 239 304 l 239 1172 l 304 1172 l 304 0 z "},"Ṡ":{"ha":304,"x_min":22,"x_max":282,"o":"m 214 1390 l 214 1265 l 90 1265 l 90 1390 l 214 1390 m 195 286 q 188 409 195 357 q 168 499 180 460 q 140 566 156 537 q 109 619 125 594 q 77 669 92 644 q 49 726 61 694 q 29 800 37 758 q 22 900 22 842 l 22 1063 q 27 1100 22 1080 q 46 1139 32 1121 q 86 1170 60 1157 q 152 1182 111 1182 q 218 1170 193 1182 q 258 1139 243 1157 q 277 1100 272 1121 q 282 1063 282 1080 l 282 760 l 195 760 l 195 1063 q 192 1090 195 1080 q 182 1106 188 1101 q 168 1115 176 1112 q 152 1117 160 1117 q 136 1115 144 1117 q 122 1106 128 1112 q 112 1090 116 1101 q 109 1063 109 1080 l 109 931 q 121 803 109 854 q 154 713 134 751 q 195 644 173 675 q 237 576 218 612 q 269 492 256 540 q 282 373 282 444 l 282 109 q 280 79 282 100 q 266 35 278 58 q 227 -4 254 13 q 152 -22 201 -22 q 77 -4 103 -22 q 38 35 50 13 q 24 79 26 58 q 22 109 22 100 l 22 499 l 109 499 l 109 109 q 109 89 109 100 q 114 68 110 78 q 127 51 118 58 q 152 43 136 43 q 177 51 168 43 q 190 68 186 58 q 195 89 194 78 q 195 109 195 100 l 195 286 z "},"Ẁ":{"ha":477,"x_min":22,"x_max":456,"o":"m 184 1547 l 271 1265 l 206 1265 l 76 1547 l 184 1547 m 239 998 l 217 673 l 174 0 l 87 0 l 22 1172 l 109 1172 l 130 347 l 195 1172 l 282 1172 l 347 347 l 369 1172 l 456 1172 l 391 0 l 304 0 l 260 673 l 239 998 z "},"Ẃ":{"ha":477,"x_min":22,"x_max":456,"o":"m 401 1547 l 271 1265 l 206 1265 l 293 1547 l 401 1547 m 239 998 l 217 673 l 174 0 l 87 0 l 22 1172 l 109 1172 l 130 347 l 195 1172 l 282 1172 l 347 347 l 369 1172 l 456 1172 l 391 0 l 304 0 l 260 673 l 239 998 z "},"ẃ":{"ha":434,"x_min":22,"x_max":412,"o":"m 380 1416 l 250 1134 l 184 1134 l 271 1416 l 380 1416 m 304 130 l 304 564 l 326 1042 l 412 1042 l 347 0 l 260 0 l 239 412 l 217 868 l 195 412 l 174 0 l 87 0 l 22 1042 l 109 1042 l 130 564 l 130 130 l 152 564 l 174 1042 l 260 1042 l 282 564 l 304 130 z "},"Ẅ":{"ha":477,"x_min":22,"x_max":456,"o":"m 356 1373 l 356 1265 l 259 1265 l 259 1373 l 356 1373 m 220 1373 l 220 1265 l 121 1265 l 121 1373 l 220 1373 m 239 998 l 217 673 l 174 0 l 87 0 l 22 1172 l 109 1172 l 130 347 l 195 1172 l 282 1172 l 347 347 l 369 1172 l 456 1172 l 391 0 l 304 0 l 260 673 l 239 998 z "},"ẅ":{"ha":434,"x_min":22,"x_max":412,"o":"m 334 1242 l 334 1134 l 237 1134 l 237 1242 l 334 1242 m 198 1242 l 198 1134 l 100 1134 l 100 1242 l 198 1242 m 304 130 l 304 564 l 326 1042 l 412 1042 l 347 0 l 260 0 l 239 412 l 217 868 l 195 412 l 174 0 l 87 0 l 22 1042 l 109 1042 l 130 564 l 130 130 l 152 564 l 174 1042 l 260 1042 l 282 564 l 304 130 z "},"Ẇ":{"ha":477,"x_min":22,"x_max":456,"o":"m 300 1390 l 300 1265 l 177 1265 l 177 1390 l 300 1390 m 239 998 l 217 673 l 174 0 l 87 0 l 22 1172 l 109 1172 l 130 347 l 195 1172 l 282 1172 l 347 347 l 369 1172 l 456 1172 l 391 0 l 304 0 l 260 673 l 239 998 z "},"Ẏ":{"ha":304,"x_min":22,"x_max":282,"o":"m 214 1390 l 214 1265 l 90 1265 l 90 1390 l 214 1390 m 130 868 l 152 564 l 174 868 l 195 1172 l 282 1172 l 195 412 l 195 0 l 109 0 l 109 412 l 22 1172 l 109 1172 l 130 868 z "},"ẞ":{"ha":0,"x_min":0,"x_max":0,"o":""},"ẽ":{"ha":239,"x_min":1,"x_max":259,"o":"m 1 1134 q 5 1177 1 1157 q 17 1211 9 1196 q 39 1234 26 1225 q 72 1242 52 1242 q 101 1237 89 1242 q 126 1227 114 1233 q 152 1217 138 1221 q 184 1213 166 1213 q 195 1217 191 1213 q 201 1227 199 1221 q 205 1242 205 1233 l 259 1242 q 258 1213 259 1226 q 252 1188 256 1200 q 230 1151 245 1167 q 184 1134 215 1134 q 153 1139 168 1134 q 125 1149 138 1143 q 99 1159 112 1154 q 73 1164 86 1164 q 63 1159 66 1164 q 57 1149 59 1155 q 55 1134 55 1143 l 1 1134 m 217 977 l 130 977 l 130 586 l 217 586 l 217 521 l 130 521 l 130 65 l 217 65 l 217 0 l 43 0 l 43 1042 l 217 1042 l 217 977 z "},"Ỳ":{"ha":304,"x_min":-11,"x_max":282,"o":"m 98 1547 l 184 1265 l 119 1265 l -11 1547 l 98 1547 m 130 868 l 152 564 l 174 868 l 195 1172 l 282 1172 l 195 412 l 195 0 l 109 0 l 109 412 l 22 1172 l 109 1172 l 130 868 z "},"ỳ":{"ha":304,"x_min":-11,"x_max":282,"o":"m 98 1416 l 184 1134 l 119 1134 l -11 1416 l 98 1416 m 174 781 l 195 1042 l 282 1042 l 195 347 l 195 0 l 109 0 l 109 347 l 22 1042 l 109 1042 l 130 781 l 152 499 l 174 781 z "},"Ỹ":{"ha":304,"x_min":22,"x_max":282,"o":"m 23 1265 q 27 1308 23 1288 q 39 1342 31 1327 q 61 1364 47 1356 q 94 1373 74 1373 q 123 1368 111 1373 q 148 1358 136 1364 q 174 1348 160 1352 q 206 1343 188 1343 q 217 1348 213 1343 q 223 1358 221 1352 q 227 1373 227 1364 l 281 1373 q 279 1344 281 1357 q 274 1319 278 1331 q 252 1281 267 1298 q 206 1265 237 1265 q 175 1270 189 1265 q 147 1280 160 1274 q 121 1290 134 1285 q 94 1295 108 1295 q 84 1290 88 1295 q 79 1280 81 1286 q 77 1265 77 1274 l 23 1265 m 130 868 l 152 564 l 174 868 l 195 1172 l 282 1172 l 195 412 l 195 0 l 109 0 l 109 412 l 22 1172 l 109 1172 l 130 868 z "},"–":{"ha":469,"x_min":16,"x_max":453,"o":"m 453 509 l 16 509 l 16 600 l 453 600 l 453 509 z "},"—":{"ha":469,"x_min":16,"x_max":453,"o":"m 453 509 l 16 509 l 16 600 l 453 600 l 453 509 z "},"‘":{"ha":331,"x_min":5,"x_max":113,"o":"m 5 951 l 55 1196 l 113 1196 l 113 951 l 5 951 z "},"’":{"ha":331,"x_min":163,"x_max":271,"o":"m 271 1194 l 221 951 l 164 951 l 163 1194 l 271 1194 z "},"‚":{"ha":331,"x_min":5,"x_max":113,"o":"m 5 0 l 55 244 l 113 244 l 113 0 l 5 0 z "},"“":{"ha":331,"x_min":5,"x_max":261,"o":"m 153 951 l 203 1196 l 260 1196 l 261 951 l 153 951 m 5 951 l 55 1196 l 113 1196 l 113 951 l 5 951 z "},"”":{"ha":331,"x_min":14,"x_max":271,"o":"m 123 1194 l 73 951 l 16 951 l 14 1194 l 123 1194 m 271 1194 l 221 951 l 164 951 l 163 1194 l 271 1194 z "},"„":{"ha":331,"x_min":163,"x_max":271,"o":"m 271 244 l 221 0 l 164 0 l 163 244 l 271 244 z "},"†":{"ha":237,"x_min":0,"x_max":236,"o":"m 77 749 l 77 898 l 163 898 l 163 749 l 236 749 l 236 682 l 161 682 l 161 92 l 76 92 l 76 682 l 0 682 l 0 749 l 77 749 z "},"‡":{"ha":447,"x_min":16,"x_max":431,"o":"m 16 444 l 179 444 l 179 849 l 16 849 l 16 937 l 179 937 l 179 1194 l 269 1194 l 269 937 l 431 937 l 431 849 l 269 849 l 269 444 l 431 444 l 431 356 l 269 356 l 269 0 l 179 0 l 179 356 l 16 356 l 16 444 z "},"•":{"ha":311,"x_min":35,"x_max":275,"o":"m 275 463 q 266 424 275 442 q 239 391 256 405 q 201 369 223 377 q 156 361 180 361 q 109 369 131 361 q 71 392 87 377 q 45 426 54 406 q 35 467 35 445 l 35 786 q 45 827 35 808 q 71 860 54 846 q 109 882 87 874 q 156 890 131 890 q 201 883 180 890 q 239 862 223 876 q 266 829 256 848 q 275 788 275 810 l 275 463 z "},"…":{"ha":623,"x_min":22,"x_max":578,"o":"m 578 109 l 578 0 l 469 0 l 469 109 l 578 109 m 353 109 l 353 0 l 244 0 l 244 109 l 353 109 m 130 109 l 130 0 l 22 0 l 22 109 l 130 109 z "},"‰":{"ha":190,"x_min":1,"x_max":220,"o":"m 220 1194 l 92 0 l 1 0 l 129 1194 l 220 1194 z "},"‹":{"ha":232,"x_min":14,"x_max":205,"o":"m 205 990 l 205 798 l 106 597 l 205 412 l 205 204 l 14 597 l 205 990 z "},"›":{"ha":488,"x_min":130,"x_max":323,"o":"m 131 990 l 131 798 l 231 597 l 131 412 l 131 204 l 323 597 l 131 990 z "},"⁄":{"ha":220,"x_min":1,"x_max":220,"o":"m 220 1194 l 92 0 l 1 0 l 129 1194 l 220 1194 z "},"€":{"ha":365,"x_min":-8,"x_max":347,"o":"m 339 699 l 186 699 l 186 662 l 329 662 l 321 590 l 186 590 l 186 86 q 196 67 186 75 q 220 60 206 60 q 242 67 233 60 q 252 86 252 75 l 252 421 l 344 421 l 344 86 q 335 46 344 64 q 310 15 326 28 q 271 -6 294 1 q 220 -14 248 -14 q 171 -6 194 -14 q 132 16 149 2 q 105 48 115 29 q 96 88 96 66 l 96 590 l -8 590 l -8 662 l 96 662 l 96 699 l -6 699 l -6 771 l 96 771 l 96 1108 q 105 1148 96 1130 q 131 1181 114 1167 q 170 1202 147 1194 q 220 1210 193 1210 q 270 1202 248 1210 q 309 1181 293 1194 q 335 1149 326 1168 q 344 1111 344 1131 l 344 914 l 252 914 l 252 1104 q 243 1123 252 1115 q 220 1131 233 1131 q 195 1123 205 1131 q 186 1104 186 1115 l 186 771 l 347 771 l 339 699 z "},"№":{"ha":635,"x_min":37,"x_max":600,"o":"m 288 0 l 196 0 l 128 666 l 128 0 l 37 0 l 37 1194 l 127 1194 l 202 500 l 202 1194 l 288 1194 l 288 0 m 600 88 q 590 48 600 67 q 564 16 581 30 q 526 -6 548 2 q 481 -14 505 -14 q 435 -6 457 -14 q 396 16 413 2 q 370 50 380 31 q 360 92 360 69 l 360 943 q 370 983 360 964 q 396 1017 380 1002 q 435 1039 413 1031 q 481 1048 457 1048 q 526 1040 505 1048 q 564 1019 548 1032 q 590 986 581 1005 q 600 945 600 967 l 600 88 m 506 960 q 499 977 506 970 q 481 983 492 983 q 462 977 470 983 q 454 960 454 970 l 454 74 q 461 61 454 68 q 481 53 468 53 q 499 59 492 53 q 506 74 506 65 l 506 960 z "},"™":{"ha":650,"x_min":16,"x_max":618,"o":"m 526 1194 l 618 1194 l 618 529 l 527 529 l 527 886 l 473 529 l 432 529 l 376 886 l 376 529 l 284 529 l 284 1194 l 377 1194 l 452 806 l 526 1194 m 263 1194 l 263 1115 l 185 1115 l 185 529 l 94 529 l 94 1115 l 16 1115 l 16 1194 l 263 1194 z "},"∂":{"ha":304,"x_min":24,"x_max":268,"o":"m 24 535 q 63 616 24 593 q 176 639 101 639 l 176 1194 l 268 1194 l 268 109 q 258 63 268 83 q 233 28 249 43 q 194 7 216 14 q 145 -1 172 -1 q 98 7 120 -1 q 60 28 76 14 q 34 62 43 42 q 24 108 24 82 l 24 535 m 119 100 q 127 78 119 85 q 147 70 136 70 q 168 78 159 70 q 176 102 176 85 l 176 560 q 132 555 145 560 q 119 531 119 549 l 119 100 z "},"∏":{"ha":1000,"x_min":16,"x_max":983,"o":"m 632 781 q 621 738 632 755 q 591 709 610 720 q 548 693 572 698 q 496 686 523 688 l 496 372 l 408 372 l 408 1072 l 521 1072 q 564 1065 544 1072 q 600 1047 585 1059 q 623 1019 614 1035 q 632 985 632 1003 l 632 781 m 545 985 q 533 1001 545 996 q 498 1005 521 1005 l 498 759 q 534 763 523 759 q 545 778 545 767 l 545 985 m 16 724 q 34 852 16 791 q 82 968 51 914 q 158 1066 114 1022 q 256 1142 202 1110 q 372 1191 310 1173 q 500 1208 433 1208 q 628 1191 566 1208 q 743 1142 690 1173 q 841 1066 797 1110 q 917 968 886 1022 q 966 852 949 914 q 983 724 983 791 q 966 596 983 658 q 917 481 949 534 q 841 383 886 427 q 743 307 797 338 q 628 258 690 275 q 500 241 566 241 q 372 258 433 241 q 256 307 310 275 q 158 383 202 338 q 82 481 114 427 q 34 596 51 534 q 16 724 16 658 m 106 724 q 136 569 106 642 q 220 441 167 496 q 345 356 273 387 q 500 324 417 324 q 605 338 555 324 q 700 379 656 353 q 779 441 743 405 q 841 523 815 478 q 880 618 866 567 q 894 724 894 669 q 880 830 894 779 q 841 926 866 881 q 779 1007 815 970 q 700 1069 743 1043 q 605 1110 656 1096 q 500 1124 555 1124 q 394 1110 444 1124 q 299 1069 343 1096 q 220 1007 256 1043 q 159 926 184 970 q 120 830 134 881 q 106 724 106 779 z "},"∑":{"ha":245,"x_min":26,"x_max":239,"o":"m 239 1115 l 117 1115 l 153 675 l 239 675 l 239 594 l 153 594 l 117 76 l 239 76 l 239 0 l 26 0 l 68 632 l 26 1194 l 239 1194 l 239 1115 z "},"−":{"ha":331,"x_min":28,"x_max":302,"o":"m 302 509 l 28 509 l 28 600 l 302 600 l 302 509 z "},"√":{"ha":363,"x_min":0,"x_max":349,"o":"m 174 602 l 214 212 l 253 1194 l 349 1194 l 284 0 l 153 0 l 88 548 l 0 548 l 0 602 l 174 602 z "},"∞":{"ha":504,"x_min":10,"x_max":494,"o":"m 494 579 q 487 518 494 547 q 466 468 479 490 q 431 433 452 446 q 382 420 410 420 q 328 437 351 420 q 283 481 304 455 q 268 502 275 491 q 253 525 260 513 q 238 502 245 513 q 222 481 231 491 q 178 437 202 455 q 122 420 153 420 q 72 433 94 420 q 37 468 51 446 q 17 518 24 490 q 10 579 10 547 q 17 639 10 610 q 37 689 24 667 q 72 724 51 711 q 122 737 94 737 q 178 720 153 737 q 222 676 202 702 q 238 654 231 665 q 253 632 245 644 q 268 654 260 644 q 283 676 275 665 q 328 720 304 702 q 382 737 351 737 q 431 724 410 737 q 466 689 452 711 q 487 639 479 667 q 494 579 494 610 m 212 594 q 175 638 194 621 q 131 656 156 656 q 102 650 113 656 q 84 633 90 644 q 75 609 77 623 q 73 579 73 595 q 75 549 73 564 q 84 525 77 535 q 102 508 90 514 q 131 502 113 502 q 175 519 156 502 q 212 563 194 536 l 222 578 l 212 594 m 277 578 l 288 563 q 325 519 305 536 q 368 502 344 502 q 397 508 386 502 q 415 525 409 514 q 424 549 422 535 q 427 579 427 564 q 424 609 427 595 q 415 633 422 623 q 397 650 409 644 q 368 656 386 656 q 325 638 344 656 q 288 594 305 621 l 277 578 z "},"∫":{"ha":294,"x_min":16,"x_max":306,"o":"m 300 964 l 188 964 l 155 586 l 236 586 l 229 515 l 149 515 l 104 0 l 16 0 l 106 1031 l 306 1031 l 300 964 z "},"≈":{"ha":475,"x_min":16,"x_max":458,"o":"m 16 539 q 20 581 16 562 q 31 615 23 601 q 51 638 38 630 q 83 647 64 647 q 118 645 94 647 q 172 639 142 642 q 236 632 202 636 q 300 625 269 628 q 356 620 331 622 q 393 617 380 617 q 404 622 399 617 q 409 632 408 627 q 412 647 412 640 l 458 647 q 454 593 461 615 q 433 555 448 571 q 389 539 418 539 q 352 542 377 539 q 296 547 328 544 q 231 554 265 550 q 166 561 196 558 q 113 567 136 564 q 81 569 90 569 q 71 564 74 569 q 65 553 67 559 q 63 539 63 548 l 16 539 m 16 406 q 20 449 16 429 q 31 483 23 469 q 51 506 38 498 q 83 515 64 515 q 118 513 94 515 q 172 507 142 511 q 236 500 202 504 q 300 493 269 496 q 356 488 331 490 q 393 486 380 486 q 404 490 399 486 q 409 500 408 494 q 412 515 412 507 l 458 515 q 452 460 459 483 q 442 441 448 450 q 429 424 437 431 q 411 411 422 416 q 385 406 399 406 q 349 409 373 406 q 293 414 324 411 q 229 421 262 418 q 165 429 195 425 q 113 434 136 432 q 81 437 90 437 q 71 432 74 437 q 65 421 67 427 q 63 406 63 416 l 16 406 z "},"≠":{"ha":510,"x_min":42,"x_max":389,"o":"m 389 347 l 42 347 l 42 434 l 389 434 l 389 347 m 389 499 l 42 499 l 42 586 l 389 586 l 389 499 z "},"≤":{"ha":288,"x_min":10,"x_max":272,"o":"m 272 909 l 272 732 l 143 597 l 272 477 l 272 298 l 10 597 l 272 909 m 16 264 l 271 264 l 271 165 l 16 165 l 16 264 z "},"≥":{"ha":288,"x_min":16,"x_max":277,"o":"m 277 597 l 16 298 l 16 477 l 145 597 l 16 732 l 16 909 l 277 597 m 273 165 l 17 165 l 17 264 l 273 264 l 273 165 z "},"◊":{"ha":311,"x_min":35,"x_max":275,"o":"m 275 88 q 266 48 275 67 q 239 16 256 30 q 201 -6 223 2 q 156 -14 180 -14 q 109 -6 131 -14 q 71 16 87 2 q 45 50 54 31 q 35 92 35 69 l 35 1106 q 45 1146 35 1128 q 71 1179 54 1165 q 109 1201 87 1193 q 156 1209 131 1209 q 201 1201 180 1209 q 239 1180 223 1194 q 266 1148 256 1166 q 275 1107 275 1129 l 275 88 m 229 674 q 226 650 228 669 q 222 606 224 631 q 217 552 220 581 q 211 499 214 523 q 204 460 208 475 q 196 446 200 445 q 198 527 198 488 q 196 598 198 566 q 193 657 195 631 q 189 699 191 683 l 185 722 l 184 690 q 182 614 184 659 q 176 513 180 568 q 171 461 173 486 q 165 414 168 436 q 152 464 157 437 q 144 520 147 492 q 140 577 141 549 q 139 631 139 606 q 140 676 140 656 q 142 709 141 696 l 143 724 q 128 673 133 705 q 122 598 123 641 q 121 505 120 556 q 125 397 123 454 q 105 456 113 419 q 94 532 98 492 q 87 609 90 572 q 79 668 84 646 l 94 100 q 108 57 94 75 q 156 39 122 39 q 183 44 172 39 q 200 58 194 50 q 210 75 207 66 q 214 94 213 85 l 229 674 z "},"ﬁ":{"ha":439,"x_min":87,"x_max":397,"o":"m 282 977 l 174 977 l 174 586 l 260 586 l 260 521 l 174 521 l 174 0 l 87 0 l 87 1042 l 282 1042 l 282 977 m 397 1042 l 397 0 l 310 0 l 310 1042 l 397 1042 z "},"ﬂ":{"ha":452,"x_min":87,"x_max":458,"o":"m 282 977 l 174 977 l 174 586 l 260 586 l 260 521 l 174 521 l 174 0 l 87 0 l 87 1042 l 282 1042 l 282 977 m 371 1042 l 371 65 l 458 65 l 458 0 l 284 0 l 284 1042 l 371 1042 z "}}}
